0
SECTION
2
HEADER
9
$ACADVER
1
AC1006
0
ENDSEC
0
SECTION
2
TABLES
0
TABLE
2
LAYER
70
1
0
LAYER
70
0
62
1
6
CONTINUOUS
2
L1D0
0
ENDTAB
0
ENDSEC
0
SECTION
2
BLOCKS
0
ENDSEC
0
SECTION
2
ENTITIES
0
POLYLINE
8
L1D0
70
1
40
0
41
0
66
1
0
VERTEX
8
L1D0
10
0
20
-12700.084
0
VERTEX
8
L1D0
10
-159.59
20
-12699.081
0
VERTEX
8
L1D0
10
-319.154
20
-12696.073
0
VERTEX
8
L1D0
10
-478.668
20
-12691.06
0
VERTEX
8
L1D0
10
-638.107
20
-12684.043
0
VERTEX
8
L1D0
10
-797.445
20
-12675.023
0
VERTEX
8
L1D0
10
-956.657
20
-12664.001
0
VERTEX
8
L1D0
10
-1115.718
20
-12650.98
0
VERTEX
8
L1D0
10
-1274.602
20
-12635.961
0
VERTEX
8
L1D0
10
-1433.286
20
-12618.947
0
VERTEX
8
L1D0
10
-1591.743
20
-12599.94
0
VERTEX
8
L1D0
10
-1749.948
20
-12578.943
0
VERTEX
8
L1D0
10
-1907.878
20
-12555.96
0
VERTEX
8
L1D0
10
-2065.506
20
-12530.994
0
VERTEX
8
L1D0
10
-2222.807
20
-12504.049
0
VERTEX
8
L1D0
10
-2379.758
20
-12475.13
0
VERTEX
8
L1D0
10
-2536.333
20
-12444.241
0
VERTEX
8
L1D0
10
-2692.508
20
-12411.387
0
VERTEX
8
L1D0
10
-2848.257
20
-12376.573
0
VERTEX
8
L1D0
10
-3003.557
20
-12339.804
0
VERTEX
8
L1D0
10
-3158.382
20
-12301.087
0
VERTEX
8
L1D0
10
-3312.709
20
-12260.427
0
VERTEX
8
L1D0
10
-3466.512
20
-12217.832
0
VERTEX
8
L1D0
10
-3619.768
20
-12173.307
0
VERTEX
8
L1D0
10
-3772.453
20
-12126.86
0
VERTEX
8
L1D0
10
-3924.542
20
-12078.497
0
VERTEX
8
L1D0
10
-4076.011
20
-12028.228
0
VERTEX
8
L1D0
10
-4226.836
20
-11976.059
0
VERTEX
8
L1D0
10
-4376.994
20
-11921.998
0
VERTEX
8
L1D0
10
-4526.461
20
-11866.056
0
VERTEX
8
L1D0
10
-4675.213
20
-11808.239
0
VERTEX
8
L1D0
10
-4823.226
20
-11748.558
0
VERTEX
8
L1D0
10
-4970.478
20
-11687.021
0
VERTEX
8
L1D0
10
-5116.945
20
-11623.639
0
VERTEX
8
L1D0
10
-5262.605
20
-11558.422
0
VERTEX
8
L1D0
10
-5407.433
20
-11491.379
0
VERTEX
8
L1D0
10
-5551.407
20
-11422.522
0
VERTEX
8
L1D0
10
-5694.504
20
-11351.861
0
VERTEX
8
L1D0
10
-5836.703
20
-11279.407
0
VERTEX
8
L1D0
10
-5977.979
20
-11205.172
0
VERTEX
8
L1D0
10
-6118.312
20
-11129.168
0
VERTEX
8
L1D0
10
-6257.678
20
-11051.406
0
VERTEX
8
L1D0
10
-6396.057
20
-10971.9
0
VERTEX
8
L1D0
10
-6533.425
20
-10890.66
0
VERTEX
8
L1D0
10
-6669.762
20
-10807.701
0
VERTEX
8
L1D0
10
-6805.045
20
-10723.035
0
VERTEX
8
L1D0
10
-6939.254
20
-10636.676
0
VERTEX
8
L1D0
10
-7072.367
20
-10548.637
0
VERTEX
8
L1D0
10
-7204.363
20
-10458.933
0
VERTEX
8
L1D0
10
-7335.222
20
-10367.577
0
VERTEX
8
L1D0
10
-7464.922
20
-10274.583
0
VERTEX
8
L1D0
10
-7593.443
20
-10179.968
0
VERTEX
8
L1D0
10
-7720.766
20
-10083.744
0
VERTEX
8
L1D0
10
-7846.869
20
-9985.929
0
VERTEX
8
L1D0
10
-7971.733
20
-9886.536
0
VERTEX
8
L1D0
10
-8095.338
20
-9785.583
0
VERTEX
8
L1D0
10
-8217.665
20
-9683.084
0
VERTEX
8
L1D0
10
-8338.694
20
-9579.056
0
VERTEX
8
L1D0
10
-8458.406
20
-9473.515
0
VERTEX
8
L1D0
10
-8576.783
20
-9366.478
0
VERTEX
8
L1D0
10
-8693.805
20
-9257.962
0
VERTEX
8
L1D0
10
-8809.455
20
-9147.985
0
VERTEX
8
L1D0
10
-8923.713
20
-9036.563
0
VERTEX
8
L1D0
10
-9036.563
20
-8923.713
0
VERTEX
8
L1D0
10
-9147.985
20
-8809.455
0
VERTEX
8
L1D0
10
-9257.962
20
-8693.805
0
VERTEX
8
L1D0
10
-9366.478
20
-8576.783
0
VERTEX
8
L1D0
10
-9473.515
20
-8458.406
0
VERTEX
8
L1D0
10
-9579.056
20
-8338.694
0
VERTEX
8
L1D0
10
-9683.084
20
-8217.665
0
VERTEX
8
L1D0
10
-9785.583
20
-8095.338
0
VERTEX
8
L1D0
10
-9886.536
20
-7971.733
0
VERTEX
8
L1D0
10
-9985.929
20
-7846.869
0
VERTEX
8
L1D0
10
-10083.744
20
-7720.766
0
VERTEX
8
L1D0
10
-10179.968
20
-7593.443
0
VERTEX
8
L1D0
10
-10274.583
20
-7464.922
0
VERTEX
8
L1D0
10
-10367.577
20
-7335.222
0
VERTEX
8
L1D0
10
-10458.933
20
-7204.363
0
VERTEX
8
L1D0
10
-10548.637
20
-7072.367
0
VERTEX
8
L1D0
10
-10636.676
20
-6939.254
0
VERTEX
8
L1D0
10
-10723.035
20
-6805.045
0
VERTEX
8
L1D0
10
-10807.701
20
-6669.762
0
VERTEX
8
L1D0
10
-10890.66
20
-6533.425
0
VERTEX
8
L1D0
10
-10971.9
20
-6396.057
0
VERTEX
8
L1D0
10
-11051.406
20
-6257.678
0
VERTEX
8
L1D0
10
-11129.168
20
-6118.312
0
VERTEX
8
L1D0
10
-11205.172
20
-5977.979
0
VERTEX
8
L1D0
10
-11279.407
20
-5836.703
0
VERTEX
8
L1D0
10
-11351.861
20
-5694.504
0
VERTEX
8
L1D0
10
-11422.522
20
-5551.407
0
VERTEX
8
L1D0
10
-11491.379
20
-5407.433
0
VERTEX
8
L1D0
10
-11558.422
20
-5262.605
0
VERTEX
8
L1D0
10
-11623.639
20
-5116.945
0
VERTEX
8
L1D0
10
-11687.021
20
-4970.478
0
VERTEX
8
L1D0
10
-11748.558
20
-4823.226
0
VERTEX
8
L1D0
10
-11808.239
20
-4675.213
0
VERTEX
8
L1D0
10
-11866.056
20
-4526.461
0
VERTEX
8
L1D0
10
-11921.998
20
-4376.994
0
VERTEX
8
L1D0
10
-11976.059
20
-4226.836
0
VERTEX
8
L1D0
10
-12028.228
20
-4076.011
0
VERTEX
8
L1D0
10
-12078.497
20
-3924.542
0
VERTEX
8
L1D0
10
-12126.86
20
-3772.453
0
VERTEX
8
L1D0
10
-12173.307
20
-3619.768
0
VERTEX
8
L1D0
10
-12217.832
20
-3466.512
0
VERTEX
8
L1D0
10
-12260.427
20
-3312.709
0
VERTEX
8
L1D0
10
-12301.087
20
-3158.382
0
VERTEX
8
L1D0
10
-12339.804
20
-3003.557
0
VERTEX
8
L1D0
10
-12376.573
20
-2848.257
0
VERTEX
8
L1D0
10
-12411.387
20
-2692.508
0
VERTEX
8
L1D0
10
-12444.241
20
-2536.333
0
VERTEX
8
L1D0
10
-12475.13
20
-2379.758
0
VERTEX
8
L1D0
10
-12504.049
20
-2222.807
0
VERTEX
8
L1D0
10
-12530.994
20
-2065.506
0
VERTEX
8
L1D0
10
-12555.96
20
-1907.878
0
VERTEX
8
L1D0
10
-12578.943
20
-1749.948
0
VERTEX
8
L1D0
10
-12599.94
20
-1591.743
0
VERTEX
8
L1D0
10
-12618.947
20
-1433.286
0
VERTEX
8
L1D0
10
-12635.961
20
-1274.602
0
VERTEX
8
L1D0
10
-12650.98
20
-1115.718
0
VERTEX
8
L1D0
10
-12664.001
20
-956.657
0
VERTEX
8
L1D0
10
-12675.023
20
-797.445
0
VERTEX
8
L1D0
10
-12684.043
20
-638.107
0
VERTEX
8
L1D0
10
-12691.06
20
-478.668
0
VERTEX
8
L1D0
10
-12696.073
20
-319.154
0
VERTEX
8
L1D0
10
-12699.081
20
-159.59
0
VERTEX
8
L1D0
10
-12700.084
20
0
0
VERTEX
8
L1D0
10
-12699.081
20
159.59
0
VERTEX
8
L1D0
10
-12696.073
20
319.154
0
VERTEX
8
L1D0
10
-12691.06
20
478.668
0
VERTEX
8
L1D0
10
-12684.043
20
638.107
0
VERTEX
8
L1D0
10
-12675.023
20
797.445
0
VERTEX
8
L1D0
10
-12664.001
20
956.657
0
VERTEX
8
L1D0
10
-12650.98
20
1115.718
0
VERTEX
8
L1D0
10
-12635.961
20
1274.602
0
VERTEX
8
L1D0
10
-12618.947
20
1433.286
0
VERTEX
8
L1D0
10
-12599.94
20
1591.743
0
VERTEX
8
L1D0
10
-12578.943
20
1749.948
0
VERTEX
8
L1D0
10
-12555.96
20
1907.878
0
VERTEX
8
L1D0
10
-12530.994
20
2065.506
0
VERTEX
8
L1D0
10
-12504.049
20
2222.807
0
VERTEX
8
L1D0
10
-12475.13
20
2379.758
0
VERTEX
8
L1D0
10
-12444.241
20
2536.333
0
VERTEX
8
L1D0
10
-12411.387
20
2692.508
0
VERTEX
8
L1D0
10
-12376.573
20
2848.257
0
VERTEX
8
L1D0
10
-12339.804
20
3003.557
0
VERTEX
8
L1D0
10
-12301.087
20
3158.382
0
VERTEX
8
L1D0
10
-12260.427
20
3312.709
0
VERTEX
8
L1D0
10
-12217.832
20
3466.512
0
VERTEX
8
L1D0
10
-12173.307
20
3619.768
0
VERTEX
8
L1D0
10
-12126.86
20
3772.453
0
VERTEX
8
L1D0
10
-12078.497
20
3924.542
0
VERTEX
8
L1D0
10
-12028.228
20
4076.011
0
VERTEX
8
L1D0
10
-11976.059
20
4226.836
0
VERTEX
8
L1D0
10
-11921.998
20
4376.994
0
VERTEX
8
L1D0
10
-11866.056
20
4526.461
0
VERTEX
8
L1D0
10
-11808.239
20
4675.213
0
VERTEX
8
L1D0
10
-11748.558
20
4823.226
0
VERTEX
8
L1D0
10
-11687.021
20
4970.478
0
VERTEX
8
L1D0
10
-11623.639
20
5116.945
0
VERTEX
8
L1D0
10
-11558.422
20
5262.605
0
VERTEX
8
L1D0
10
-11491.379
20
5407.433
0
VERTEX
8
L1D0
10
-11422.522
20
5551.407
0
VERTEX
8
L1D0
10
-11351.861
20
5694.504
0
VERTEX
8
L1D0
10
-11279.407
20
5836.703
0
VERTEX
8
L1D0
10
-11205.172
20
5977.979
0
VERTEX
8
L1D0
10
-11129.168
20
6118.312
0
VERTEX
8
L1D0
10
-11051.406
20
6257.678
0
VERTEX
8
L1D0
10
-10971.9
20
6396.057
0
VERTEX
8
L1D0
10
-10890.66
20
6533.425
0
VERTEX
8
L1D0
10
-10807.701
20
6669.762
0
VERTEX
8
L1D0
10
-10723.035
20
6805.045
0
VERTEX
8
L1D0
10
-10636.676
20
6939.254
0
VERTEX
8
L1D0
10
-10548.637
20
7072.367
0
VERTEX
8
L1D0
10
-10458.933
20
7204.363
0
VERTEX
8
L1D0
10
-10367.577
20
7335.222
0
VERTEX
8
L1D0
10
-10274.583
20
7464.922
0
VERTEX
8
L1D0
10
-10179.968
20
7593.443
0
VERTEX
8
L1D0
10
-10083.744
20
7720.766
0
VERTEX
8
L1D0
10
-9985.929
20
7846.869
0
VERTEX
8
L1D0
10
-9886.536
20
7971.733
0
VERTEX
8
L1D0
10
-9785.583
20
8095.338
0
VERTEX
8
L1D0
10
-9683.084
20
8217.665
0
VERTEX
8
L1D0
10
-9579.056
20
8338.694
0
VERTEX
8
L1D0
10
-9473.515
20
8458.406
0
VERTEX
8
L1D0
10
-9366.478
20
8576.783
0
VERTEX
8
L1D0
10
-9257.962
20
8693.805
0
VERTEX
8
L1D0
10
-9147.985
20
8809.455
0
VERTEX
8
L1D0
10
-9036.563
20
8923.713
0
VERTEX
8
L1D0
10
-8923.713
20
9036.563
0
VERTEX
8
L1D0
10
-8809.455
20
9147.985
0
VERTEX
8
L1D0
10
-8693.805
20
9257.962
0
VERTEX
8
L1D0
10
-8576.783
20
9366.478
0
VERTEX
8
L1D0
10
-8458.406
20
9473.515
0
VERTEX
8
L1D0
10
-8338.694
20
9579.056
0
VERTEX
8
L1D0
10
-8217.665
20
9683.084
0
VERTEX
8
L1D0
10
-8095.338
20
9785.583
0
VERTEX
8
L1D0
10
-7971.733
20
9886.536
0
VERTEX
8
L1D0
10
-7846.869
20
9985.929
0
VERTEX
8
L1D0
10
-7720.766
20
10083.744
0
VERTEX
8
L1D0
10
-7593.443
20
10179.968
0
VERTEX
8
L1D0
10
-7464.922
20
10274.583
0
VERTEX
8
L1D0
10
-7335.222
20
10367.577
0
VERTEX
8
L1D0
10
-7204.363
20
10458.933
0
VERTEX
8
L1D0
10
-7072.367
20
10548.637
0
VERTEX
8
L1D0
10
-6939.254
20
10636.676
0
VERTEX
8
L1D0
10
-6805.045
20
10723.035
0
VERTEX
8
L1D0
10
-6669.762
20
10807.701
0
VERTEX
8
L1D0
10
-6533.425
20
10890.66
0
VERTEX
8
L1D0
10
-6396.057
20
10971.9
0
VERTEX
8
L1D0
10
-6257.678
20
11051.406
0
VERTEX
8
L1D0
10
-6118.312
20
11129.168
0
VERTEX
8
L1D0
10
-5977.979
20
11205.172
0
VERTEX
8
L1D0
10
-5836.703
20
11279.407
0
VERTEX
8
L1D0
10
-5694.504
20
11351.861
0
VERTEX
8
L1D0
10
-5551.407
20
11422.522
0
VERTEX
8
L1D0
10
-5407.433
20
11491.379
0
VERTEX
8
L1D0
10
-5262.605
20
11558.422
0
VERTEX
8
L1D0
10
-5116.945
20
11623.639
0
VERTEX
8
L1D0
10
-4970.478
20
11687.021
0
VERTEX
8
L1D0
10
-4823.226
20
11748.558
0
VERTEX
8
L1D0
10
-4675.213
20
11808.239
0
VERTEX
8
L1D0
10
-4526.461
20
11866.056
0
VERTEX
8
L1D0
10
-4376.994
20
11921.998
0
VERTEX
8
L1D0
10
-4226.836
20
11976.059
0
VERTEX
8
L1D0
10
-4076.011
20
12028.228
0
VERTEX
8
L1D0
10
-3924.542
20
12078.497
0
VERTEX
8
L1D0
10
-3772.453
20
12126.86
0
VERTEX
8
L1D0
10
-3619.768
20
12173.307
0
VERTEX
8
L1D0
10
-3466.512
20
12217.832
0
VERTEX
8
L1D0
10
-3312.709
20
12260.427
0
VERTEX
8
L1D0
10
-3158.382
20
12301.087
0
VERTEX
8
L1D0
10
-3003.557
20
12339.804
0
VERTEX
8
L1D0
10
-2848.257
20
12376.573
0
VERTEX
8
L1D0
10
-2692.508
20
12411.387
0
VERTEX
8
L1D0
10
-2536.333
20
12444.241
0
VERTEX
8
L1D0
10
-2379.758
20
12475.13
0
VERTEX
8
L1D0
10
-2222.807
20
12504.049
0
VERTEX
8
L1D0
10
-2065.506
20
12530.994
0
VERTEX
8
L1D0
10
-1907.878
20
12555.96
0
VERTEX
8
L1D0
10
-1749.948
20
12578.943
0
VERTEX
8
L1D0
10
-1591.743
20
12599.94
0
VERTEX
8
L1D0
10
-1433.286
20
12618.947
0
VERTEX
8
L1D0
10
-1274.602
20
12635.961
0
VERTEX
8
L1D0
10
-1115.718
20
12650.98
0
VERTEX
8
L1D0
10
-956.657
20
12664.001
0
VERTEX
8
L1D0
10
-797.445
20
12675.023
0
VERTEX
8
L1D0
10
-638.107
20
12684.043
0
VERTEX
8
L1D0
10
-478.668
20
12691.06
0
VERTEX
8
L1D0
10
-319.154
20
12696.073
0
VERTEX
8
L1D0
10
-159.59
20
12699.081
0
VERTEX
8
L1D0
10
0
20
12700.084
0
VERTEX
8
L1D0
10
159.59
20
12699.081
0
VERTEX
8
L1D0
10
319.154
20
12696.073
0
VERTEX
8
L1D0
10
478.668
20
12691.06
0
VERTEX
8
L1D0
10
638.107
20
12684.043
0
VERTEX
8
L1D0
10
797.445
20
12675.023
0
VERTEX
8
L1D0
10
956.657
20
12664.001
0
VERTEX
8
L1D0
10
1115.718
20
12650.98
0
VERTEX
8
L1D0
10
1274.602
20
12635.961
0
VERTEX
8
L1D0
10
1433.286
20
12618.947
0
VERTEX
8
L1D0
10
1591.743
20
12599.94
0
VERTEX
8
L1D0
10
1749.948
20
12578.943
0
VERTEX
8
L1D0
10
1907.878
20
12555.96
0
VERTEX
8
L1D0
10
2065.506
20
12530.994
0
VERTEX
8
L1D0
10
2222.807
20
12504.049
0
VERTEX
8
L1D0
10
2379.758
20
12475.13
0
VERTEX
8
L1D0
10
2536.333
20
12444.241
0
VERTEX
8
L1D0
10
2692.508
20
12411.387
0
VERTEX
8
L1D0
10
2848.257
20
12376.573
0
VERTEX
8
L1D0
10
3003.557
20
12339.804
0
VERTEX
8
L1D0
10
3158.382
20
12301.087
0
VERTEX
8
L1D0
10
3312.709
20
12260.427
0
VERTEX
8
L1D0
10
3466.512
20
12217.832
0
VERTEX
8
L1D0
10
3619.768
20
12173.307
0
VERTEX
8
L1D0
10
3772.453
20
12126.86
0
VERTEX
8
L1D0
10
3924.542
20
12078.497
0
VERTEX
8
L1D0
10
4076.011
20
12028.228
0
VERTEX
8
L1D0
10
4226.836
20
11976.059
0
VERTEX
8
L1D0
10
4376.994
20
11921.998
0
VERTEX
8
L1D0
10
4526.461
20
11866.056
0
VERTEX
8
L1D0
10
4675.213
20
11808.239
0
VERTEX
8
L1D0
10
4823.226
20
11748.558
0
VERTEX
8
L1D0
10
4970.478
20
11687.021
0
VERTEX
8
L1D0
10
5116.945
20
11623.639
0
VERTEX
8
L1D0
10
5262.605
20
11558.422
0
VERTEX
8
L1D0
10
5407.433
20
11491.379
0
VERTEX
8
L1D0
10
5551.407
20
11422.522
0
VERTEX
8
L1D0
10
5694.504
20
11351.861
0
VERTEX
8
L1D0
10
5836.703
20
11279.407
0
VERTEX
8
L1D0
10
5977.979
20
11205.172
0
VERTEX
8
L1D0
10
6118.312
20
11129.168
0
VERTEX
8
L1D0
10
6257.678
20
11051.406
0
VERTEX
8
L1D0
10
6396.057
20
10971.9
0
VERTEX
8
L1D0
10
6533.425
20
10890.66
0
VERTEX
8
L1D0
10
6669.762
20
10807.701
0
VERTEX
8
L1D0
10
6805.045
20
10723.035
0
VERTEX
8
L1D0
10
6939.254
20
10636.676
0
VERTEX
8
L1D0
10
7072.367
20
10548.637
0
VERTEX
8
L1D0
10
7204.363
20
10458.933
0
VERTEX
8
L1D0
10
7335.222
20
10367.577
0
VERTEX
8
L1D0
10
7464.922
20
10274.583
0
VERTEX
8
L1D0
10
7593.443
20
10179.968
0
VERTEX
8
L1D0
10
7720.766
20
10083.744
0
VERTEX
8
L1D0
10
7846.869
20
9985.929
0
VERTEX
8
L1D0
10
7971.733
20
9886.536
0
VERTEX
8
L1D0
10
8095.338
20
9785.583
0
VERTEX
8
L1D0
10
8217.665
20
9683.084
0
VERTEX
8
L1D0
10
8338.694
20
9579.056
0
VERTEX
8
L1D0
10
8458.406
20
9473.515
0
VERTEX
8
L1D0
10
8576.783
20
9366.478
0
VERTEX
8
L1D0
10
8693.805
20
9257.962
0
VERTEX
8
L1D0
10
8809.455
20
9147.985
0
VERTEX
8
L1D0
10
8923.713
20
9036.563
0
VERTEX
8
L1D0
10
9036.563
20
8923.713
0
VERTEX
8
L1D0
10
9147.985
20
8809.455
0
VERTEX
8
L1D0
10
9257.962
20
8693.805
0
VERTEX
8
L1D0
10
9366.478
20
8576.783
0
VERTEX
8
L1D0
10
9473.515
20
8458.406
0
VERTEX
8
L1D0
10
9579.056
20
8338.694
0
VERTEX
8
L1D0
10
9683.084
20
8217.665
0
VERTEX
8
L1D0
10
9785.583
20
8095.338
0
VERTEX
8
L1D0
10
9886.536
20
7971.733
0
VERTEX
8
L1D0
10
9985.929
20
7846.869
0
VERTEX
8
L1D0
10
10083.744
20
7720.766
0
VERTEX
8
L1D0
10
10179.968
20
7593.443
0
VERTEX
8
L1D0
10
10274.583
20
7464.922
0
VERTEX
8
L1D0
10
10367.577
20
7335.222
0
VERTEX
8
L1D0
10
10458.933
20
7204.363
0
VERTEX
8
L1D0
10
10548.637
20
7072.367
0
VERTEX
8
L1D0
10
10636.676
20
6939.254
0
VERTEX
8
L1D0
10
10723.035
20
6805.045
0
VERTEX
8
L1D0
10
10807.701
20
6669.762
0
VERTEX
8
L1D0
10
10890.66
20
6533.425
0
VERTEX
8
L1D0
10
10971.9
20
6396.057
0
VERTEX
8
L1D0
10
11051.406
20
6257.678
0
VERTEX
8
L1D0
10
11129.168
20
6118.312
0
VERTEX
8
L1D0
10
11205.172
20
5977.979
0
VERTEX
8
L1D0
10
11279.407
20
5836.703
0
VERTEX
8
L1D0
10
11351.861
20
5694.504
0
VERTEX
8
L1D0
10
11422.522
20
5551.407
0
VERTEX
8
L1D0
10
11491.379
20
5407.433
0
VERTEX
8
L1D0
10
11558.422
20
5262.605
0
VERTEX
8
L1D0
10
11623.639
20
5116.945
0
VERTEX
8
L1D0
10
11687.021
20
4970.478
0
VERTEX
8
L1D0
10
11748.558
20
4823.226
0
VERTEX
8
L1D0
10
11808.239
20
4675.213
0
VERTEX
8
L1D0
10
11866.056
20
4526.461
0
VERTEX
8
L1D0
10
11921.998
20
4376.994
0
VERTEX
8
L1D0
10
11976.059
20
4226.836
0
VERTEX
8
L1D0
10
12028.228
20
4076.011
0
VERTEX
8
L1D0
10
12046.644
20
4020.521
0
VERTEX
8
L1D0
10
22.475
20
4020.521
0
VERTEX
8
L1D0
10
-67.422
20
4020.018
0
VERTEX
8
L1D0
10
-157.286
20
4017.506
0
VERTEX
8
L1D0
10
-247.071
20
4012.985
0
VERTEX
8
L1D0
10
-336.732
20
4006.458
0
VERTEX
8
L1D0
10
-426.226
20
3997.928
0
VERTEX
8
L1D0
10
-515.506
20
3987.399
0
VERTEX
8
L1D0
10
-604.528
20
3974.876
0
VERTEX
8
L1D0
10
-693.248
20
3960.366
0
VERTEX
8
L1D0
10
-781.621
20
3943.876
0
VERTEX
8
L1D0
10
-869.604
20
3925.415
0
VERTEX
8
L1D0
10
-957.152
20
3904.991
0
VERTEX
8
L1D0
10
-1044.221
20
3882.615
0
VERTEX
8
L1D0
10
-1130.769
20
3858.297
0
VERTEX
8
L1D0
10
-1216.751
20
3832.051
0
VERTEX
8
L1D0
10
-1302.124
20
3803.888
0
VERTEX
8
L1D0
10
-1386.847
20
3773.824
0
VERTEX
8
L1D0
10
-1470.877
20
3741.873
0
VERTEX
8
L1D0
10
-1554.17
20
3708.052
0
VERTEX
8
L1D0
10
-1636.687
20
3672.376
0
VERTEX
8
L1D0
10
-1718.386
20
3634.865
0
VERTEX
8
L1D0
10
-1799.226
20
3595.536
0
VERTEX
8
L1D0
10
-1879.166
20
3554.41
0
VERTEX
8
L1D0
10
-1958.166
20
3511.507
0
VERTEX
8
L1D0
10
-2036.188
20
3466.848
0
VERTEX
8
L1D0
10
-2113.191
20
3420.455
0
VERTEX
8
L1D0
10
-2189.139
20
3372.353
0
VERTEX
8
L1D0
10
-2263.991
20
3322.565
0
VERTEX
8
L1D0
10
-2337.712
20
3271.116
0
VERTEX
8
L1D0
10
-2410.264
20
3218.031
0
VERTEX
8
L1D0
10
-2447.761
20
3189.286
0
VERTEX
8
L1D0
10
-2199.528
20
2941.053
0
VERTEX
8
L1D0
10
-2741.171
20
2941.053
0
VERTEX
8
L1D0
10
-2754.244
20
2929.033
0
VERTEX
8
L1D0
10
-2819.044
20
2866.72
0
VERTEX
8
L1D0
10
-2882.434
20
2802.975
0
VERTEX
8
L1D0
10
-2944.383
20
2737.828
0
VERTEX
8
L1D0
10
-3004.86
20
2671.313
0
VERTEX
8
L1D0
10
-3063.835
20
2603.461
0
VERTEX
8
L1D0
10
-3121.277
20
2534.309
0
VERTEX
8
L1D0
10
-3177.16
20
2463.889
0
VERTEX
8
L1D0
10
-3231.454
20
2392.237
0
VERTEX
8
L1D0
10
-3284.132
20
2319.39
0
VERTEX
8
L1D0
10
-3335.169
20
2245.383
0
VERTEX
8
L1D0
10
-3384.538
20
2170.253
0
VERTEX
8
L1D0
10
-3432.215
20
2094.038
0
VERTEX
8
L1D0
10
-3478.176
20
2016.776
0
VERTEX
8
L1D0
10
-3522.398
20
1938.506
0
VERTEX
8
L1D0
10
-3564.859
20
1859.267
0
VERTEX
8
L1D0
10
-3605.538
20
1779.099
0
VERTEX
8
L1D0
10
-3644.414
20
1698.04
0
VERTEX
8
L1D0
10
-3681.468
20
1616.133
0
VERTEX
8
L1D0
10
-3716.682
20
1533.418
0
VERTEX
8
L1D0
10
-3750.037
20
1449.936
0
VERTEX
8
L1D0
10
-3781.518
20
1365.73
0
VERTEX
8
L1D0
10
-3811.108
20
1280.84
0
VERTEX
8
L1D0
10
-3838.792
20
1195.311
0
VERTEX
8
L1D0
10
-3864.558
20
1109.183
0
VERTEX
8
L1D0
10
-3888.391
20
1022.501
0
VERTEX
8
L1D0
10
-3910.28
20
935.308
0
VERTEX
8
L1D0
10
-3930.215
20
847.647
0
VERTEX
8
L1D0
10
-3948.184
20
759.563
0
VERTEX
8
L1D0
10
-3964.18
20
671.099
0
VERTEX
8
L1D0
10
-3978.193
20
582.299
0
VERTEX
8
L1D0
10
-3990.218
20
493.208
0
VERTEX
8
L1D0
10
-4000.248
20
403.87
0
VERTEX
8
L1D0
10
-4008.278
20
314.331
0
VERTEX
8
L1D0
10
-4014.304
20
224.635
0
VERTEX
8
L1D0
10
-4018.323
20
134.826
0
VERTEX
8
L1D0
10
-4020.332
20
44.949
0
VERTEX
8
L1D0
10
-4020.332
20
-44.949
0
VERTEX
8
L1D0
10
-4018.323
20
-134.826
0
VERTEX
8
L1D0
10
-4014.304
20
-224.635
0
VERTEX
8
L1D0
10
-4008.278
20
-314.331
0
VERTEX
8
L1D0
10
-4000.248
20
-403.87
0
VERTEX
8
L1D0
10
-3990.218
20
-493.208
0
VERTEX
8
L1D0
10
-3978.193
20
-582.299
0
VERTEX
8
L1D0
10
-3964.18
20
-671.099
0
VERTEX
8
L1D0
10
-3948.184
20
-759.563
0
VERTEX
8
L1D0
10
-3930.215
20
-847.647
0
VERTEX
8
L1D0
10
-3910.28
20
-935.308
0
VERTEX
8
L1D0
10
-3888.391
20
-1022.501
0
VERTEX
8
L1D0
10
-3864.558
20
-1109.183
0
VERTEX
8
L1D0
10
-3838.792
20
-1195.311
0
VERTEX
8
L1D0
10
-3811.108
20
-1280.84
0
VERTEX
8
L1D0
10
-3781.518
20
-1365.73
0
VERTEX
8
L1D0
10
-3750.037
20
-1449.936
0
VERTEX
8
L1D0
10
-3716.682
20
-1533.418
0
VERTEX
8
L1D0
10
-3681.468
20
-1616.133
0
VERTEX
8
L1D0
10
-3644.414
20
-1698.04
0
VERTEX
8
L1D0
10
-3605.538
20
-1779.099
0
VERTEX
8
L1D0
10
-3564.859
20
-1859.267
0
VERTEX
8
L1D0
10
-3522.398
20
-1938.506
0
VERTEX
8
L1D0
10
-3478.176
20
-2016.776
0
VERTEX
8
L1D0
10
-3432.215
20
-2094.038
0
VERTEX
8
L1D0
10
-3384.538
20
-2170.253
0
VERTEX
8
L1D0
10
-3335.169
20
-2245.383
0
VERTEX
8
L1D0
10
-3284.132
20
-2319.39
0
VERTEX
8
L1D0
10
-3231.454
20
-2392.237
0
VERTEX
8
L1D0
10
-3177.16
20
-2463.889
0
VERTEX
8
L1D0
10
-3121.277
20
-2534.309
0
VERTEX
8
L1D0
10
-3063.835
20
-2603.461
0
VERTEX
8
L1D0
10
-3004.86
20
-2671.313
0
VERTEX
8
L1D0
10
-2944.383
20
-2737.828
0
VERTEX
8
L1D0
10
-2882.434
20
-2802.975
0
VERTEX
8
L1D0
10
-2819.044
20
-2866.72
0
VERTEX
8
L1D0
10
-2754.244
20
-2929.033
0
VERTEX
8
L1D0
10
-2741.173
20
-2941.051
0
VERTEX
8
L1D0
10
-1168.892
20
-1368.77
0
VERTEX
8
L1D0
10
-1207.468
20
-1335.035
0
VERTEX
8
L1D0
10
-1251.404
20
-1293.942
0
VERTEX
8
L1D0
10
-1293.942
20
-1251.404
0
VERTEX
8
L1D0
10
-1335.035
20
-1207.468
0
VERTEX
8
L1D0
10
-1374.637
20
-1162.183
0
VERTEX
8
L1D0
10
-1412.704
20
-1115.601
0
VERTEX
8
L1D0
10
-1449.193
20
-1067.772
0
VERTEX
8
L1D0
10
-1484.063
20
-1018.751
0
VERTEX
8
L1D0
10
-1517.276
20
-968.592
0
VERTEX
8
L1D0
10
-1548.794
20
-917.352
0
VERTEX
8
L1D0
10
-1578.582
20
-865.086
0
VERTEX
8
L1D0
10
-1606.608
20
-811.855
0
VERTEX
8
L1D0
10
-1632.839
20
-757.717
0
VERTEX
8
L1D0
10
-1657.246
20
-702.732
0
VERTEX
8
L1D0
10
-1679.802
20
-646.963
0
VERTEX
8
L1D0
10
-1700.483
20
-590.471
0
VERTEX
8
L1D0
10
-1719.264
20
-533.32
0
VERTEX
8
L1D0
10
-1736.124
20
-475.573
0
VERTEX
8
L1D0
10
-1751.046
20
-417.295
0
VERTEX
8
L1D0
10
-1764.012
20
-358.55
0
VERTEX
8
L1D0
10
-1775.008
20
-299.406
0
VERTEX
8
L1D0
10
-1784.022
20
-239.927
0
VERTEX
8
L1D0
10
-1791.042
20
-180.18
0
VERTEX
8
L1D0
10
-1796.063
20
-120.231
0
VERTEX
8
L1D0
10
-1799.078
20
-60.149
0
VERTEX
8
L1D0
10
-1800.083
20
0
0
VERTEX
8
L1D0
10
-1799.078
20
60.15
0
VERTEX
8
L1D0
10
-1796.063
20
120.232
0
VERTEX
8
L1D0
10
-1791.042
20
180.181
0
VERTEX
8
L1D0
10
-1784.022
20
239.928
0
VERTEX
8
L1D0
10
-1775.008
20
299.407
0
VERTEX
8
L1D0
10
-1764.012
20
358.551
0
VERTEX
8
L1D0
10
-1751.046
20
417.296
0
VERTEX
8
L1D0
10
-1736.124
20
475.574
0
VERTEX
8
L1D0
10
-1719.264
20
533.321
0
VERTEX
8
L1D0
10
-1700.483
20
590.472
0
VERTEX
8
L1D0
10
-1679.802
20
646.964
0
VERTEX
8
L1D0
10
-1657.246
20
702.733
0
VERTEX
8
L1D0
10
-1632.839
20
757.718
0
VERTEX
8
L1D0
10
-1606.608
20
811.856
0
VERTEX
8
L1D0
10
-1578.582
20
865.087
0
VERTEX
8
L1D0
10
-1548.794
20
917.353
0
VERTEX
8
L1D0
10
-1517.276
20
968.593
0
VERTEX
8
L1D0
10
-1484.063
20
1018.752
0
VERTEX
8
L1D0
10
-1449.193
20
1067.773
0
VERTEX
8
L1D0
10
-1412.704
20
1115.602
0
VERTEX
8
L1D0
10
-1374.637
20
1162.184
0
VERTEX
8
L1D0
10
-1335.035
20
1207.469
0
VERTEX
8
L1D0
10
-1293.942
20
1251.405
0
VERTEX
8
L1D0
10
-1251.404
20
1293.943
0
VERTEX
8
L1D0
10
-1207.468
20
1335.036
0
VERTEX
8
L1D0
10
-1168.89
20
1368.772
0
VERTEX
8
L1D0
10
-2741.171
20
2941.053
0
VERTEX
8
L1D0
10
-2199.528
20
2941.053
0
VERTEX
8
L1D0
10
-846.726
20
1588.249
0
VERTEX
8
L1D0
10
-811.855
20
1606.609
0
VERTEX
8
L1D0
10
-757.717
20
1632.84
0
VERTEX
8
L1D0
10
-702.732
20
1657.247
0
VERTEX
8
L1D0
10
-646.963
20
1679.803
0
VERTEX
8
L1D0
10
-590.471
20
1700.484
0
VERTEX
8
L1D0
10
-533.32
20
1719.265
0
VERTEX
8
L1D0
10
-475.573
20
1736.125
0
VERTEX
8
L1D0
10
-417.295
20
1751.047
0
VERTEX
8
L1D0
10
-358.55
20
1764.013
0
VERTEX
8
L1D0
10
-299.406
20
1775.009
0
VERTEX
8
L1D0
10
-239.927
20
1784.023
0
VERTEX
8
L1D0
10
-180.18
20
1791.043
0
VERTEX
8
L1D0
10
-120.231
20
1796.064
0
VERTEX
8
L1D0
10
-60.149
20
1799.079
0
VERTEX
8
L1D0
10
0
20
1800.084
0
VERTEX
8
L1D0
10
60.15
20
1799.079
0
VERTEX
8
L1D0
10
120.232
20
1796.064
0
VERTEX
8
L1D0
10
180.181
20
1791.043
0
VERTEX
8
L1D0
10
239.928
20
1784.023
0
VERTEX
8
L1D0
10
299.407
20
1775.009
0
VERTEX
8
L1D0
10
358.551
20
1764.013
0
VERTEX
8
L1D0
10
417.296
20
1751.047
0
VERTEX
8
L1D0
10
475.574
20
1736.125
0
VERTEX
8
L1D0
10
533.321
20
1719.265
0
VERTEX
8
L1D0
10
590.472
20
1700.484
0
VERTEX
8
L1D0
10
646.964
20
1679.803
0
VERTEX
8
L1D0
10
702.733
20
1657.247
0
VERTEX
8
L1D0
10
757.718
20
1632.84
0
VERTEX
8
L1D0
10
811.856
20
1606.609
0
VERTEX
8
L1D0
10
846.728
20
1588.249
0
VERTEX
8
L1D0
10
2447.923
20
3189.445
0
VERTEX
8
L1D0
10
2446.09
20
3190.883
0
VERTEX
8
L1D0
10
2374.136
20
3244.776
0
VERTEX
8
L1D0
10
2300.995
20
3297.046
0
VERTEX
8
L1D0
10
2226.704
20
3347.668
0
VERTEX
8
L1D0
10
2151.299
20
3396.617
0
VERTEX
8
L1D0
10
2074.819
20
3443.867
0
VERTEX
8
L1D0
10
1997.302
20
3489.395
0
VERTEX
8
L1D0
10
1918.786
20
3533.179
0
VERTEX
8
L1D0
10
1839.311
20
3575.196
0
VERTEX
8
L1D0
10
1758.916
20
3615.427
0
VERTEX
8
L1D0
10
1677.642
20
3653.849
0
VERTEX
8
L1D0
10
1595.529
20
3690.445
0
VERTEX
8
L1D0
10
1512.618
20
3725.195
0
VERTEX
8
L1D0
10
1428.951
20
3758.084
0
VERTEX
8
L1D0
10
1344.57
20
3789.093
0
VERTEX
8
L1D0
10
1259.516
20
3818.208
0
VERTEX
8
L1D0
10
1173.833
20
3845.414
0
VERTEX
8
L1D0
10
1087.563
20
3870.698
0
VERTEX
8
L1D0
10
1000.749
20
3894.046
0
VERTEX
8
L1D0
10
913.435
20
3915.448
0
VERTEX
8
L1D0
10
825.664
20
3934.892
0
VERTEX
8
L1D0
10
737.481
20
3952.368
0
VERTEX
8
L1D0
10
648.928
20
3967.869
0
VERTEX
8
L1D0
10
560.052
20
3981.386
0
VERTEX
8
L1D0
10
470.895
20
3992.913
0
VERTEX
8
L1D0
10
381.503
20
4002.443
0
VERTEX
8
L1D0
10
291.92
20
4009.972
0
VERTEX
8
L1D0
10
202.191
20
4015.497
0
VERTEX
8
L1D0
10
112.361
20
4019.013
0
VERTEX
8
L1D0
10
22.475
20
4020.521
0
VERTEX
8
L1D0
10
12046.644
20
4020.521
0
VERTEX
8
L1D0
10
12078.497
20
3924.542
0
VERTEX
8
L1D0
10
12126.86
20
3772.453
0
VERTEX
8
L1D0
10
12173.307
20
3619.768
0
VERTEX
8
L1D0
10
12217.832
20
3466.512
0
VERTEX
8
L1D0
10
12260.427
20
3312.709
0
VERTEX
8
L1D0
10
12301.087
20
3158.382
0
VERTEX
8
L1D0
10
12339.804
20
3003.557
0
VERTEX
8
L1D0
10
12354.612
20
2941.014
0
VERTEX
8
L1D0
10
2741.136
20
2941.014
0
VERTEX
8
L1D0
10
1168.893
20
1368.771
0
VERTEX
8
L1D0
10
1207.469
20
1335.036
0
VERTEX
8
L1D0
10
1251.405
20
1293.943
0
VERTEX
8
L1D0
10
1293.943
20
1251.405
0
VERTEX
8
L1D0
10
1335.036
20
1207.469
0
VERTEX
8
L1D0
10
1374.638
20
1162.184
0
VERTEX
8
L1D0
10
1412.705
20
1115.602
0
VERTEX
8
L1D0
10
1449.194
20
1067.773
0
VERTEX
8
L1D0
10
1484.064
20
1018.752
0
VERTEX
8
L1D0
10
1517.277
20
968.593
0
VERTEX
8
L1D0
10
1548.795
20
917.353
0
VERTEX
8
L1D0
10
1578.583
20
865.087
0
VERTEX
8
L1D0
10
1606.609
20
811.856
0
VERTEX
8
L1D0
10
1632.84
20
757.718
0
VERTEX
8
L1D0
10
1657.247
20
702.733
0
VERTEX
8
L1D0
10
1679.803
20
646.964
0
VERTEX
8
L1D0
10
1700.484
20
590.472
0
VERTEX
8
L1D0
10
1719.265
20
533.321
0
VERTEX
8
L1D0
10
1736.125
20
475.574
0
VERTEX
8
L1D0
10
1751.047
20
417.296
0
VERTEX
8
L1D0
10
1764.013
20
358.551
0
VERTEX
8
L1D0
10
1775.009
20
299.407
0
VERTEX
8
L1D0
10
1784.023
20
239.928
0
VERTEX
8
L1D0
10
1791.043
20
180.181
0
VERTEX
8
L1D0
10
1796.064
20
120.232
0
VERTEX
8
L1D0
10
1799.079
20
60.15
0
VERTEX
8
L1D0
10
1800.084
20
0
0
VERTEX
8
L1D0
10
1799.079
20
-60.149
0
VERTEX
8
L1D0
10
1796.064
20
-120.231
0
VERTEX
8
L1D0
10
1791.043
20
-180.18
0
VERTEX
8
L1D0
10
1784.023
20
-239.927
0
VERTEX
8
L1D0
10
1775.009
20
-299.406
0
VERTEX
8
L1D0
10
1764.013
20
-358.55
0
VERTEX
8
L1D0
10
1751.047
20
-417.295
0
VERTEX
8
L1D0
10
1736.125
20
-475.573
0
VERTEX
8
L1D0
10
1719.265
20
-533.32
0
VERTEX
8
L1D0
10
1700.484
20
-590.471
0
VERTEX
8
L1D0
10
1679.803
20
-646.963
0
VERTEX
8
L1D0
10
1657.247
20
-702.732
0
VERTEX
8
L1D0
10
1632.84
20
-757.717
0
VERTEX
8
L1D0
10
1606.609
20
-811.855
0
VERTEX
8
L1D0
10
1578.583
20
-865.086
0
VERTEX
8
L1D0
10
1548.795
20
-917.352
0
VERTEX
8
L1D0
10
1517.277
20
-968.592
0
VERTEX
8
L1D0
10
1484.064
20
-1018.751
0
VERTEX
8
L1D0
10
1449.194
20
-1067.772
0
VERTEX
8
L1D0
10
1412.705
20
-1115.601
0
VERTEX
8
L1D0
10
1374.638
20
-1162.183
0
VERTEX
8
L1D0
10
1335.036
20
-1207.468
0
VERTEX
8
L1D0
10
1293.943
20
-1251.404
0
VERTEX
8
L1D0
10
1251.405
20
-1293.942
0
VERTEX
8
L1D0
10
1207.469
20
-1335.035
0
VERTEX
8
L1D0
10
1168.894
20
-1368.769
0
VERTEX
8
L1D0
10
1388.372
20
-1588.247
0
VERTEX
8
L1D0
10
-846.728
20
-1588.247
0
VERTEX
8
L1D0
10
-2447.763
20
-3189.285
0
VERTEX
8
L1D0
10
-2410.264
20
-3218.031
0
VERTEX
8
L1D0
10
-2337.712
20
-3271.116
0
VERTEX
8
L1D0
10
-2263.991
20
-3322.565
0
VERTEX
8
L1D0
10
-2189.139
20
-3372.353
0
VERTEX
8
L1D0
10
-2113.191
20
-3420.455
0
VERTEX
8
L1D0
10
-2036.188
20
-3466.848
0
VERTEX
8
L1D0
10
-1958.166
20
-3511.507
0
VERTEX
8
L1D0
10
-1879.166
20
-3554.41
0
VERTEX
8
L1D0
10
-1799.226
20
-3595.536
0
VERTEX
8
L1D0
10
-1718.386
20
-3634.865
0
VERTEX
8
L1D0
10
-1636.687
20
-3672.376
0
VERTEX
8
L1D0
10
-1554.17
20
-3708.052
0
VERTEX
8
L1D0
10
-1470.877
20
-3741.873
0
VERTEX
8
L1D0
10
-1386.847
20
-3773.824
0
VERTEX
8
L1D0
10
-1302.124
20
-3803.888
0
VERTEX
8
L1D0
10
-1216.751
20
-3832.051
0
VERTEX
8
L1D0
10
-1130.769
20
-3858.297
0
VERTEX
8
L1D0
10
-1044.221
20
-3882.615
0
VERTEX
8
L1D0
10
-957.152
20
-3904.991
0
VERTEX
8
L1D0
10
-869.604
20
-3925.415
0
VERTEX
8
L1D0
10
-781.621
20
-3943.876
0
VERTEX
8
L1D0
10
-693.248
20
-3960.366
0
VERTEX
8
L1D0
10
-604.528
20
-3974.876
0
VERTEX
8
L1D0
10
-515.506
20
-3987.399
0
VERTEX
8
L1D0
10
-426.226
20
-3997.928
0
VERTEX
8
L1D0
10
-336.732
20
-4006.458
0
VERTEX
8
L1D0
10
-247.071
20
-4012.985
0
VERTEX
8
L1D0
10
-157.286
20
-4017.506
0
VERTEX
8
L1D0
10
-67.422
20
-4020.018
0
VERTEX
8
L1D0
10
22.475
20
-4020.521
0
VERTEX
8
L1D0
10
112.361
20
-4019.013
0
VERTEX
8
L1D0
10
202.191
20
-4015.497
0
VERTEX
8
L1D0
10
291.92
20
-4009.972
0
VERTEX
8
L1D0
10
381.503
20
-4002.443
0
VERTEX
8
L1D0
10
470.895
20
-3992.913
0
VERTEX
8
L1D0
10
560.052
20
-3981.386
0
VERTEX
8
L1D0
10
648.928
20
-3967.869
0
VERTEX
8
L1D0
10
737.481
20
-3952.368
0
VERTEX
8
L1D0
10
825.664
20
-3934.892
0
VERTEX
8
L1D0
10
913.435
20
-3915.448
0
VERTEX
8
L1D0
10
1000.749
20
-3894.046
0
VERTEX
8
L1D0
10
1087.563
20
-3870.698
0
VERTEX
8
L1D0
10
1173.833
20
-3845.414
0
VERTEX
8
L1D0
10
1259.516
20
-3818.208
0
VERTEX
8
L1D0
10
1344.57
20
-3789.093
0
VERTEX
8
L1D0
10
1428.951
20
-3758.084
0
VERTEX
8
L1D0
10
1512.618
20
-3725.195
0
VERTEX
8
L1D0
10
1595.529
20
-3690.445
0
VERTEX
8
L1D0
10
1677.642
20
-3653.849
0
VERTEX
8
L1D0
10
1758.916
20
-3615.427
0
VERTEX
8
L1D0
10
1839.311
20
-3575.196
0
VERTEX
8
L1D0
10
1918.786
20
-3533.179
0
VERTEX
8
L1D0
10
1997.302
20
-3489.395
0
VERTEX
8
L1D0
10
2074.819
20
-3443.867
0
VERTEX
8
L1D0
10
2151.299
20
-3396.617
0
VERTEX
8
L1D0
10
2226.704
20
-3347.668
0
VERTEX
8
L1D0
10
2300.995
20
-3297.046
0
VERTEX
8
L1D0
10
2374.136
20
-3244.776
0
VERTEX
8
L1D0
10
2446.09
20
-3190.883
0
VERTEX
8
L1D0
10
2447.925
20
-3189.444
0
VERTEX
8
L1D0
10
2074.719
20
-2816.238
0
VERTEX
8
L1D0
10
2051.43
20
-2828.191
0
VERTEX
8
L1D0
10
2020.266
20
-2841.919
0
VERTEX
8
L1D0
10
1988.343
20
-2853.776
0
VERTEX
8
L1D0
10
1955.774
20
-2863.722
0
VERTEX
8
L1D0
10
1922.673
20
-2871.721
0
VERTEX
8
L1D0
10
1889.157
20
-2877.744
0
VERTEX
8
L1D0
10
1855.342
20
-2881.772
0
VERTEX
8
L1D0
10
1821.348
20
-2883.789
0
VERTEX
8
L1D0
10
1787.294
20
-2883.789
0
VERTEX
8
L1D0
10
1753.301
20
-2881.772
0
VERTEX
8
L1D0
10
1719.486
20
-2877.744
0
VERTEX
8
L1D0
10
1685.969
20
-2871.721
0
VERTEX
8
L1D0
10
1652.868
20
-2863.722
0
VERTEX
8
L1D0
10
1620.299
20
-2853.776
0
VERTEX
8
L1D0
10
1588.377
20
-2841.919
0
VERTEX
8
L1D0
10
1557.213
20
-2828.191
0
VERTEX
8
L1D0
10
1526.916
20
-2812.641
0
VERTEX
8
L1D0
10
1497.595
20
-2795.324
0
VERTEX
8
L1D0
10
1469.35
20
-2776.3
0
VERTEX
8
L1D0
10
1442.283
20
-2755.636
0
VERTEX
8
L1D0
10
1416.487
20
-2733.405
0
VERTEX
8
L1D0
10
1392.053
20
-2709.685
0
VERTEX
8
L1D0
10
1369.067
20
-2684.559
0
VERTEX
8
L1D0
10
1347.61
20
-2658.115
0
VERTEX
8
L1D0
10
1327.758
20
-2630.447
0
VERTEX
8
L1D0
10
1309.579
20
-2601.652
0
VERTEX
8
L1D0
10
1293.138
20
-2571.83
0
VERTEX
8
L1D0
10
1278.493
20
-2541.086
0
VERTEX
8
L1D0
10
1265.695
20
-2509.529
0
VERTEX
8
L1D0
10
1254.788
20
-2477.269
0
VERTEX
8
L1D0
10
1245.812
20
-2444.42
0
VERTEX
8
L1D0
10
1238.798
20
-2411.096
0
VERTEX
8
L1D0
10
1233.77
20
-2377.416
0
VERTEX
8
L1D0
10
1230.746
20
-2343.496
0
VERTEX
8
L1D0
10
1229.737
20
-2309.458
0
VERTEX
8
L1D0
10
1230.746
20
-2275.419
0
VERTEX
8
L1D0
10
1233.77
20
-2241.5
0
VERTEX
8
L1D0
10
1238.798
20
-2207.819
0
VERTEX
8
L1D0
10
1245.812
20
-2174.496
0
VERTEX
8
L1D0
10
1254.788
20
-2141.647
0
VERTEX
8
L1D0
10
1265.695
20
-2109.387
0
VERTEX
8
L1D0
10
1278.493
20
-2077.829
0
VERTEX
8
L1D0
10
1293.138
20
-2047.086
0
VERTEX
8
L1D0
10
1297.555
20
-2039.074
0
VERTEX
8
L1D0
10
846.729
20
-1588.248
0
VERTEX
8
L1D0
10
811.856
20
-1606.608
0
VERTEX
8
L1D0
10
757.718
20
-1632.839
0
VERTEX
8
L1D0
10
702.733
20
-1657.246
0
VERTEX
8
L1D0
10
646.964
20
-1679.802
0
VERTEX
8
L1D0
10
590.472
20
-1700.483
0
VERTEX
8
L1D0
10
533.321
20
-1719.264
0
VERTEX
8
L1D0
10
475.574
20
-1736.124
0
VERTEX
8
L1D0
10
417.296
20
-1751.046
0
VERTEX
8
L1D0
10
358.551
20
-1764.012
0
VERTEX
8
L1D0
10
299.407
20
-1775.008
0
VERTEX
8
L1D0
10
239.928
20
-1784.022
0
VERTEX
8
L1D0
10
180.181
20
-1791.042
0
VERTEX
8
L1D0
10
120.232
20
-1796.063
0
VERTEX
8
L1D0
10
60.15
20
-1799.078
0
VERTEX
8
L1D0
10
0
20
-1800.083
0
VERTEX
8
L1D0
10
-60.149
20
-1799.078
0
VERTEX
8
L1D0
10
-120.231
20
-1796.063
0
VERTEX
8
L1D0
10
-180.18
20
-1791.042
0
VERTEX
8
L1D0
10
-239.927
20
-1784.022
0
VERTEX
8
L1D0
10
-299.406
20
-1775.008
0
VERTEX
8
L1D0
10
-358.55
20
-1764.012
0
VERTEX
8
L1D0
10
-417.295
20
-1751.046
0
VERTEX
8
L1D0
10
-475.573
20
-1736.124
0
VERTEX
8
L1D0
10
-533.32
20
-1719.264
0
VERTEX
8
L1D0
10
-590.471
20
-1700.483
0
VERTEX
8
L1D0
10
-646.963
20
-1679.802
0
VERTEX
8
L1D0
10
-702.732
20
-1657.246
0
VERTEX
8
L1D0
10
-757.717
20
-1632.839
0
VERTEX
8
L1D0
10
-811.855
20
-1606.608
0
VERTEX
8
L1D0
10
-846.728
20
-1588.247
0
VERTEX
8
L1D0
10
1388.372
20
-1588.247
0
VERTEX
8
L1D0
10
1580.564
20
-1780.439
0
VERTEX
8
L1D0
10
1588.377
20
-1776.997
0
VERTEX
8
L1D0
10
1620.299
20
-1765.139
0
VERTEX
8
L1D0
10
1652.868
20
-1755.193
0
VERTEX
8
L1D0
10
1685.969
20
-1747.195
0
VERTEX
8
L1D0
10
1719.486
20
-1741.171
0
VERTEX
8
L1D0
10
1753.301
20
-1737.143
0
VERTEX
8
L1D0
10
1787.294
20
-1735.126
0
VERTEX
8
L1D0
10
1821.348
20
-1735.126
0
VERTEX
8
L1D0
10
1855.342
20
-1737.143
0
VERTEX
8
L1D0
10
1889.157
20
-1741.171
0
VERTEX
8
L1D0
10
1922.673
20
-1747.195
0
VERTEX
8
L1D0
10
1955.774
20
-1755.193
0
VERTEX
8
L1D0
10
1988.343
20
-1765.139
0
VERTEX
8
L1D0
10
2020.266
20
-1776.997
0
VERTEX
8
L1D0
10
2051.43
20
-1790.724
0
VERTEX
8
L1D0
10
2081.726
20
-1806.274
0
VERTEX
8
L1D0
10
2111.048
20
-1823.592
0
VERTEX
8
L1D0
10
2139.292
20
-1842.616
0
VERTEX
8
L1D0
10
2166.36
20
-1863.279
0
VERTEX
8
L1D0
10
2192.156
20
-1885.51
0
VERTEX
8
L1D0
10
2216.589
20
-1909.231
0
VERTEX
8
L1D0
10
2239.575
20
-1934.356
0
VERTEX
8
L1D0
10
2261.032
20
-1960.8
0
VERTEX
8
L1D0
10
2280.885
20
-1988.468
0
VERTEX
8
L1D0
10
2299.063
20
-2017.264
0
VERTEX
8
L1D0
10
2315.504
20
-2047.086
0
VERTEX
8
L1D0
10
2330.149
20
-2077.829
0
VERTEX
8
L1D0
10
2342.948
20
-2109.387
0
VERTEX
8
L1D0
10
2353.854
20
-2141.647
0
VERTEX
8
L1D0
10
2362.83
20
-2174.496
0
VERTEX
8
L1D0
10
2369.844
20
-2207.819
0
VERTEX
8
L1D0
10
2374.872
20
-2241.5
0
VERTEX
8
L1D0
10
2377.896
20
-2275.419
0
VERTEX
8
L1D0
10
2378.905
20
-2309.458
0
VERTEX
8
L1D0
10
2377.896
20
-2343.496
0
VERTEX
8
L1D0
10
2374.872
20
-2377.416
0
VERTEX
8
L1D0
10
2369.844
20
-2411.096
0
VERTEX
8
L1D0
10
2362.83
20
-2444.42
0
VERTEX
8
L1D0
10
2353.854
20
-2477.269
0
VERTEX
8
L1D0
10
2342.948
20
-2509.529
0
VERTEX
8
L1D0
10
2333.341
20
-2533.216
0
VERTEX
8
L1D0
10
2741.137
20
-2941.012
0
VERTEX
8
L1D0
10
2786.818
20
-2898.058
0
VERTEX
8
L1D0
10
2850.917
20
-2835.025
0
VERTEX
8
L1D0
10
2913.591
20
-2770.575
0
VERTEX
8
L1D0
10
2974.807
20
-2704.739
0
VERTEX
8
L1D0
10
3034.537
20
-2637.552
0
VERTEX
8
L1D0
10
3092.749
20
-2569.046
0
VERTEX
8
L1D0
10
3149.416
20
-2499.255
0
VERTEX
8
L1D0
10
3204.507
20
-2428.215
0
VERTEX
8
L1D0
10
3257.997
20
-2355.961
0
VERTEX
8
L1D0
10
3309.857
20
-2282.529
0
VERTEX
8
L1D0
10
3360.063
20
-2207.956
0
VERTEX
8
L1D0
10
3408.589
20
-2132.279
0
VERTEX
8
L1D0
10
3455.411
20
-2055.536
0
VERTEX
8
L1D0
10
3500.506
20
-1977.765
0
VERTEX
8
L1D0
10
3543.85
20
-1899.006
0
VERTEX
8
L1D0
10
3585.422
20
-1819.297
0
VERTEX
8
L1D0
10
3625.202
20
-1738.678
0
VERTEX
8
L1D0
10
3663.17
20
-1657.19
0
VERTEX
8
L1D0
10
3699.306
20
-1574.874
0
VERTEX
8
L1D0
10
3733.593
20
-1491.771
0
VERTEX
8
L1D0
10
3766.013
20
-1407.921
0
VERTEX
8
L1D0
10
3796.55
20
-1323.368
0
VERTEX
8
L1D0
10
3825.189
20
-1238.153
0
VERTEX
8
L1D0
10
3851.916
20
-1152.319
0
VERTEX
8
L1D0
10
3876.717
20
-1065.909
0
VERTEX
8
L1D0
10
3899.579
20
-978.966
0
VERTEX
8
L1D0
10
3920.493
20
-891.534
0
VERTEX
8
L1D0
10
3939.446
20
-803.655
0
VERTEX
8
L1D0
10
3956.429
20
-715.375
0
VERTEX
8
L1D0
10
3971.435
20
-626.738
0
VERTEX
8
L1D0
10
3984.455
20
-537.787
0
VERTEX
8
L1D0
10
3995.483
20
-448.567
0
VERTEX
8
L1D0
10
4004.513
20
-359.123
0
VERTEX
8
L1D0
10
4011.541
20
-269.5
0
VERTEX
8
L1D0
10
4016.564
20
-179.741
0
VERTEX
8
L1D0
10
4019.579
20
-89.893
0
VERTEX
8
L1D0
10
4020.584
20
0
0
VERTEX
8
L1D0
10
4019.579
20
89.893
0
VERTEX
8
L1D0
10
4016.564
20
179.741
0
VERTEX
8
L1D0
10
4011.541
20
269.5
0
VERTEX
8
L1D0
10
4004.513
20
359.123
0
VERTEX
8
L1D0
10
3995.483
20
448.567
0
VERTEX
8
L1D0
10
3984.455
20
537.787
0
VERTEX
8
L1D0
10
3971.435
20
626.738
0
VERTEX
8
L1D0
10
3956.429
20
715.375
0
VERTEX
8
L1D0
10
3939.446
20
803.655
0
VERTEX
8
L1D0
10
3920.493
20
891.534
0
VERTEX
8
L1D0
10
3899.579
20
978.966
0
VERTEX
8
L1D0
10
3876.717
20
1065.909
0
VERTEX
8
L1D0
10
3851.916
20
1152.319
0
VERTEX
8
L1D0
10
3825.189
20
1238.153
0
VERTEX
8
L1D0
10
3796.55
20
1323.368
0
VERTEX
8
L1D0
10
3766.013
20
1407.921
0
VERTEX
8
L1D0
10
3733.593
20
1491.771
0
VERTEX
8
L1D0
10
3699.306
20
1574.874
0
VERTEX
8
L1D0
10
3663.17
20
1657.19
0
VERTEX
8
L1D0
10
3625.202
20
1738.678
0
VERTEX
8
L1D0
10
3585.422
20
1819.297
0
VERTEX
8
L1D0
10
3543.85
20
1899.006
0
VERTEX
8
L1D0
10
3500.506
20
1977.765
0
VERTEX
8
L1D0
10
3455.411
20
2055.536
0
VERTEX
8
L1D0
10
3408.589
20
2132.279
0
VERTEX
8
L1D0
10
3360.063
20
2207.956
0
VERTEX
8
L1D0
10
3309.857
20
2282.529
0
VERTEX
8
L1D0
10
3257.997
20
2355.961
0
VERTEX
8
L1D0
10
3204.507
20
2428.215
0
VERTEX
8
L1D0
10
3149.416
20
2499.255
0
VERTEX
8
L1D0
10
3092.749
20
2569.046
0
VERTEX
8
L1D0
10
3034.537
20
2637.552
0
VERTEX
8
L1D0
10
2974.807
20
2704.739
0
VERTEX
8
L1D0
10
2913.591
20
2770.575
0
VERTEX
8
L1D0
10
2850.917
20
2835.025
0
VERTEX
8
L1D0
10
2786.818
20
2898.058
0
VERTEX
8
L1D0
10
2741.136
20
2941.014
0
VERTEX
8
L1D0
10
12354.612
20
2941.014
0
VERTEX
8
L1D0
10
12376.573
20
2848.257
0
VERTEX
8
L1D0
10
12411.387
20
2692.508
0
VERTEX
8
L1D0
10
12444.241
20
2536.333
0
VERTEX
8
L1D0
10
12475.13
20
2379.758
0
VERTEX
8
L1D0
10
12504.049
20
2222.807
0
VERTEX
8
L1D0
10
12530.994
20
2065.506
0
VERTEX
8
L1D0
10
12555.96
20
1907.878
0
VERTEX
8
L1D0
10
12578.943
20
1749.948
0
VERTEX
8
L1D0
10
12599.94
20
1591.743
0
VERTEX
8
L1D0
10
12618.947
20
1433.286
0
VERTEX
8
L1D0
10
12635.961
20
1274.602
0
VERTEX
8
L1D0
10
12650.98
20
1115.718
0
VERTEX
8
L1D0
10
12664.001
20
956.657
0
VERTEX
8
L1D0
10
12675.023
20
797.445
0
VERTEX
8
L1D0
10
12684.043
20
638.107
0
VERTEX
8
L1D0
10
12691.06
20
478.668
0
VERTEX
8
L1D0
10
12696.073
20
319.154
0
VERTEX
8
L1D0
10
12699.081
20
159.59
0
VERTEX
8
L1D0
10
12700.084
20
0
0
VERTEX
8
L1D0
10
12699.081
20
-159.59
0
VERTEX
8
L1D0
10
12696.073
20
-319.154
0
VERTEX
8
L1D0
10
12691.06
20
-478.668
0
VERTEX
8
L1D0
10
12684.043
20
-638.107
0
VERTEX
8
L1D0
10
12675.023
20
-797.445
0
VERTEX
8
L1D0
10
12664.001
20
-956.657
0
VERTEX
8
L1D0
10
12650.98
20
-1115.718
0
VERTEX
8
L1D0
10
12635.961
20
-1274.602
0
VERTEX
8
L1D0
10
12618.947
20
-1433.286
0
VERTEX
8
L1D0
10
12599.94
20
-1591.743
0
VERTEX
8
L1D0
10
12578.943
20
-1749.948
0
VERTEX
8
L1D0
10
12555.96
20
-1907.878
0
VERTEX
8
L1D0
10
12530.994
20
-2065.506
0
VERTEX
8
L1D0
10
12504.049
20
-2222.807
0
VERTEX
8
L1D0
10
12475.13
20
-2379.758
0
VERTEX
8
L1D0
10
12444.241
20
-2536.333
0
VERTEX
8
L1D0
10
12411.387
20
-2692.508
0
VERTEX
8
L1D0
10
12376.573
20
-2848.257
0
VERTEX
8
L1D0
10
12339.804
20
-3003.557
0
VERTEX
8
L1D0
10
12301.087
20
-3158.382
0
VERTEX
8
L1D0
10
12260.427
20
-3312.709
0
VERTEX
8
L1D0
10
12217.832
20
-3466.512
0
VERTEX
8
L1D0
10
12173.307
20
-3619.768
0
VERTEX
8
L1D0
10
12126.86
20
-3772.453
0
VERTEX
8
L1D0
10
12078.497
20
-3924.542
0
VERTEX
8
L1D0
10
12028.228
20
-4076.011
0
VERTEX
8
L1D0
10
11976.059
20
-4226.836
0
VERTEX
8
L1D0
10
11921.998
20
-4376.994
0
VERTEX
8
L1D0
10
11866.056
20
-4526.461
0
VERTEX
8
L1D0
10
11808.239
20
-4675.213
0
VERTEX
8
L1D0
10
11748.558
20
-4823.226
0
VERTEX
8
L1D0
10
11687.021
20
-4970.478
0
VERTEX
8
L1D0
10
11623.639
20
-5116.945
0
VERTEX
8
L1D0
10
11558.422
20
-5262.605
0
VERTEX
8
L1D0
10
11491.379
20
-5407.433
0
VERTEX
8
L1D0
10
11422.522
20
-5551.407
0
VERTEX
8
L1D0
10
11351.861
20
-5694.504
0
VERTEX
8
L1D0
10
11279.407
20
-5836.703
0
VERTEX
8
L1D0
10
11205.172
20
-5977.979
0
VERTEX
8
L1D0
10
11129.168
20
-6118.312
0
VERTEX
8
L1D0
10
11051.406
20
-6257.678
0
VERTEX
8
L1D0
10
10971.9
20
-6396.057
0
VERTEX
8
L1D0
10
10890.66
20
-6533.425
0
VERTEX
8
L1D0
10
10807.701
20
-6669.762
0
VERTEX
8
L1D0
10
10723.035
20
-6805.045
0
VERTEX
8
L1D0
10
10636.676
20
-6939.254
0
VERTEX
8
L1D0
10
10548.637
20
-7072.367
0
VERTEX
8
L1D0
10
10458.933
20
-7204.363
0
VERTEX
8
L1D0
10
10367.577
20
-7335.222
0
VERTEX
8
L1D0
10
10274.583
20
-7464.922
0
VERTEX
8
L1D0
10
10179.968
20
-7593.443
0
VERTEX
8
L1D0
10
10083.744
20
-7720.766
0
VERTEX
8
L1D0
10
9985.929
20
-7846.869
0
VERTEX
8
L1D0
10
9886.536
20
-7971.733
0
VERTEX
8
L1D0
10
9785.583
20
-8095.338
0
VERTEX
8
L1D0
10
9683.084
20
-8217.665
0
VERTEX
8
L1D0
10
9579.056
20
-8338.694
0
VERTEX
8
L1D0
10
9473.515
20
-8458.406
0
VERTEX
8
L1D0
10
9366.478
20
-8576.783
0
VERTEX
8
L1D0
10
9257.962
20
-8693.805
0
VERTEX
8
L1D0
10
9147.985
20
-8809.455
0
VERTEX
8
L1D0
10
9036.563
20
-8923.713
0
VERTEX
8
L1D0
10
8923.713
20
-9036.563
0
VERTEX
8
L1D0
10
8809.455
20
-9147.985
0
VERTEX
8
L1D0
10
8693.805
20
-9257.962
0
VERTEX
8
L1D0
10
8576.783
20
-9366.478
0
VERTEX
8
L1D0
10
8458.406
20
-9473.515
0
VERTEX
8
L1D0
10
8338.694
20
-9579.056
0
VERTEX
8
L1D0
10
8217.665
20
-9683.084
0
VERTEX
8
L1D0
10
8095.338
20
-9785.583
0
VERTEX
8
L1D0
10
7971.733
20
-9886.536
0
VERTEX
8
L1D0
10
7846.869
20
-9985.929
0
VERTEX
8
L1D0
10
7720.766
20
-10083.744
0
VERTEX
8
L1D0
10
7593.443
20
-10179.968
0
VERTEX
8
L1D0
10
7464.922
20
-10274.583
0
VERTEX
8
L1D0
10
7335.222
20
-10367.577
0
VERTEX
8
L1D0
10
7204.363
20
-10458.933
0
VERTEX
8
L1D0
10
7072.367
20
-10548.637
0
VERTEX
8
L1D0
10
6939.254
20
-10636.676
0
VERTEX
8
L1D0
10
6805.045
20
-10723.035
0
VERTEX
8
L1D0
10
6669.762
20
-10807.701
0
VERTEX
8
L1D0
10
6533.425
20
-10890.66
0
VERTEX
8
L1D0
10
6396.057
20
-10971.9
0
VERTEX
8
L1D0
10
6257.678
20
-11051.406
0
VERTEX
8
L1D0
10
6118.312
20
-11129.168
0
VERTEX
8
L1D0
10
5977.979
20
-11205.172
0
VERTEX
8
L1D0
10
5836.703
20
-11279.407
0
VERTEX
8
L1D0
10
5694.504
20
-11351.861
0
VERTEX
8
L1D0
10
5551.407
20
-11422.522
0
VERTEX
8
L1D0
10
5407.433
20
-11491.379
0
VERTEX
8
L1D0
10
5262.605
20
-11558.422
0
VERTEX
8
L1D0
10
5116.945
20
-11623.639
0
VERTEX
8
L1D0
10
4970.478
20
-11687.021
0
VERTEX
8
L1D0
10
4823.226
20
-11748.558
0
VERTEX
8
L1D0
10
4675.213
20
-11808.239
0
VERTEX
8
L1D0
10
4526.461
20
-11866.056
0
VERTEX
8
L1D0
10
4376.994
20
-11921.998
0
VERTEX
8
L1D0
10
4226.836
20
-11976.059
0
VERTEX
8
L1D0
10
4076.011
20
-12028.228
0
VERTEX
8
L1D0
10
3924.542
20
-12078.497
0
VERTEX
8
L1D0
10
3772.453
20
-12126.86
0
VERTEX
8
L1D0
10
3619.768
20
-12173.307
0
VERTEX
8
L1D0
10
3466.512
20
-12217.832
0
VERTEX
8
L1D0
10
3312.709
20
-12260.427
0
VERTEX
8
L1D0
10
3158.382
20
-12301.087
0
VERTEX
8
L1D0
10
3003.557
20
-12339.804
0
VERTEX
8
L1D0
10
2848.257
20
-12376.573
0
VERTEX
8
L1D0
10
2692.508
20
-12411.387
0
VERTEX
8
L1D0
10
2536.333
20
-12444.241
0
VERTEX
8
L1D0
10
2379.758
20
-12475.13
0
VERTEX
8
L1D0
10
2222.807
20
-12504.049
0
VERTEX
8
L1D0
10
2065.506
20
-12530.994
0
VERTEX
8
L1D0
10
1907.878
20
-12555.96
0
VERTEX
8
L1D0
10
1749.948
20
-12578.943
0
VERTEX
8
L1D0
10
1591.743
20
-12599.94
0
VERTEX
8
L1D0
10
1433.286
20
-12618.947
0
VERTEX
8
L1D0
10
1274.602
20
-12635.961
0
VERTEX
8
L1D0
10
1115.718
20
-12650.98
0
VERTEX
8
L1D0
10
956.657
20
-12664.001
0
VERTEX
8
L1D0
10
797.445
20
-12675.023
0
VERTEX
8
L1D0
10
638.107
20
-12684.043
0
VERTEX
8
L1D0
10
478.668
20
-12691.06
0
VERTEX
8
L1D0
10
319.154
20
-12696.073
0
VERTEX
8
L1D0
10
159.59
20
-12699.081
0
SEQEND
0
ENDSEC
0
EOF
