0
SECTION
2
HEADER
9
$ACADVER
1
AC1006
0
ENDSEC
0
SECTION
2
TABLES
0
TABLE
2
LAYER
70
1
0
LAYER
70
0
62
1
6
CONTINUOUS
2
L1D0
0
ENDTAB
0
ENDSEC
0
SECTION
2
BLOCKS
0
ENDSEC
0
SECTION
2
ENTITIES
0
POLYLINE
8
L1D0
70
1
40
0
41
0
66
1
0
VERTEX
8
L1D0
10
0
20
-12700.084
0
VERTEX
8
L1D0
10
-159.59
20
-12699.081
0
VERTEX
8
L1D0
10
-319.154
20
-12696.073
0
VERTEX
8
L1D0
10
-478.668
20
-12691.06
0
VERTEX
8
L1D0
10
-638.107
20
-12684.043
0
VERTEX
8
L1D0
10
-797.445
20
-12675.023
0
VERTEX
8
L1D0
10
-956.657
20
-12664.001
0
VERTEX
8
L1D0
10
-1115.718
20
-12650.98
0
VERTEX
8
L1D0
10
-1274.602
20
-12635.961
0
VERTEX
8
L1D0
10
-1433.286
20
-12618.947
0
VERTEX
8
L1D0
10
-1591.743
20
-12599.94
0
VERTEX
8
L1D0
10
-1749.948
20
-12578.943
0
VERTEX
8
L1D0
10
-1907.878
20
-12555.96
0
VERTEX
8
L1D0
10
-2065.506
20
-12530.994
0
VERTEX
8
L1D0
10
-2222.807
20
-12504.049
0
VERTEX
8
L1D0
10
-2379.758
20
-12475.13
0
VERTEX
8
L1D0
10
-2536.333
20
-12444.241
0
VERTEX
8
L1D0
10
-2692.508
20
-12411.387
0
VERTEX
8
L1D0
10
-2848.257
20
-12376.573
0
VERTEX
8
L1D0
10
-3003.557
20
-12339.804
0
VERTEX
8
L1D0
10
-3158.382
20
-12301.087
0
VERTEX
8
L1D0
10
-3312.709
20
-12260.427
0
VERTEX
8
L1D0
10
-3466.512
20
-12217.832
0
VERTEX
8
L1D0
10
-3619.768
20
-12173.307
0
VERTEX
8
L1D0
10
-3772.453
20
-12126.86
0
VERTEX
8
L1D0
10
-3924.542
20
-12078.497
0
VERTEX
8
L1D0
10
-4076.011
20
-12028.228
0
VERTEX
8
L1D0
10
-4226.836
20
-11976.059
0
VERTEX
8
L1D0
10
-4376.994
20
-11921.998
0
VERTEX
8
L1D0
10
-4526.461
20
-11866.056
0
VERTEX
8
L1D0
10
-4675.213
20
-11808.239
0
VERTEX
8
L1D0
10
-4823.226
20
-11748.558
0
VERTEX
8
L1D0
10
-4970.478
20
-11687.021
0
VERTEX
8
L1D0
10
-5116.945
20
-11623.639
0
VERTEX
8
L1D0
10
-5262.605
20
-11558.422
0
VERTEX
8
L1D0
10
-5407.433
20
-11491.379
0
VERTEX
8
L1D0
10
-5551.407
20
-11422.522
0
VERTEX
8
L1D0
10
-5694.504
20
-11351.861
0
VERTEX
8
L1D0
10
-5836.703
20
-11279.407
0
VERTEX
8
L1D0
10
-5977.979
20
-11205.172
0
VERTEX
8
L1D0
10
-6118.312
20
-11129.168
0
VERTEX
8
L1D0
10
-6257.678
20
-11051.406
0
VERTEX
8
L1D0
10
-6396.057
20
-10971.9
0
VERTEX
8
L1D0
10
-6533.425
20
-10890.66
0
VERTEX
8
L1D0
10
-6669.762
20
-10807.701
0
VERTEX
8
L1D0
10
-6805.045
20
-10723.035
0
VERTEX
8
L1D0
10
-6939.254
20
-10636.676
0
VERTEX
8
L1D0
10
-7072.367
20
-10548.637
0
VERTEX
8
L1D0
10
-7204.363
20
-10458.933
0
VERTEX
8
L1D0
10
-7335.222
20
-10367.577
0
VERTEX
8
L1D0
10
-7464.922
20
-10274.583
0
VERTEX
8
L1D0
10
-7593.443
20
-10179.968
0
VERTEX
8
L1D0
10
-7720.766
20
-10083.744
0
VERTEX
8
L1D0
10
-7846.869
20
-9985.929
0
VERTEX
8
L1D0
10
-7971.733
20
-9886.536
0
VERTEX
8
L1D0
10
-8095.338
20
-9785.583
0
VERTEX
8
L1D0
10
-8217.665
20
-9683.084
0
VERTEX
8
L1D0
10
-8338.694
20
-9579.056
0
VERTEX
8
L1D0
10
-8458.406
20
-9473.515
0
VERTEX
8
L1D0
10
-8576.783
20
-9366.478
0
VERTEX
8
L1D0
10
-8693.805
20
-9257.962
0
VERTEX
8
L1D0
10
-8809.455
20
-9147.985
0
VERTEX
8
L1D0
10
-8923.713
20
-9036.563
0
VERTEX
8
L1D0
10
-9036.563
20
-8923.713
0
VERTEX
8
L1D0
10
-9147.985
20
-8809.455
0
VERTEX
8
L1D0
10
-9257.962
20
-8693.805
0
VERTEX
8
L1D0
10
-9366.478
20
-8576.783
0
VERTEX
8
L1D0
10
-9473.515
20
-8458.406
0
VERTEX
8
L1D0
10
-9579.056
20
-8338.694
0
VERTEX
8
L1D0
10
-9683.084
20
-8217.665
0
VERTEX
8
L1D0
10
-9785.583
20
-8095.338
0
VERTEX
8
L1D0
10
-9886.536
20
-7971.733
0
VERTEX
8
L1D0
10
-9985.929
20
-7846.869
0
VERTEX
8
L1D0
10
-10083.744
20
-7720.766
0
VERTEX
8
L1D0
10
-10179.968
20
-7593.443
0
VERTEX
8
L1D0
10
-10274.583
20
-7464.922
0
VERTEX
8
L1D0
10
-10367.577
20
-7335.222
0
VERTEX
8
L1D0
10
-10458.933
20
-7204.363
0
VERTEX
8
L1D0
10
-10548.637
20
-7072.367
0
VERTEX
8
L1D0
10
-10636.676
20
-6939.254
0
VERTEX
8
L1D0
10
-10723.035
20
-6805.045
0
VERTEX
8
L1D0
10
-10807.701
20
-6669.762
0
VERTEX
8
L1D0
10
-10890.66
20
-6533.425
0
VERTEX
8
L1D0
10
-10971.9
20
-6396.057
0
VERTEX
8
L1D0
10
-11051.406
20
-6257.678
0
VERTEX
8
L1D0
10
-11129.168
20
-6118.312
0
VERTEX
8
L1D0
10
-11205.172
20
-5977.979
0
VERTEX
8
L1D0
10
-11279.407
20
-5836.703
0
VERTEX
8
L1D0
10
-11351.861
20
-5694.504
0
VERTEX
8
L1D0
10
-11422.522
20
-5551.407
0
VERTEX
8
L1D0
10
-11491.379
20
-5407.433
0
VERTEX
8
L1D0
10
-11558.422
20
-5262.605
0
VERTEX
8
L1D0
10
-11623.639
20
-5116.945
0
VERTEX
8
L1D0
10
-11687.021
20
-4970.478
0
VERTEX
8
L1D0
10
-11748.558
20
-4823.226
0
VERTEX
8
L1D0
10
-11808.239
20
-4675.213
0
VERTEX
8
L1D0
10
-11866.056
20
-4526.461
0
VERTEX
8
L1D0
10
-11921.998
20
-4376.994
0
VERTEX
8
L1D0
10
-11976.059
20
-4226.836
0
VERTEX
8
L1D0
10
-12028.228
20
-4076.011
0
VERTEX
8
L1D0
10
-12078.497
20
-3924.542
0
VERTEX
8
L1D0
10
-12126.86
20
-3772.453
0
VERTEX
8
L1D0
10
-12173.307
20
-3619.768
0
VERTEX
8
L1D0
10
-12217.832
20
-3466.512
0
VERTEX
8
L1D0
10
-12260.427
20
-3312.709
0
VERTEX
8
L1D0
10
-12301.087
20
-3158.382
0
VERTEX
8
L1D0
10
-12339.804
20
-3003.557
0
VERTEX
8
L1D0
10
-12376.573
20
-2848.257
0
VERTEX
8
L1D0
10
-12411.387
20
-2692.508
0
VERTEX
8
L1D0
10
-12444.241
20
-2536.333
0
VERTEX
8
L1D0
10
-12475.13
20
-2379.758
0
VERTEX
8
L1D0
10
-12504.049
20
-2222.807
0
VERTEX
8
L1D0
10
-12530.994
20
-2065.506
0
VERTEX
8
L1D0
10
-12555.96
20
-1907.878
0
VERTEX
8
L1D0
10
-12578.943
20
-1749.948
0
VERTEX
8
L1D0
10
-12599.94
20
-1591.743
0
VERTEX
8
L1D0
10
-12618.947
20
-1433.286
0
VERTEX
8
L1D0
10
-12635.961
20
-1274.602
0
VERTEX
8
L1D0
10
-12650.98
20
-1115.718
0
VERTEX
8
L1D0
10
-12664.001
20
-956.657
0
VERTEX
8
L1D0
10
-12675.023
20
-797.445
0
VERTEX
8
L1D0
10
-12684.043
20
-638.107
0
VERTEX
8
L1D0
10
-12691.06
20
-478.668
0
VERTEX
8
L1D0
10
-12696.073
20
-319.154
0
VERTEX
8
L1D0
10
-12699.081
20
-159.59
0
VERTEX
8
L1D0
10
-12700.084
20
0
0
VERTEX
8
L1D0
10
-12699.081
20
159.59
0
VERTEX
8
L1D0
10
-12696.073
20
319.154
0
VERTEX
8
L1D0
10
-12691.06
20
478.668
0
VERTEX
8
L1D0
10
-12684.043
20
638.107
0
VERTEX
8
L1D0
10
-12675.023
20
797.445
0
VERTEX
8
L1D0
10
-12664.001
20
956.657
0
VERTEX
8
L1D0
10
-12650.98
20
1115.718
0
VERTEX
8
L1D0
10
-12635.961
20
1274.602
0
VERTEX
8
L1D0
10
-12618.947
20
1433.286
0
VERTEX
8
L1D0
10
-12599.94
20
1591.743
0
VERTEX
8
L1D0
10
-12578.943
20
1749.948
0
VERTEX
8
L1D0
10
-12555.96
20
1907.878
0
VERTEX
8
L1D0
10
-12530.994
20
2065.506
0
VERTEX
8
L1D0
10
-12504.049
20
2222.807
0
VERTEX
8
L1D0
10
-12475.13
20
2379.758
0
VERTEX
8
L1D0
10
-12444.241
20
2536.333
0
VERTEX
8
L1D0
10
-12411.387
20
2692.508
0
VERTEX
8
L1D0
10
-12376.573
20
2848.257
0
VERTEX
8
L1D0
10
-12339.804
20
3003.557
0
VERTEX
8
L1D0
10
-12301.087
20
3158.382
0
VERTEX
8
L1D0
10
-12260.427
20
3312.709
0
VERTEX
8
L1D0
10
-12217.832
20
3466.512
0
VERTEX
8
L1D0
10
-12173.307
20
3619.768
0
VERTEX
8
L1D0
10
-12126.86
20
3772.453
0
VERTEX
8
L1D0
10
-12078.497
20
3924.542
0
VERTEX
8
L1D0
10
-12028.228
20
4076.011
0
VERTEX
8
L1D0
10
-11976.059
20
4226.836
0
VERTEX
8
L1D0
10
-11921.998
20
4376.994
0
VERTEX
8
L1D0
10
-11866.056
20
4526.461
0
VERTEX
8
L1D0
10
-11808.239
20
4675.213
0
VERTEX
8
L1D0
10
-11748.558
20
4823.226
0
VERTEX
8
L1D0
10
-11687.021
20
4970.478
0
VERTEX
8
L1D0
10
-11623.639
20
5116.945
0
VERTEX
8
L1D0
10
-11558.422
20
5262.605
0
VERTEX
8
L1D0
10
-11491.379
20
5407.433
0
VERTEX
8
L1D0
10
-11422.522
20
5551.407
0
VERTEX
8
L1D0
10
-11351.861
20
5694.504
0
VERTEX
8
L1D0
10
-11279.407
20
5836.703
0
VERTEX
8
L1D0
10
-11205.172
20
5977.979
0
VERTEX
8
L1D0
10
-11129.168
20
6118.312
0
VERTEX
8
L1D0
10
-11051.406
20
6257.678
0
VERTEX
8
L1D0
10
-10971.9
20
6396.057
0
VERTEX
8
L1D0
10
-10890.66
20
6533.425
0
VERTEX
8
L1D0
10
-10807.701
20
6669.762
0
VERTEX
8
L1D0
10
-10723.035
20
6805.045
0
VERTEX
8
L1D0
10
-10636.676
20
6939.254
0
VERTEX
8
L1D0
10
-10548.637
20
7072.367
0
VERTEX
8
L1D0
10
-10458.933
20
7204.363
0
VERTEX
8
L1D0
10
-10367.577
20
7335.222
0
VERTEX
8
L1D0
10
-10274.583
20
7464.922
0
VERTEX
8
L1D0
10
-10179.968
20
7593.443
0
VERTEX
8
L1D0
10
-10083.744
20
7720.766
0
VERTEX
8
L1D0
10
-9985.929
20
7846.869
0
VERTEX
8
L1D0
10
-9886.536
20
7971.733
0
VERTEX
8
L1D0
10
-9785.583
20
8095.338
0
VERTEX
8
L1D0
10
-9683.084
20
8217.665
0
VERTEX
8
L1D0
10
-9579.056
20
8338.694
0
VERTEX
8
L1D0
10
-9473.515
20
8458.406
0
VERTEX
8
L1D0
10
-9366.478
20
8576.783
0
VERTEX
8
L1D0
10
-9257.962
20
8693.805
0
VERTEX
8
L1D0
10
-9147.985
20
8809.455
0
VERTEX
8
L1D0
10
-9036.563
20
8923.713
0
VERTEX
8
L1D0
10
-8923.713
20
9036.563
0
VERTEX
8
L1D0
10
-8809.455
20
9147.985
0
VERTEX
8
L1D0
10
-8693.805
20
9257.962
0
VERTEX
8
L1D0
10
-8576.783
20
9366.478
0
VERTEX
8
L1D0
10
-8458.406
20
9473.515
0
VERTEX
8
L1D0
10
-8338.694
20
9579.056
0
VERTEX
8
L1D0
10
-8217.665
20
9683.084
0
VERTEX
8
L1D0
10
-8095.338
20
9785.583
0
VERTEX
8
L1D0
10
-7971.733
20
9886.536
0
VERTEX
8
L1D0
10
-7846.869
20
9985.929
0
VERTEX
8
L1D0
10
-7720.766
20
10083.744
0
VERTEX
8
L1D0
10
-7593.443
20
10179.968
0
VERTEX
8
L1D0
10
-7464.922
20
10274.583
0
VERTEX
8
L1D0
10
-7335.222
20
10367.577
0
VERTEX
8
L1D0
10
-7204.363
20
10458.933
0
VERTEX
8
L1D0
10
-7072.367
20
10548.637
0
VERTEX
8
L1D0
10
-6939.254
20
10636.676
0
VERTEX
8
L1D0
10
-6805.045
20
10723.035
0
VERTEX
8
L1D0
10
-6669.762
20
10807.701
0
VERTEX
8
L1D0
10
-6533.425
20
10890.66
0
VERTEX
8
L1D0
10
-6396.057
20
10971.9
0
VERTEX
8
L1D0
10
-6257.678
20
11051.406
0
VERTEX
8
L1D0
10
-6118.312
20
11129.168
0
VERTEX
8
L1D0
10
-5977.979
20
11205.172
0
VERTEX
8
L1D0
10
-5836.703
20
11279.407
0
VERTEX
8
L1D0
10
-5694.504
20
11351.861
0
VERTEX
8
L1D0
10
-5551.407
20
11422.522
0
VERTEX
8
L1D0
10
-5407.433
20
11491.379
0
VERTEX
8
L1D0
10
-5262.605
20
11558.422
0
VERTEX
8
L1D0
10
-5116.945
20
11623.639
0
VERTEX
8
L1D0
10
-4970.478
20
11687.021
0
VERTEX
8
L1D0
10
-4823.226
20
11748.558
0
VERTEX
8
L1D0
10
-4675.213
20
11808.239
0
VERTEX
8
L1D0
10
-4526.461
20
11866.056
0
VERTEX
8
L1D0
10
-4376.994
20
11921.998
0
VERTEX
8
L1D0
10
-4226.836
20
11976.059
0
VERTEX
8
L1D0
10
-4076.011
20
12028.228
0
VERTEX
8
L1D0
10
-3924.542
20
12078.497
0
VERTEX
8
L1D0
10
-3772.453
20
12126.86
0
VERTEX
8
L1D0
10
-3619.768
20
12173.307
0
VERTEX
8
L1D0
10
-3466.512
20
12217.832
0
VERTEX
8
L1D0
10
-3312.709
20
12260.427
0
VERTEX
8
L1D0
10
-3158.382
20
12301.087
0
VERTEX
8
L1D0
10
-3003.557
20
12339.804
0
VERTEX
8
L1D0
10
-2848.257
20
12376.573
0
VERTEX
8
L1D0
10
-2692.508
20
12411.387
0
VERTEX
8
L1D0
10
-2536.333
20
12444.241
0
VERTEX
8
L1D0
10
-2379.758
20
12475.13
0
VERTEX
8
L1D0
10
-2222.807
20
12504.049
0
VERTEX
8
L1D0
10
-2065.506
20
12530.994
0
VERTEX
8
L1D0
10
-1907.878
20
12555.96
0
VERTEX
8
L1D0
10
-1749.948
20
12578.943
0
VERTEX
8
L1D0
10
-1591.743
20
12599.94
0
VERTEX
8
L1D0
10
-1433.286
20
12618.947
0
VERTEX
8
L1D0
10
-1274.602
20
12635.961
0
VERTEX
8
L1D0
10
-1115.718
20
12650.98
0
VERTEX
8
L1D0
10
-956.657
20
12664.001
0
VERTEX
8
L1D0
10
-797.445
20
12675.023
0
VERTEX
8
L1D0
10
-638.107
20
12684.043
0
VERTEX
8
L1D0
10
-478.668
20
12691.06
0
VERTEX
8
L1D0
10
-319.154
20
12696.073
0
VERTEX
8
L1D0
10
-159.59
20
12699.081
0
VERTEX
8
L1D0
10
0
20
12700.084
0
VERTEX
8
L1D0
10
159.59
20
12699.081
0
VERTEX
8
L1D0
10
319.154
20
12696.073
0
VERTEX
8
L1D0
10
478.668
20
12691.06
0
VERTEX
8
L1D0
10
638.107
20
12684.043
0
VERTEX
8
L1D0
10
797.445
20
12675.023
0
VERTEX
8
L1D0
10
956.657
20
12664.001
0
VERTEX
8
L1D0
10
1115.718
20
12650.98
0
VERTEX
8
L1D0
10
1274.602
20
12635.961
0
VERTEX
8
L1D0
10
1433.286
20
12618.947
0
VERTEX
8
L1D0
10
1591.743
20
12599.94
0
VERTEX
8
L1D0
10
1749.948
20
12578.943
0
VERTEX
8
L1D0
10
1907.878
20
12555.96
0
VERTEX
8
L1D0
10
2065.506
20
12530.994
0
VERTEX
8
L1D0
10
2222.807
20
12504.049
0
VERTEX
8
L1D0
10
2379.758
20
12475.13
0
VERTEX
8
L1D0
10
2536.333
20
12444.241
0
VERTEX
8
L1D0
10
2692.508
20
12411.387
0
VERTEX
8
L1D0
10
2848.257
20
12376.573
0
VERTEX
8
L1D0
10
3003.557
20
12339.804
0
VERTEX
8
L1D0
10
3158.382
20
12301.087
0
VERTEX
8
L1D0
10
3312.709
20
12260.427
0
VERTEX
8
L1D0
10
3466.512
20
12217.832
0
VERTEX
8
L1D0
10
3619.768
20
12173.307
0
VERTEX
8
L1D0
10
3772.453
20
12126.86
0
VERTEX
8
L1D0
10
3924.542
20
12078.497
0
VERTEX
8
L1D0
10
4076.011
20
12028.228
0
VERTEX
8
L1D0
10
4226.836
20
11976.059
0
VERTEX
8
L1D0
10
4376.994
20
11921.998
0
VERTEX
8
L1D0
10
4526.461
20
11866.056
0
VERTEX
8
L1D0
10
4675.213
20
11808.239
0
VERTEX
8
L1D0
10
4823.226
20
11748.558
0
VERTEX
8
L1D0
10
4970.478
20
11687.021
0
VERTEX
8
L1D0
10
5116.945
20
11623.639
0
VERTEX
8
L1D0
10
5262.605
20
11558.422
0
VERTEX
8
L1D0
10
5407.433
20
11491.379
0
VERTEX
8
L1D0
10
5551.407
20
11422.522
0
VERTEX
8
L1D0
10
5694.504
20
11351.861
0
VERTEX
8
L1D0
10
5836.703
20
11279.407
0
VERTEX
8
L1D0
10
5977.979
20
11205.172
0
VERTEX
8
L1D0
10
6118.312
20
11129.168
0
VERTEX
8
L1D0
10
6257.678
20
11051.406
0
VERTEX
8
L1D0
10
6396.057
20
10971.9
0
VERTEX
8
L1D0
10
6533.425
20
10890.66
0
VERTEX
8
L1D0
10
6669.762
20
10807.701
0
VERTEX
8
L1D0
10
6805.045
20
10723.035
0
VERTEX
8
L1D0
10
6939.254
20
10636.676
0
VERTEX
8
L1D0
10
7072.367
20
10548.637
0
VERTEX
8
L1D0
10
7204.363
20
10458.933
0
VERTEX
8
L1D0
10
7335.222
20
10367.577
0
VERTEX
8
L1D0
10
7464.922
20
10274.583
0
VERTEX
8
L1D0
10
7593.443
20
10179.968
0
VERTEX
8
L1D0
10
7720.766
20
10083.744
0
VERTEX
8
L1D0
10
7846.869
20
9985.929
0
VERTEX
8
L1D0
10
7971.733
20
9886.536
0
VERTEX
8
L1D0
10
8095.338
20
9785.583
0
VERTEX
8
L1D0
10
8217.665
20
9683.084
0
VERTEX
8
L1D0
10
8338.694
20
9579.056
0
VERTEX
8
L1D0
10
8458.406
20
9473.515
0
VERTEX
8
L1D0
10
8576.783
20
9366.478
0
VERTEX
8
L1D0
10
8693.805
20
9257.962
0
VERTEX
8
L1D0
10
8809.455
20
9147.985
0
VERTEX
8
L1D0
10
8923.713
20
9036.563
0
VERTEX
8
L1D0
10
9036.563
20
8923.713
0
VERTEX
8
L1D0
10
9147.985
20
8809.455
0
VERTEX
8
L1D0
10
9257.962
20
8693.805
0
VERTEX
8
L1D0
10
9366.478
20
8576.783
0
VERTEX
8
L1D0
10
9473.515
20
8458.406
0
VERTEX
8
L1D0
10
9579.056
20
8338.694
0
VERTEX
8
L1D0
10
9683.084
20
8217.665
0
VERTEX
8
L1D0
10
9785.583
20
8095.338
0
VERTEX
8
L1D0
10
9886.536
20
7971.733
0
VERTEX
8
L1D0
10
9985.929
20
7846.869
0
VERTEX
8
L1D0
10
10083.744
20
7720.766
0
VERTEX
8
L1D0
10
10179.968
20
7593.443
0
VERTEX
8
L1D0
10
10274.583
20
7464.922
0
VERTEX
8
L1D0
10
10367.577
20
7335.222
0
VERTEX
8
L1D0
10
10458.933
20
7204.363
0
VERTEX
8
L1D0
10
10548.637
20
7072.367
0
VERTEX
8
L1D0
10
10636.676
20
6939.254
0
VERTEX
8
L1D0
10
10723.035
20
6805.045
0
VERTEX
8
L1D0
10
10807.701
20
6669.762
0
VERTEX
8
L1D0
10
10890.66
20
6533.425
0
VERTEX
8
L1D0
10
10971.9
20
6396.057
0
VERTEX
8
L1D0
10
11051.406
20
6257.678
0
VERTEX
8
L1D0
10
11129.168
20
6118.312
0
VERTEX
8
L1D0
10
11205.172
20
5977.979
0
VERTEX
8
L1D0
10
11279.407
20
5836.703
0
VERTEX
8
L1D0
10
11351.861
20
5694.504
0
VERTEX
8
L1D0
10
11422.522
20
5551.407
0
VERTEX
8
L1D0
10
11491.379
20
5407.433
0
VERTEX
8
L1D0
10
11558.422
20
5262.605
0
VERTEX
8
L1D0
10
11623.639
20
5116.945
0
VERTEX
8
L1D0
10
11687.021
20
4970.478
0
VERTEX
8
L1D0
10
11748.558
20
4823.226
0
VERTEX
8
L1D0
10
11808.239
20
4675.213
0
VERTEX
8
L1D0
10
11866.056
20
4526.461
0
VERTEX
8
L1D0
10
11921.998
20
4376.994
0
VERTEX
8
L1D0
10
11976.059
20
4226.836
0
VERTEX
8
L1D0
10
12028.228
20
4076.011
0
VERTEX
8
L1D0
10
12078.497
20
3924.542
0
VERTEX
8
L1D0
10
12086.294
20
3900.021
0
VERTEX
8
L1D0
10
22.116
20
3900.021
0
VERTEX
8
L1D0
10
-66.346
20
3899.519
0
VERTEX
8
L1D0
10
-154.774
20
3897.011
0
VERTEX
8
L1D0
10
-243.122
20
3892.498
0
VERTEX
8
L1D0
10
-331.346
20
3885.983
0
VERTEX
8
L1D0
10
-419.399
20
3877.468
0
VERTEX
8
L1D0
10
-507.236
20
3866.958
0
VERTEX
8
L1D0
10
-594.812
20
3854.459
0
VERTEX
8
L1D0
10
-682.082
20
3839.976
0
VERTEX
8
L1D0
10
-769.001
20
3823.518
0
VERTEX
8
L1D0
10
-855.525
20
3805.093
0
VERTEX
8
L1D0
10
-941.608
20
3784.71
0
VERTEX
8
L1D0
10
-1027.207
20
3762.379
0
VERTEX
8
L1D0
10
-1112.277
20
3738.113
0
VERTEX
8
L1D0
10
-1196.775
20
3711.924
0
VERTEX
8
L1D0
10
-1280.658
20
3683.825
0
VERTEX
8
L1D0
10
-1363.881
20
3653.831
0
VERTEX
8
L1D0
10
-1446.403
20
3621.957
0
VERTEX
8
L1D0
10
-1528.181
20
3588.219
0
VERTEX
8
L1D0
10
-1609.172
20
3552.635
0
VERTEX
8
L1D0
10
-1689.336
20
3515.224
0
VERTEX
8
L1D0
10
-1768.63
20
3476.003
0
VERTEX
8
L1D0
10
-1847.014
20
3434.995
0
VERTEX
8
L1D0
10
-1924.449
20
3392.219
0
VERTEX
8
L1D0
10
-2000.892
20
3347.698
0
VERTEX
8
L1D0
10
-2076.307
20
3301.454
0
VERTEX
8
L1D0
10
-2150.653
20
3253.512
0
VERTEX
8
L1D0
10
-2223.893
20
3203.896
0
VERTEX
8
L1D0
10
-2295.989
20
3152.632
0
VERTEX
8
L1D0
10
-2361.929
20
3103.455
0
VERTEX
8
L1D0
10
-2114.237
20
2855.763
0
VERTEX
8
L1D0
10
-2655.881
20
2855.763
0
VERTEX
8
L1D0
10
-2702.501
20
2811.964
0
VERTEX
8
L1D0
10
-2765.584
20
2749.945
0
VERTEX
8
L1D0
10
-2827.244
20
2686.511
0
VERTEX
8
L1D0
10
-2887.45
20
2621.696
0
VERTEX
8
L1D0
10
-2946.169
20
2555.531
0
VERTEX
8
L1D0
10
-3003.374
20
2488.051
0
VERTEX
8
L1D0
10
-3059.033
20
2419.292
0
VERTEX
8
L1D0
10
-3113.118
20
2349.287
0
VERTEX
8
L1D0
10
-3165.601
20
2278.074
0
VERTEX
8
L1D0
10
-3216.456
20
2205.689
0
VERTEX
8
L1D0
10
-3265.656
20
2132.169
0
VERTEX
8
L1D0
10
-3313.175
20
2057.552
0
VERTEX
8
L1D0
10
-3358.991
20
1981.876
0
VERTEX
8
L1D0
10
-3403.078
20
1905.181
0
VERTEX
8
L1D0
10
-3445.414
20
1827.506
0
VERTEX
8
L1D0
10
-3485.977
20
1748.89
0
VERTEX
8
L1D0
10
-3524.747
20
1669.375
0
VERTEX
8
L1D0
10
-3561.703
20
1589
0
VERTEX
8
L1D0
10
-3596.827
20
1507.808
0
VERTEX
8
L1D0
10
-3630.101
20
1425.841
0
VERTEX
8
L1D0
10
-3661.506
20
1343.14
0
VERTEX
8
L1D0
10
-3691.028
20
1259.747
0
VERTEX
8
L1D0
10
-3718.651
20
1175.707
0
VERTEX
8
L1D0
10
-3744.361
20
1091.062
0
VERTEX
8
L1D0
10
-3768.144
20
1005.855
0
VERTEX
8
L1D0
10
-3789.988
20
920.131
0
VERTEX
8
L1D0
10
-3809.883
20
833.933
0
VERTEX
8
L1D0
10
-3827.817
20
747.307
0
VERTEX
8
L1D0
10
-3843.782
20
660.296
0
VERTEX
8
L1D0
10
-3857.77
20
572.945
0
VERTEX
8
L1D0
10
-3869.772
20
485.299
0
VERTEX
8
L1D0
10
-3879.784
20
397.404
0
VERTEX
8
L1D0
10
-3887.799
20
309.304
0
VERTEX
8
L1D0
10
-3893.814
20
221.045
0
VERTEX
8
L1D0
10
-3897.826
20
132.673
0
VERTEX
8
L1D0
10
-3899.833
20
44.232
0
VERTEX
8
L1D0
10
-3899.833
20
-44.232
0
VERTEX
8
L1D0
10
-3897.826
20
-132.673
0
VERTEX
8
L1D0
10
-3893.814
20
-221.045
0
VERTEX
8
L1D0
10
-3887.799
20
-309.304
0
VERTEX
8
L1D0
10
-3879.784
20
-397.404
0
VERTEX
8
L1D0
10
-3869.772
20
-485.299
0
VERTEX
8
L1D0
10
-3857.77
20
-572.945
0
VERTEX
8
L1D0
10
-3843.782
20
-660.296
0
VERTEX
8
L1D0
10
-3827.817
20
-747.307
0
VERTEX
8
L1D0
10
-3809.883
20
-833.933
0
VERTEX
8
L1D0
10
-3789.988
20
-920.131
0
VERTEX
8
L1D0
10
-3768.144
20
-1005.855
0
VERTEX
8
L1D0
10
-3744.361
20
-1091.062
0
VERTEX
8
L1D0
10
-3718.651
20
-1175.707
0
VERTEX
8
L1D0
10
-3691.028
20
-1259.747
0
VERTEX
8
L1D0
10
-3661.506
20
-1343.14
0
VERTEX
8
L1D0
10
-3630.101
20
-1425.841
0
VERTEX
8
L1D0
10
-3596.827
20
-1507.808
0
VERTEX
8
L1D0
10
-3561.703
20
-1589
0
VERTEX
8
L1D0
10
-3524.747
20
-1669.375
0
VERTEX
8
L1D0
10
-3485.977
20
-1748.89
0
VERTEX
8
L1D0
10
-3445.414
20
-1827.506
0
VERTEX
8
L1D0
10
-3403.078
20
-1905.181
0
VERTEX
8
L1D0
10
-3358.991
20
-1981.876
0
VERTEX
8
L1D0
10
-3313.175
20
-2057.552
0
VERTEX
8
L1D0
10
-3265.656
20
-2132.169
0
VERTEX
8
L1D0
10
-3216.456
20
-2205.689
0
VERTEX
8
L1D0
10
-3165.601
20
-2278.074
0
VERTEX
8
L1D0
10
-3113.118
20
-2349.287
0
VERTEX
8
L1D0
10
-3059.033
20
-2419.292
0
VERTEX
8
L1D0
10
-3003.374
20
-2488.051
0
VERTEX
8
L1D0
10
-2946.169
20
-2555.531
0
VERTEX
8
L1D0
10
-2887.45
20
-2621.696
0
VERTEX
8
L1D0
10
-2827.244
20
-2686.511
0
VERTEX
8
L1D0
10
-2765.584
20
-2749.945
0
VERTEX
8
L1D0
10
-2702.501
20
-2811.964
0
VERTEX
8
L1D0
10
-2655.883
20
-2855.761
0
VERTEX
8
L1D0
10
-1239.843
20
-1439.721
0
VERTEX
8
L1D0
10
-1282.093
20
-1402.338
0
VERTEX
8
L1D0
10
-1327.059
20
-1359.863
0
VERTEX
8
L1D0
10
-1370.619
20
-1315.947
0
VERTEX
8
L1D0
10
-1412.726
20
-1270.637
0
VERTEX
8
L1D0
10
-1453.336
20
-1223.98
0
VERTEX
8
L1D0
10
-1492.406
20
-1176.026
0
VERTEX
8
L1D0
10
-1529.895
20
-1126.825
0
VERTEX
8
L1D0
10
-1565.762
20
-1076.431
0
VERTEX
8
L1D0
10
-1599.97
20
-1024.895
0
VERTEX
8
L1D0
10
-1632.482
20
-972.274
0
VERTEX
8
L1D0
10
-1663.264
20
-918.622
0
VERTEX
8
L1D0
10
-1692.284
20
-863.997
0
VERTEX
8
L1D0
10
-1719.51
20
-808.456
0
VERTEX
8
L1D0
10
-1744.913
20
-752.058
0
VERTEX
8
L1D0
10
-1768.468
20
-694.863
0
VERTEX
8
L1D0
10
-1790.149
20
-636.932
0
VERTEX
8
L1D0
10
-1809.932
20
-578.326
0
VERTEX
8
L1D0
10
-1827.797
20
-519.107
0
VERTEX
8
L1D0
10
-1843.725
20
-459.337
0
VERTEX
8
L1D0
10
-1857.7
20
-399.081
0
VERTEX
8
L1D0
10
-1869.705
20
-338.403
0
VERTEX
8
L1D0
10
-1879.73
20
-277.365
0
VERTEX
8
L1D0
10
-1887.762
20
-216.034
0
VERTEX
8
L1D0
10
-1893.793
20
-154.473
0
VERTEX
8
L1D0
10
-1897.818
20
-92.749
0
VERTEX
8
L1D0
10
-1899.831
20
-30.927
0
VERTEX
8
L1D0
10
-1899.831
20
30.928
0
VERTEX
8
L1D0
10
-1897.818
20
92.75
0
VERTEX
8
L1D0
10
-1893.793
20
154.474
0
VERTEX
8
L1D0
10
-1887.762
20
216.035
0
VERTEX
8
L1D0
10
-1879.73
20
277.366
0
VERTEX
8
L1D0
10
-1869.705
20
338.404
0
VERTEX
8
L1D0
10
-1857.7
20
399.082
0
VERTEX
8
L1D0
10
-1843.725
20
459.338
0
VERTEX
8
L1D0
10
-1827.797
20
519.108
0
VERTEX
8
L1D0
10
-1809.932
20
578.327
0
VERTEX
8
L1D0
10
-1790.149
20
636.933
0
VERTEX
8
L1D0
10
-1768.468
20
694.864
0
VERTEX
8
L1D0
10
-1744.913
20
752.059
0
VERTEX
8
L1D0
10
-1719.51
20
808.457
0
VERTEX
8
L1D0
10
-1692.284
20
863.998
0
VERTEX
8
L1D0
10
-1663.264
20
918.623
0
VERTEX
8
L1D0
10
-1632.482
20
972.275
0
VERTEX
8
L1D0
10
-1599.97
20
1024.896
0
VERTEX
8
L1D0
10
-1565.762
20
1076.432
0
VERTEX
8
L1D0
10
-1529.895
20
1126.826
0
VERTEX
8
L1D0
10
-1492.406
20
1176.027
0
VERTEX
8
L1D0
10
-1453.336
20
1223.981
0
VERTEX
8
L1D0
10
-1412.726
20
1270.638
0
VERTEX
8
L1D0
10
-1370.619
20
1315.948
0
VERTEX
8
L1D0
10
-1327.059
20
1359.864
0
VERTEX
8
L1D0
10
-1282.093
20
1402.339
0
VERTEX
8
L1D0
10
-1239.842
20
1439.724
0
VERTEX
8
L1D0
10
-2655.881
20
2855.763
0
VERTEX
8
L1D0
10
-2114.237
20
2855.763
0
VERTEX
8
L1D0
10
-920.506
20
1662.03
0
VERTEX
8
L1D0
10
-877.741
20
1685.197
0
VERTEX
8
L1D0
10
-822.424
20
1712.874
0
VERTEX
8
L1D0
10
-766.234
20
1738.736
0
VERTEX
8
L1D0
10
-709.233
20
1762.755
0
VERTEX
8
L1D0
10
-651.48
20
1784.906
0
VERTEX
8
L1D0
10
-593.037
20
1805.166
0
VERTEX
8
L1D0
10
-533.965
20
1823.513
0
VERTEX
8
L1D0
10
-474.328
20
1839.927
0
VERTEX
8
L1D0
10
-414.188
20
1854.391
0
VERTEX
8
L1D0
10
-353.608
20
1866.89
0
VERTEX
8
L1D0
10
-292.655
20
1877.411
0
VERTEX
8
L1D0
10
-231.39
20
1885.942
0
VERTEX
8
L1D0
10
-169.881
20
1892.474
0
VERTEX
8
L1D0
10
-108.192
20
1897.001
0
VERTEX
8
L1D0
10
-46.388
20
1899.518
0
VERTEX
8
L1D0
10
15.464
20
1900.021
0
VERTEX
8
L1D0
10
77.301
20
1898.511
0
VERTEX
8
L1D0
10
139.056
20
1894.989
0
VERTEX
8
L1D0
10
200.663
20
1889.458
0
VERTEX
8
L1D0
10
262.058
20
1881.926
0
VERTEX
8
L1D0
10
323.175
20
1872.399
0
VERTEX
8
L1D0
10
383.95
20
1860.887
0
VERTEX
8
L1D0
10
444.318
20
1847.404
0
VERTEX
8
L1D0
10
504.214
20
1831.963
0
VERTEX
8
L1D0
10
563.577
20
1814.58
0
VERTEX
8
L1D0
10
622.342
20
1795.274
0
VERTEX
8
L1D0
10
680.448
20
1774.066
0
VERTEX
8
L1D0
10
737.833
20
1750.977
0
VERTEX
8
L1D0
10
794.435
20
1726.033
0
VERTEX
8
L1D0
10
850.196
20
1699.26
0
VERTEX
8
L1D0
10
905.056
20
1670.686
0
VERTEX
8
L1D0
10
920.481
20
1662.002
0
VERTEX
8
L1D0
10
2361.803
20
3103.325
0
VERTEX
8
L1D0
10
2331.596
20
3126.39
0
VERTEX
8
L1D0
10
2260.086
20
3178.469
0
VERTEX
8
L1D0
10
2187.414
20
3228.912
0
VERTEX
8
L1D0
10
2113.616
20
3277.694
0
VERTEX
8
L1D0
10
2038.731
20
3324.79
0
VERTEX
8
L1D0
10
1962.797
20
3370.175
0
VERTEX
8
L1D0
10
1885.853
20
3413.827
0
VERTEX
8
L1D0
10
1807.939
20
3455.721
0
VERTEX
8
L1D0
10
1729.094
20
3495.838
0
VERTEX
8
L1D0
10
1649.36
20
3534.157
0
VERTEX
8
L1D0
10
1568.777
20
3570.657
0
VERTEX
8
L1D0
10
1487.388
20
3605.32
0
VERTEX
8
L1D0
10
1405.233
20
3638.128
0
VERTEX
8
L1D0
10
1322.355
20
3669.064
0
VERTEX
8
L1D0
10
1238.796
20
3698.112
0
VERTEX
8
L1D0
10
1154.601
20
3725.258
0
VERTEX
8
L1D0
10
1069.811
20
3750.488
0
VERTEX
8
L1D0
10
984.471
20
3773.787
0
VERTEX
8
L1D0
10
898.624
20
3795.145
0
VERTEX
8
L1D0
10
812.315
20
3814.551
0
VERTEX
8
L1D0
10
725.588
20
3831.993
0
VERTEX
8
L1D0
10
638.488
20
3847.465
0
VERTEX
8
L1D0
10
551.059
20
3860.957
0
VERTEX
8
L1D0
10
463.347
20
3872.462
0
VERTEX
8
L1D0
10
375.396
20
3881.975
0
VERTEX
8
L1D0
10
287.253
20
3889.491
0
VERTEX
8
L1D0
10
198.961
20
3895.005
0
VERTEX
8
L1D0
10
110.567
20
3898.516
0
VERTEX
8
L1D0
10
22.116
20
3900.021
0
VERTEX
8
L1D0
10
12086.294
20
3900.021
0
VERTEX
8
L1D0
10
12126.86
20
3772.453
0
VERTEX
8
L1D0
10
12173.307
20
3619.768
0
VERTEX
8
L1D0
10
12217.832
20
3466.512
0
VERTEX
8
L1D0
10
12260.427
20
3312.709
0
VERTEX
8
L1D0
10
12301.087
20
3158.382
0
VERTEX
8
L1D0
10
12339.804
20
3003.557
0
VERTEX
8
L1D0
10
12374.792
20
2855.78
0
VERTEX
8
L1D0
10
2655.902
20
2855.78
0
VERTEX
8
L1D0
10
1239.728
20
1439.606
0
VERTEX
8
L1D0
10
1259.098
20
1423.022
0
VERTEX
8
L1D0
10
1304.75
20
1381.285
0
VERTEX
8
L1D0
10
1349.019
20
1338.084
0
VERTEX
8
L1D0
10
1391.858
20
1293.465
0
VERTEX
8
L1D0
10
1433.222
20
1247.475
0
VERTEX
8
L1D0
10
1473.068
20
1200.163
0
VERTEX
8
L1D0
10
1511.352
20
1151.579
0
VERTEX
8
L1D0
10
1548.034
20
1101.775
0
VERTEX
8
L1D0
10
1583.077
20
1050.803
0
VERTEX
8
L1D0
10
1616.441
20
998.718
0
VERTEX
8
L1D0
10
1648.092
20
945.574
0
VERTEX
8
L1D0
10
1677.997
20
891.428
0
VERTEX
8
L1D0
10
1706.124
20
836.338
0
VERTEX
8
L1D0
10
1732.442
20
780.361
0
VERTEX
8
L1D0
10
1756.924
20
723.557
0
VERTEX
8
L1D0
10
1779.545
20
665.987
0
VERTEX
8
L1D0
10
1800.28
20
607.71
0
VERTEX
8
L1D0
10
1819.107
20
548.79
0
VERTEX
8
L1D0
10
1836.006
20
489.288
0
VERTEX
8
L1D0
10
1850.959
20
429.267
0
VERTEX
8
L1D0
10
1863.95
20
368.792
0
VERTEX
8
L1D0
10
1874.967
20
307.926
0
VERTEX
8
L1D0
10
1883.996
20
246.733
0
VERTEX
8
L1D0
10
1891.029
20
185.279
0
VERTEX
8
L1D0
10
1896.058
20
123.628
0
VERTEX
8
L1D0
10
1899.077
20
61.847
0
VERTEX
8
L1D0
10
1900.084
20
0
0
VERTEX
8
L1D0
10
1899.077
20
-61.846
0
VERTEX
8
L1D0
10
1896.058
20
-123.627
0
VERTEX
8
L1D0
10
1891.029
20
-185.278
0
VERTEX
8
L1D0
10
1883.996
20
-246.732
0
VERTEX
8
L1D0
10
1874.967
20
-307.925
0
VERTEX
8
L1D0
10
1863.95
20
-368.791
0
VERTEX
8
L1D0
10
1850.959
20
-429.266
0
VERTEX
8
L1D0
10
1836.006
20
-489.287
0
VERTEX
8
L1D0
10
1819.107
20
-548.789
0
VERTEX
8
L1D0
10
1800.28
20
-607.709
0
VERTEX
8
L1D0
10
1779.545
20
-665.986
0
VERTEX
8
L1D0
10
1756.924
20
-723.556
0
VERTEX
8
L1D0
10
1732.442
20
-780.36
0
VERTEX
8
L1D0
10
1706.124
20
-836.337
0
VERTEX
8
L1D0
10
1677.997
20
-891.427
0
VERTEX
8
L1D0
10
1648.092
20
-945.573
0
VERTEX
8
L1D0
10
1616.441
20
-998.717
0
VERTEX
8
L1D0
10
1583.077
20
-1050.802
0
VERTEX
8
L1D0
10
1548.034
20
-1101.774
0
VERTEX
8
L1D0
10
1511.352
20
-1151.578
0
VERTEX
8
L1D0
10
1473.068
20
-1200.162
0
VERTEX
8
L1D0
10
1433.222
20
-1247.474
0
VERTEX
8
L1D0
10
1391.858
20
-1293.464
0
VERTEX
8
L1D0
10
1349.019
20
-1338.083
0
VERTEX
8
L1D0
10
1304.75
20
-1381.284
0
VERTEX
8
L1D0
10
1259.098
20
-1423.021
0
VERTEX
8
L1D0
10
1239.729
20
-1439.604
0
VERTEX
8
L1D0
10
1462.126
20
-1662.001
0
VERTEX
8
L1D0
10
920.482
20
-1662.001
0
VERTEX
8
L1D0
10
905.056
20
-1670.685
0
VERTEX
8
L1D0
10
850.196
20
-1699.259
0
VERTEX
8
L1D0
10
794.435
20
-1726.032
0
VERTEX
8
L1D0
10
737.833
20
-1750.976
0
VERTEX
8
L1D0
10
680.448
20
-1774.065
0
VERTEX
8
L1D0
10
622.342
20
-1795.273
0
VERTEX
8
L1D0
10
563.577
20
-1814.579
0
VERTEX
8
L1D0
10
504.214
20
-1831.962
0
VERTEX
8
L1D0
10
444.318
20
-1847.403
0
VERTEX
8
L1D0
10
383.95
20
-1860.886
0
VERTEX
8
L1D0
10
323.175
20
-1872.398
0
VERTEX
8
L1D0
10
262.058
20
-1881.925
0
VERTEX
8
L1D0
10
200.663
20
-1889.457
0
VERTEX
8
L1D0
10
139.056
20
-1894.988
0
VERTEX
8
L1D0
10
77.301
20
-1898.51
0
VERTEX
8
L1D0
10
15.464
20
-1900.02
0
VERTEX
8
L1D0
10
-46.388
20
-1899.517
0
VERTEX
8
L1D0
10
-108.192
20
-1897
0
VERTEX
8
L1D0
10
-169.881
20
-1892.473
0
VERTEX
8
L1D0
10
-231.39
20
-1885.941
0
VERTEX
8
L1D0
10
-292.655
20
-1877.41
0
VERTEX
8
L1D0
10
-353.608
20
-1866.889
0
VERTEX
8
L1D0
10
-414.188
20
-1854.39
0
VERTEX
8
L1D0
10
-474.328
20
-1839.926
0
VERTEX
8
L1D0
10
-533.965
20
-1823.512
0
VERTEX
8
L1D0
10
-593.037
20
-1805.165
0
VERTEX
8
L1D0
10
-651.48
20
-1784.905
0
VERTEX
8
L1D0
10
-709.233
20
-1762.754
0
VERTEX
8
L1D0
10
-766.234
20
-1738.735
0
VERTEX
8
L1D0
10
-822.424
20
-1712.873
0
VERTEX
8
L1D0
10
-877.741
20
-1685.196
0
VERTEX
8
L1D0
10
-920.508
20
-1662.028
0
VERTEX
8
L1D0
10
-2361.932
20
-3103.454
0
VERTEX
8
L1D0
10
-2295.989
20
-3152.632
0
VERTEX
8
L1D0
10
-2223.893
20
-3203.896
0
VERTEX
8
L1D0
10
-2150.653
20
-3253.512
0
VERTEX
8
L1D0
10
-2076.307
20
-3301.454
0
VERTEX
8
L1D0
10
-2000.892
20
-3347.698
0
VERTEX
8
L1D0
10
-1924.449
20
-3392.219
0
VERTEX
8
L1D0
10
-1847.014
20
-3434.995
0
VERTEX
8
L1D0
10
-1768.63
20
-3476.003
0
VERTEX
8
L1D0
10
-1689.336
20
-3515.224
0
VERTEX
8
L1D0
10
-1609.172
20
-3552.635
0
VERTEX
8
L1D0
10
-1528.181
20
-3588.219
0
VERTEX
8
L1D0
10
-1446.403
20
-3621.957
0
VERTEX
8
L1D0
10
-1363.881
20
-3653.831
0
VERTEX
8
L1D0
10
-1280.658
20
-3683.825
0
VERTEX
8
L1D0
10
-1196.775
20
-3711.924
0
VERTEX
8
L1D0
10
-1112.277
20
-3738.113
0
VERTEX
8
L1D0
10
-1027.207
20
-3762.379
0
VERTEX
8
L1D0
10
-941.608
20
-3784.71
0
VERTEX
8
L1D0
10
-855.525
20
-3805.093
0
VERTEX
8
L1D0
10
-769.001
20
-3823.518
0
VERTEX
8
L1D0
10
-682.082
20
-3839.976
0
VERTEX
8
L1D0
10
-594.812
20
-3854.459
0
VERTEX
8
L1D0
10
-507.236
20
-3866.958
0
VERTEX
8
L1D0
10
-419.399
20
-3877.468
0
VERTEX
8
L1D0
10
-331.346
20
-3885.983
0
VERTEX
8
L1D0
10
-243.122
20
-3892.498
0
VERTEX
8
L1D0
10
-154.774
20
-3897.011
0
VERTEX
8
L1D0
10
-66.346
20
-3899.519
0
VERTEX
8
L1D0
10
22.116
20
-3900.021
0
VERTEX
8
L1D0
10
110.567
20
-3898.516
0
VERTEX
8
L1D0
10
198.961
20
-3895.005
0
VERTEX
8
L1D0
10
287.253
20
-3889.491
0
VERTEX
8
L1D0
10
375.396
20
-3881.975
0
VERTEX
8
L1D0
10
463.347
20
-3872.462
0
VERTEX
8
L1D0
10
551.059
20
-3860.957
0
VERTEX
8
L1D0
10
638.488
20
-3847.465
0
VERTEX
8
L1D0
10
725.588
20
-3831.993
0
VERTEX
8
L1D0
10
812.315
20
-3814.551
0
VERTEX
8
L1D0
10
898.624
20
-3795.145
0
VERTEX
8
L1D0
10
984.471
20
-3773.787
0
VERTEX
8
L1D0
10
1069.811
20
-3750.488
0
VERTEX
8
L1D0
10
1154.601
20
-3725.258
0
VERTEX
8
L1D0
10
1238.796
20
-3698.112
0
VERTEX
8
L1D0
10
1322.355
20
-3669.064
0
VERTEX
8
L1D0
10
1405.233
20
-3638.128
0
VERTEX
8
L1D0
10
1487.388
20
-3605.32
0
VERTEX
8
L1D0
10
1568.777
20
-3570.657
0
VERTEX
8
L1D0
10
1649.36
20
-3534.157
0
VERTEX
8
L1D0
10
1729.094
20
-3495.838
0
VERTEX
8
L1D0
10
1807.939
20
-3455.721
0
VERTEX
8
L1D0
10
1885.853
20
-3413.827
0
VERTEX
8
L1D0
10
1962.797
20
-3370.175
0
VERTEX
8
L1D0
10
2038.731
20
-3324.79
0
VERTEX
8
L1D0
10
2113.616
20
-3277.694
0
VERTEX
8
L1D0
10
2187.414
20
-3228.912
0
VERTEX
8
L1D0
10
2260.086
20
-3178.469
0
VERTEX
8
L1D0
10
2331.596
20
-3126.39
0
VERTEX
8
L1D0
10
2361.805
20
-3103.324
0
VERTEX
8
L1D0
10
2074.719
20
-2816.238
0
VERTEX
8
L1D0
10
2051.43
20
-2828.191
0
VERTEX
8
L1D0
10
2020.266
20
-2841.919
0
VERTEX
8
L1D0
10
1988.343
20
-2853.776
0
VERTEX
8
L1D0
10
1955.774
20
-2863.722
0
VERTEX
8
L1D0
10
1922.673
20
-2871.721
0
VERTEX
8
L1D0
10
1889.157
20
-2877.744
0
VERTEX
8
L1D0
10
1855.342
20
-2881.772
0
VERTEX
8
L1D0
10
1821.348
20
-2883.789
0
VERTEX
8
L1D0
10
1787.294
20
-2883.789
0
VERTEX
8
L1D0
10
1753.301
20
-2881.772
0
VERTEX
8
L1D0
10
1719.486
20
-2877.744
0
VERTEX
8
L1D0
10
1685.969
20
-2871.721
0
VERTEX
8
L1D0
10
1652.868
20
-2863.722
0
VERTEX
8
L1D0
10
1620.299
20
-2853.776
0
VERTEX
8
L1D0
10
1588.377
20
-2841.919
0
VERTEX
8
L1D0
10
1557.213
20
-2828.191
0
VERTEX
8
L1D0
10
1526.916
20
-2812.641
0
VERTEX
8
L1D0
10
1497.595
20
-2795.324
0
VERTEX
8
L1D0
10
1469.35
20
-2776.3
0
VERTEX
8
L1D0
10
1442.283
20
-2755.636
0
VERTEX
8
L1D0
10
1416.487
20
-2733.405
0
VERTEX
8
L1D0
10
1392.053
20
-2709.685
0
VERTEX
8
L1D0
10
1369.067
20
-2684.559
0
VERTEX
8
L1D0
10
1347.61
20
-2658.115
0
VERTEX
8
L1D0
10
1327.758
20
-2630.447
0
VERTEX
8
L1D0
10
1309.579
20
-2601.652
0
VERTEX
8
L1D0
10
1293.138
20
-2571.83
0
VERTEX
8
L1D0
10
1278.493
20
-2541.086
0
VERTEX
8
L1D0
10
1265.695
20
-2509.529
0
VERTEX
8
L1D0
10
1254.788
20
-2477.269
0
VERTEX
8
L1D0
10
1245.812
20
-2444.42
0
VERTEX
8
L1D0
10
1238.798
20
-2411.096
0
VERTEX
8
L1D0
10
1233.77
20
-2377.416
0
VERTEX
8
L1D0
10
1230.746
20
-2343.496
0
VERTEX
8
L1D0
10
1229.737
20
-2309.458
0
VERTEX
8
L1D0
10
1230.746
20
-2275.419
0
VERTEX
8
L1D0
10
1233.77
20
-2241.5
0
VERTEX
8
L1D0
10
1238.798
20
-2207.819
0
VERTEX
8
L1D0
10
1245.812
20
-2174.496
0
VERTEX
8
L1D0
10
1254.788
20
-2141.647
0
VERTEX
8
L1D0
10
1265.695
20
-2109.387
0
VERTEX
8
L1D0
10
1278.493
20
-2077.829
0
VERTEX
8
L1D0
10
1293.138
20
-2047.086
0
VERTEX
8
L1D0
10
1297.555
20
-2039.074
0
VERTEX
8
L1D0
10
920.482
20
-1662.001
0
VERTEX
8
L1D0
10
1462.126
20
-1662.001
0
VERTEX
8
L1D0
10
1580.564
20
-1780.439
0
VERTEX
8
L1D0
10
1588.377
20
-1776.997
0
VERTEX
8
L1D0
10
1620.299
20
-1765.139
0
VERTEX
8
L1D0
10
1652.868
20
-1755.193
0
VERTEX
8
L1D0
10
1685.969
20
-1747.195
0
VERTEX
8
L1D0
10
1719.486
20
-1741.171
0
VERTEX
8
L1D0
10
1753.301
20
-1737.143
0
VERTEX
8
L1D0
10
1787.294
20
-1735.126
0
VERTEX
8
L1D0
10
1821.348
20
-1735.126
0
VERTEX
8
L1D0
10
1855.342
20
-1737.143
0
VERTEX
8
L1D0
10
1889.157
20
-1741.171
0
VERTEX
8
L1D0
10
1922.673
20
-1747.195
0
VERTEX
8
L1D0
10
1955.774
20
-1755.193
0
VERTEX
8
L1D0
10
1988.343
20
-1765.139
0
VERTEX
8
L1D0
10
2020.266
20
-1776.997
0
VERTEX
8
L1D0
10
2051.43
20
-1790.724
0
VERTEX
8
L1D0
10
2081.726
20
-1806.274
0
VERTEX
8
L1D0
10
2111.048
20
-1823.592
0
VERTEX
8
L1D0
10
2139.292
20
-1842.616
0
VERTEX
8
L1D0
10
2166.36
20
-1863.279
0
VERTEX
8
L1D0
10
2192.156
20
-1885.51
0
VERTEX
8
L1D0
10
2216.589
20
-1909.231
0
VERTEX
8
L1D0
10
2239.575
20
-1934.356
0
VERTEX
8
L1D0
10
2261.032
20
-1960.8
0
VERTEX
8
L1D0
10
2280.885
20
-1988.468
0
VERTEX
8
L1D0
10
2299.063
20
-2017.264
0
VERTEX
8
L1D0
10
2315.504
20
-2047.086
0
VERTEX
8
L1D0
10
2330.149
20
-2077.829
0
VERTEX
8
L1D0
10
2342.948
20
-2109.387
0
VERTEX
8
L1D0
10
2353.854
20
-2141.647
0
VERTEX
8
L1D0
10
2362.83
20
-2174.496
0
VERTEX
8
L1D0
10
2369.844
20
-2207.819
0
VERTEX
8
L1D0
10
2374.872
20
-2241.5
0
VERTEX
8
L1D0
10
2377.896
20
-2275.419
0
VERTEX
8
L1D0
10
2378.905
20
-2309.458
0
VERTEX
8
L1D0
10
2377.896
20
-2343.496
0
VERTEX
8
L1D0
10
2374.872
20
-2377.416
0
VERTEX
8
L1D0
10
2369.844
20
-2411.096
0
VERTEX
8
L1D0
10
2362.83
20
-2444.42
0
VERTEX
8
L1D0
10
2353.854
20
-2477.269
0
VERTEX
8
L1D0
10
2342.948
20
-2509.529
0
VERTEX
8
L1D0
10
2333.341
20
-2533.216
0
VERTEX
8
L1D0
10
2655.904
20
-2855.779
0
VERTEX
8
L1D0
10
2670.436
20
-2842.433
0
VERTEX
8
L1D0
10
2734.218
20
-2781.133
0
VERTEX
8
L1D0
10
2796.594
20
-2718.403
0
VERTEX
8
L1D0
10
2857.531
20
-2654.274
0
VERTEX
8
L1D0
10
2916.997
20
-2588.78
0
VERTEX
8
L1D0
10
2974.963
20
-2521.953
0
VERTEX
8
L1D0
10
3031.398
20
-2453.829
0
VERTEX
8
L1D0
10
3086.274
20
-2384.443
0
VERTEX
8
L1D0
10
3139.561
20
-2313.829
0
VERTEX
8
L1D0
10
3191.234
20
-2242.026
0
VERTEX
8
L1D0
10
3241.264
20
-2169.068
0
VERTEX
8
L1D0
10
3289.627
20
-2094.995
0
VERTEX
8
L1D0
10
3336.298
20
-2019.844
0
VERTEX
8
L1D0
10
3381.252
20
-1943.654
0
VERTEX
8
L1D0
10
3424.466
20
-1866.464
0
VERTEX
8
L1D0
10
3465.918
20
-1788.313
0
VERTEX
8
L1D0
10
3505.587
20
-1709.242
0
VERTEX
8
L1D0
10
3543.453
20
-1629.292
0
VERTEX
8
L1D0
10
3579.495
20
-1548.504
0
VERTEX
8
L1D0
10
3613.696
20
-1466.919
0
VERTEX
8
L1D0
10
3646.038
20
-1384.579
0
VERTEX
8
L1D0
10
3676.504
20
-1301.527
0
VERTEX
8
L1D0
10
3705.078
20
-1217.805
0
VERTEX
8
L1D0
10
3731.746
20
-1133.457
0
VERTEX
8
L1D0
10
3756.494
20
-1048.526
0
VERTEX
8
L1D0
10
3779.309
20
-963.055
0
VERTEX
8
L1D0
10
3800.18
20
-877.088
0
VERTEX
8
L1D0
10
3819.096
20
-790.671
0
VERTEX
8
L1D0
10
3836.046
20
-703.846
0
VERTEX
8
L1D0
10
3851.024
20
-616.66
0
VERTEX
8
L1D0
10
3864.019
20
-529.156
0
VERTEX
8
L1D0
10
3875.027
20
-441.38
0
VERTEX
8
L1D0
10
3884.041
20
-353.377
0
VERTEX
8
L1D0
10
3891.057
20
-265.192
0
VERTEX
8
L1D0
10
3896.071
20
-176.87
0
VERTEX
8
L1D0
10
3899.08
20
-88.458
0
VERTEX
8
L1D0
10
3900.084
20
0
0
VERTEX
8
L1D0
10
3899.08
20
88.458
0
VERTEX
8
L1D0
10
3896.071
20
176.87
0
VERTEX
8
L1D0
10
3891.057
20
265.192
0
VERTEX
8
L1D0
10
3884.041
20
353.377
0
VERTEX
8
L1D0
10
3875.027
20
441.38
0
VERTEX
8
L1D0
10
3864.019
20
529.156
0
VERTEX
8
L1D0
10
3851.024
20
616.66
0
VERTEX
8
L1D0
10
3836.046
20
703.846
0
VERTEX
8
L1D0
10
3819.096
20
790.671
0
VERTEX
8
L1D0
10
3800.18
20
877.088
0
VERTEX
8
L1D0
10
3779.309
20
963.055
0
VERTEX
8
L1D0
10
3756.494
20
1048.526
0
VERTEX
8
L1D0
10
3731.746
20
1133.457
0
VERTEX
8
L1D0
10
3705.078
20
1217.805
0
VERTEX
8
L1D0
10
3676.504
20
1301.527
0
VERTEX
8
L1D0
10
3646.038
20
1384.579
0
VERTEX
8
L1D0
10
3613.696
20
1466.919
0
VERTEX
8
L1D0
10
3579.495
20
1548.504
0
VERTEX
8
L1D0
10
3543.453
20
1629.292
0
VERTEX
8
L1D0
10
3505.587
20
1709.242
0
VERTEX
8
L1D0
10
3465.918
20
1788.313
0
VERTEX
8
L1D0
10
3424.466
20
1866.464
0
VERTEX
8
L1D0
10
3381.252
20
1943.654
0
VERTEX
8
L1D0
10
3336.298
20
2019.844
0
VERTEX
8
L1D0
10
3289.627
20
2094.995
0
VERTEX
8
L1D0
10
3241.264
20
2169.068
0
VERTEX
8
L1D0
10
3191.234
20
2242.026
0
VERTEX
8
L1D0
10
3139.561
20
2313.829
0
VERTEX
8
L1D0
10
3086.274
20
2384.443
0
VERTEX
8
L1D0
10
3031.398
20
2453.829
0
VERTEX
8
L1D0
10
2974.963
20
2521.953
0
VERTEX
8
L1D0
10
2916.997
20
2588.78
0
VERTEX
8
L1D0
10
2857.531
20
2654.274
0
VERTEX
8
L1D0
10
2796.594
20
2718.403
0
VERTEX
8
L1D0
10
2734.218
20
2781.133
0
VERTEX
8
L1D0
10
2670.436
20
2842.433
0
VERTEX
8
L1D0
10
2655.902
20
2855.78
0
VERTEX
8
L1D0
10
12374.792
20
2855.78
0
VERTEX
8
L1D0
10
12376.573
20
2848.257
0
VERTEX
8
L1D0
10
12411.387
20
2692.508
0
VERTEX
8
L1D0
10
12444.241
20
2536.333
0
VERTEX
8
L1D0
10
12475.13
20
2379.758
0
VERTEX
8
L1D0
10
12504.049
20
2222.807
0
VERTEX
8
L1D0
10
12530.994
20
2065.506
0
VERTEX
8
L1D0
10
12555.96
20
1907.878
0
VERTEX
8
L1D0
10
12578.943
20
1749.948
0
VERTEX
8
L1D0
10
12599.94
20
1591.743
0
VERTEX
8
L1D0
10
12618.947
20
1433.286
0
VERTEX
8
L1D0
10
12635.961
20
1274.602
0
VERTEX
8
L1D0
10
12650.98
20
1115.718
0
VERTEX
8
L1D0
10
12664.001
20
956.657
0
VERTEX
8
L1D0
10
12675.023
20
797.445
0
VERTEX
8
L1D0
10
12684.043
20
638.107
0
VERTEX
8
L1D0
10
12691.06
20
478.668
0
VERTEX
8
L1D0
10
12696.073
20
319.154
0
VERTEX
8
L1D0
10
12699.081
20
159.59
0
VERTEX
8
L1D0
10
12700.084
20
0
0
VERTEX
8
L1D0
10
12699.081
20
-159.59
0
VERTEX
8
L1D0
10
12696.073
20
-319.154
0
VERTEX
8
L1D0
10
12691.06
20
-478.668
0
VERTEX
8
L1D0
10
12684.043
20
-638.107
0
VERTEX
8
L1D0
10
12675.023
20
-797.445
0
VERTEX
8
L1D0
10
12664.001
20
-956.657
0
VERTEX
8
L1D0
10
12650.98
20
-1115.718
0
VERTEX
8
L1D0
10
12635.961
20
-1274.602
0
VERTEX
8
L1D0
10
12618.947
20
-1433.286
0
VERTEX
8
L1D0
10
12599.94
20
-1591.743
0
VERTEX
8
L1D0
10
12578.943
20
-1749.948
0
VERTEX
8
L1D0
10
12555.96
20
-1907.878
0
VERTEX
8
L1D0
10
12530.994
20
-2065.506
0
VERTEX
8
L1D0
10
12504.049
20
-2222.807
0
VERTEX
8
L1D0
10
12475.13
20
-2379.758
0
VERTEX
8
L1D0
10
12444.241
20
-2536.333
0
VERTEX
8
L1D0
10
12411.387
20
-2692.508
0
VERTEX
8
L1D0
10
12376.573
20
-2848.257
0
VERTEX
8
L1D0
10
12339.804
20
-3003.557
0
VERTEX
8
L1D0
10
12301.087
20
-3158.382
0
VERTEX
8
L1D0
10
12260.427
20
-3312.709
0
VERTEX
8
L1D0
10
12217.832
20
-3466.512
0
VERTEX
8
L1D0
10
12173.307
20
-3619.768
0
VERTEX
8
L1D0
10
12126.86
20
-3772.453
0
VERTEX
8
L1D0
10
12078.497
20
-3924.542
0
VERTEX
8
L1D0
10
12028.228
20
-4076.011
0
VERTEX
8
L1D0
10
11976.059
20
-4226.836
0
VERTEX
8
L1D0
10
11921.998
20
-4376.994
0
VERTEX
8
L1D0
10
11866.056
20
-4526.461
0
VERTEX
8
L1D0
10
11808.239
20
-4675.213
0
VERTEX
8
L1D0
10
11748.558
20
-4823.226
0
VERTEX
8
L1D0
10
11687.021
20
-4970.478
0
VERTEX
8
L1D0
10
11623.639
20
-5116.945
0
VERTEX
8
L1D0
10
11558.422
20
-5262.605
0
VERTEX
8
L1D0
10
11491.379
20
-5407.433
0
VERTEX
8
L1D0
10
11422.522
20
-5551.407
0
VERTEX
8
L1D0
10
11351.861
20
-5694.504
0
VERTEX
8
L1D0
10
11279.407
20
-5836.703
0
VERTEX
8
L1D0
10
11205.172
20
-5977.979
0
VERTEX
8
L1D0
10
11129.168
20
-6118.312
0
VERTEX
8
L1D0
10
11051.406
20
-6257.678
0
VERTEX
8
L1D0
10
10971.9
20
-6396.057
0
VERTEX
8
L1D0
10
10890.66
20
-6533.425
0
VERTEX
8
L1D0
10
10807.701
20
-6669.762
0
VERTEX
8
L1D0
10
10723.035
20
-6805.045
0
VERTEX
8
L1D0
10
10636.676
20
-6939.254
0
VERTEX
8
L1D0
10
10548.637
20
-7072.367
0
VERTEX
8
L1D0
10
10458.933
20
-7204.363
0
VERTEX
8
L1D0
10
10367.577
20
-7335.222
0
VERTEX
8
L1D0
10
10274.583
20
-7464.922
0
VERTEX
8
L1D0
10
10179.968
20
-7593.443
0
VERTEX
8
L1D0
10
10083.744
20
-7720.766
0
VERTEX
8
L1D0
10
9985.929
20
-7846.869
0
VERTEX
8
L1D0
10
9886.536
20
-7971.733
0
VERTEX
8
L1D0
10
9785.583
20
-8095.338
0
VERTEX
8
L1D0
10
9683.084
20
-8217.665
0
VERTEX
8
L1D0
10
9579.056
20
-8338.694
0
VERTEX
8
L1D0
10
9473.515
20
-8458.406
0
VERTEX
8
L1D0
10
9366.478
20
-8576.783
0
VERTEX
8
L1D0
10
9257.962
20
-8693.805
0
VERTEX
8
L1D0
10
9147.985
20
-8809.455
0
VERTEX
8
L1D0
10
9036.563
20
-8923.713
0
VERTEX
8
L1D0
10
8923.713
20
-9036.563
0
VERTEX
8
L1D0
10
8809.455
20
-9147.985
0
VERTEX
8
L1D0
10
8693.805
20
-9257.962
0
VERTEX
8
L1D0
10
8576.783
20
-9366.478
0
VERTEX
8
L1D0
10
8458.406
20
-9473.515
0
VERTEX
8
L1D0
10
8338.694
20
-9579.056
0
VERTEX
8
L1D0
10
8217.665
20
-9683.084
0
VERTEX
8
L1D0
10
8095.338
20
-9785.583
0
VERTEX
8
L1D0
10
7971.733
20
-9886.536
0
VERTEX
8
L1D0
10
7846.869
20
-9985.929
0
VERTEX
8
L1D0
10
7720.766
20
-10083.744
0
VERTEX
8
L1D0
10
7593.443
20
-10179.968
0
VERTEX
8
L1D0
10
7464.922
20
-10274.583
0
VERTEX
8
L1D0
10
7335.222
20
-10367.577
0
VERTEX
8
L1D0
10
7204.363
20
-10458.933
0
VERTEX
8
L1D0
10
7072.367
20
-10548.637
0
VERTEX
8
L1D0
10
6939.254
20
-10636.676
0
VERTEX
8
L1D0
10
6805.045
20
-10723.035
0
VERTEX
8
L1D0
10
6669.762
20
-10807.701
0
VERTEX
8
L1D0
10
6533.425
20
-10890.66
0
VERTEX
8
L1D0
10
6396.057
20
-10971.9
0
VERTEX
8
L1D0
10
6257.678
20
-11051.406
0
VERTEX
8
L1D0
10
6118.312
20
-11129.168
0
VERTEX
8
L1D0
10
5977.979
20
-11205.172
0
VERTEX
8
L1D0
10
5836.703
20
-11279.407
0
VERTEX
8
L1D0
10
5694.504
20
-11351.861
0
VERTEX
8
L1D0
10
5551.407
20
-11422.522
0
VERTEX
8
L1D0
10
5407.433
20
-11491.379
0
VERTEX
8
L1D0
10
5262.605
20
-11558.422
0
VERTEX
8
L1D0
10
5116.945
20
-11623.639
0
VERTEX
8
L1D0
10
4970.478
20
-11687.021
0
VERTEX
8
L1D0
10
4823.226
20
-11748.558
0
VERTEX
8
L1D0
10
4675.213
20
-11808.239
0
VERTEX
8
L1D0
10
4526.461
20
-11866.056
0
VERTEX
8
L1D0
10
4376.994
20
-11921.998
0
VERTEX
8
L1D0
10
4226.836
20
-11976.059
0
VERTEX
8
L1D0
10
4076.011
20
-12028.228
0
VERTEX
8
L1D0
10
3924.542
20
-12078.497
0
VERTEX
8
L1D0
10
3772.453
20
-12126.86
0
VERTEX
8
L1D0
10
3619.768
20
-12173.307
0
VERTEX
8
L1D0
10
3466.512
20
-12217.832
0
VERTEX
8
L1D0
10
3312.709
20
-12260.427
0
VERTEX
8
L1D0
10
3158.382
20
-12301.087
0
VERTEX
8
L1D0
10
3003.557
20
-12339.804
0
VERTEX
8
L1D0
10
2848.257
20
-12376.573
0
VERTEX
8
L1D0
10
2692.508
20
-12411.387
0
VERTEX
8
L1D0
10
2536.333
20
-12444.241
0
VERTEX
8
L1D0
10
2379.758
20
-12475.13
0
VERTEX
8
L1D0
10
2222.807
20
-12504.049
0
VERTEX
8
L1D0
10
2065.506
20
-12530.994
0
VERTEX
8
L1D0
10
1907.878
20
-12555.96
0
VERTEX
8
L1D0
10
1749.948
20
-12578.943
0
VERTEX
8
L1D0
10
1591.743
20
-12599.94
0
VERTEX
8
L1D0
10
1433.286
20
-12618.947
0
VERTEX
8
L1D0
10
1274.602
20
-12635.961
0
VERTEX
8
L1D0
10
1115.718
20
-12650.98
0
VERTEX
8
L1D0
10
956.657
20
-12664.001
0
VERTEX
8
L1D0
10
797.445
20
-12675.023
0
VERTEX
8
L1D0
10
638.107
20
-12684.043
0
VERTEX
8
L1D0
10
478.668
20
-12691.06
0
VERTEX
8
L1D0
10
319.154
20
-12696.073
0
VERTEX
8
L1D0
10
159.59
20
-12699.081
0
SEQEND
0
ENDSEC
0
EOF
