0
SECTION
2
HEADER
9
$ACADVER
1
AC1006
0
ENDSEC
0
SECTION
2
TABLES
0
TABLE
2
LAYER
70
1
0
LAYER
70
0
62
1
6
CONTINUOUS
2
L1D0
0
ENDTAB
0
ENDSEC
0
SECTION
2
BLOCKS
0
ENDSEC
0
SECTION
2
ENTITIES
0
POLYLINE
8
L1D0
70
1
40
0
41
0
66
1
0
VERTEX
8
L1D0
10
0
20
-12700.084
0
VERTEX
8
L1D0
10
-159.59
20
-12699.081
0
VERTEX
8
L1D0
10
-319.154
20
-12696.073
0
VERTEX
8
L1D0
10
-478.668
20
-12691.06
0
VERTEX
8
L1D0
10
-638.107
20
-12684.043
0
VERTEX
8
L1D0
10
-797.445
20
-12675.023
0
VERTEX
8
L1D0
10
-956.657
20
-12664.001
0
VERTEX
8
L1D0
10
-1115.718
20
-12650.98
0
VERTEX
8
L1D0
10
-1274.602
20
-12635.961
0
VERTEX
8
L1D0
10
-1433.286
20
-12618.947
0
VERTEX
8
L1D0
10
-1591.743
20
-12599.94
0
VERTEX
8
L1D0
10
-1749.948
20
-12578.943
0
VERTEX
8
L1D0
10
-1907.878
20
-12555.96
0
VERTEX
8
L1D0
10
-2065.506
20
-12530.994
0
VERTEX
8
L1D0
10
-2222.807
20
-12504.049
0
VERTEX
8
L1D0
10
-2379.758
20
-12475.13
0
VERTEX
8
L1D0
10
-2536.333
20
-12444.241
0
VERTEX
8
L1D0
10
-2692.508
20
-12411.387
0
VERTEX
8
L1D0
10
-2848.257
20
-12376.573
0
VERTEX
8
L1D0
10
-3003.557
20
-12339.804
0
VERTEX
8
L1D0
10
-3158.382
20
-12301.087
0
VERTEX
8
L1D0
10
-3312.709
20
-12260.427
0
VERTEX
8
L1D0
10
-3466.512
20
-12217.832
0
VERTEX
8
L1D0
10
-3619.768
20
-12173.307
0
VERTEX
8
L1D0
10
-3772.453
20
-12126.86
0
VERTEX
8
L1D0
10
-3924.542
20
-12078.497
0
VERTEX
8
L1D0
10
-4076.011
20
-12028.228
0
VERTEX
8
L1D0
10
-4226.836
20
-11976.059
0
VERTEX
8
L1D0
10
-4376.994
20
-11921.998
0
VERTEX
8
L1D0
10
-4526.461
20
-11866.056
0
VERTEX
8
L1D0
10
-4675.213
20
-11808.239
0
VERTEX
8
L1D0
10
-4823.226
20
-11748.558
0
VERTEX
8
L1D0
10
-4970.478
20
-11687.021
0
VERTEX
8
L1D0
10
-5116.945
20
-11623.639
0
VERTEX
8
L1D0
10
-5262.605
20
-11558.422
0
VERTEX
8
L1D0
10
-5407.433
20
-11491.379
0
VERTEX
8
L1D0
10
-5551.407
20
-11422.522
0
VERTEX
8
L1D0
10
-5694.504
20
-11351.861
0
VERTEX
8
L1D0
10
-5836.703
20
-11279.407
0
VERTEX
8
L1D0
10
-5977.979
20
-11205.172
0
VERTEX
8
L1D0
10
-6118.312
20
-11129.168
0
VERTEX
8
L1D0
10
-6257.678
20
-11051.406
0
VERTEX
8
L1D0
10
-6396.057
20
-10971.9
0
VERTEX
8
L1D0
10
-6533.425
20
-10890.66
0
VERTEX
8
L1D0
10
-6669.762
20
-10807.701
0
VERTEX
8
L1D0
10
-6805.045
20
-10723.035
0
VERTEX
8
L1D0
10
-6939.254
20
-10636.676
0
VERTEX
8
L1D0
10
-7072.367
20
-10548.637
0
VERTEX
8
L1D0
10
-7204.363
20
-10458.933
0
VERTEX
8
L1D0
10
-7335.222
20
-10367.577
0
VERTEX
8
L1D0
10
-7464.922
20
-10274.583
0
VERTEX
8
L1D0
10
-7593.443
20
-10179.968
0
VERTEX
8
L1D0
10
-7720.766
20
-10083.744
0
VERTEX
8
L1D0
10
-7846.869
20
-9985.929
0
VERTEX
8
L1D0
10
-7971.733
20
-9886.536
0
VERTEX
8
L1D0
10
-8095.338
20
-9785.583
0
VERTEX
8
L1D0
10
-8217.665
20
-9683.084
0
VERTEX
8
L1D0
10
-8338.694
20
-9579.056
0
VERTEX
8
L1D0
10
-8458.406
20
-9473.515
0
VERTEX
8
L1D0
10
-8576.783
20
-9366.478
0
VERTEX
8
L1D0
10
-8693.805
20
-9257.962
0
VERTEX
8
L1D0
10
-8809.455
20
-9147.985
0
VERTEX
8
L1D0
10
-8923.713
20
-9036.563
0
VERTEX
8
L1D0
10
-9036.563
20
-8923.713
0
VERTEX
8
L1D0
10
-9147.985
20
-8809.455
0
VERTEX
8
L1D0
10
-9257.962
20
-8693.805
0
VERTEX
8
L1D0
10
-9366.478
20
-8576.783
0
VERTEX
8
L1D0
10
-9473.515
20
-8458.406
0
VERTEX
8
L1D0
10
-9579.056
20
-8338.694
0
VERTEX
8
L1D0
10
-9683.084
20
-8217.665
0
VERTEX
8
L1D0
10
-9785.583
20
-8095.338
0
VERTEX
8
L1D0
10
-9886.536
20
-7971.733
0
VERTEX
8
L1D0
10
-9985.929
20
-7846.869
0
VERTEX
8
L1D0
10
-10083.744
20
-7720.766
0
VERTEX
8
L1D0
10
-10179.968
20
-7593.443
0
VERTEX
8
L1D0
10
-10274.583
20
-7464.922
0
VERTEX
8
L1D0
10
-10367.577
20
-7335.222
0
VERTEX
8
L1D0
10
-10458.933
20
-7204.363
0
VERTEX
8
L1D0
10
-10548.637
20
-7072.367
0
VERTEX
8
L1D0
10
-10636.676
20
-6939.254
0
VERTEX
8
L1D0
10
-10723.035
20
-6805.045
0
VERTEX
8
L1D0
10
-10807.701
20
-6669.762
0
VERTEX
8
L1D0
10
-10890.66
20
-6533.425
0
VERTEX
8
L1D0
10
-10971.9
20
-6396.057
0
VERTEX
8
L1D0
10
-11051.406
20
-6257.678
0
VERTEX
8
L1D0
10
-11129.168
20
-6118.312
0
VERTEX
8
L1D0
10
-11205.172
20
-5977.979
0
VERTEX
8
L1D0
10
-11279.407
20
-5836.703
0
VERTEX
8
L1D0
10
-11351.861
20
-5694.504
0
VERTEX
8
L1D0
10
-11422.522
20
-5551.407
0
VERTEX
8
L1D0
10
-11491.379
20
-5407.433
0
VERTEX
8
L1D0
10
-11558.422
20
-5262.605
0
VERTEX
8
L1D0
10
-11623.639
20
-5116.945
0
VERTEX
8
L1D0
10
-11687.021
20
-4970.478
0
VERTEX
8
L1D0
10
-11748.558
20
-4823.226
0
VERTEX
8
L1D0
10
-11808.239
20
-4675.213
0
VERTEX
8
L1D0
10
-11866.056
20
-4526.461
0
VERTEX
8
L1D0
10
-11921.998
20
-4376.994
0
VERTEX
8
L1D0
10
-11976.059
20
-4226.836
0
VERTEX
8
L1D0
10
-12028.228
20
-4076.011
0
VERTEX
8
L1D0
10
-12078.497
20
-3924.542
0
VERTEX
8
L1D0
10
-12126.86
20
-3772.453
0
VERTEX
8
L1D0
10
-12173.307
20
-3619.768
0
VERTEX
8
L1D0
10
-12217.832
20
-3466.512
0
VERTEX
8
L1D0
10
-12260.427
20
-3312.709
0
VERTEX
8
L1D0
10
-12301.087
20
-3158.382
0
VERTEX
8
L1D0
10
-12339.804
20
-3003.557
0
VERTEX
8
L1D0
10
-12376.573
20
-2848.257
0
VERTEX
8
L1D0
10
-12411.387
20
-2692.508
0
VERTEX
8
L1D0
10
-12444.241
20
-2536.333
0
VERTEX
8
L1D0
10
-12475.13
20
-2379.758
0
VERTEX
8
L1D0
10
-12504.049
20
-2222.807
0
VERTEX
8
L1D0
10
-12530.994
20
-2065.506
0
VERTEX
8
L1D0
10
-12555.96
20
-1907.878
0
VERTEX
8
L1D0
10
-12578.943
20
-1749.948
0
VERTEX
8
L1D0
10
-12599.94
20
-1591.743
0
VERTEX
8
L1D0
10
-12618.947
20
-1433.286
0
VERTEX
8
L1D0
10
-12635.961
20
-1274.602
0
VERTEX
8
L1D0
10
-12650.98
20
-1115.718
0
VERTEX
8
L1D0
10
-12664.001
20
-956.657
0
VERTEX
8
L1D0
10
-12675.023
20
-797.445
0
VERTEX
8
L1D0
10
-12684.043
20
-638.107
0
VERTEX
8
L1D0
10
-12691.06
20
-478.668
0
VERTEX
8
L1D0
10
-12696.073
20
-319.154
0
VERTEX
8
L1D0
10
-12699.081
20
-159.59
0
VERTEX
8
L1D0
10
-12700.084
20
0
0
VERTEX
8
L1D0
10
-12699.081
20
159.59
0
VERTEX
8
L1D0
10
-12696.073
20
319.154
0
VERTEX
8
L1D0
10
-12691.06
20
478.668
0
VERTEX
8
L1D0
10
-12684.043
20
638.107
0
VERTEX
8
L1D0
10
-12675.023
20
797.445
0
VERTEX
8
L1D0
10
-12664.001
20
956.657
0
VERTEX
8
L1D0
10
-12650.98
20
1115.718
0
VERTEX
8
L1D0
10
-12635.961
20
1274.602
0
VERTEX
8
L1D0
10
-12618.947
20
1433.286
0
VERTEX
8
L1D0
10
-12599.94
20
1591.743
0
VERTEX
8
L1D0
10
-12578.943
20
1749.948
0
VERTEX
8
L1D0
10
-12555.96
20
1907.878
0
VERTEX
8
L1D0
10
-12530.994
20
2065.506
0
VERTEX
8
L1D0
10
-12504.049
20
2222.807
0
VERTEX
8
L1D0
10
-12475.13
20
2379.758
0
VERTEX
8
L1D0
10
-12444.241
20
2536.333
0
VERTEX
8
L1D0
10
-12411.387
20
2692.508
0
VERTEX
8
L1D0
10
-12376.573
20
2848.257
0
VERTEX
8
L1D0
10
-12339.804
20
3003.557
0
VERTEX
8
L1D0
10
-12301.087
20
3158.382
0
VERTEX
8
L1D0
10
-12260.427
20
3312.709
0
VERTEX
8
L1D0
10
-12217.832
20
3466.512
0
VERTEX
8
L1D0
10
-12173.307
20
3619.768
0
VERTEX
8
L1D0
10
-12126.86
20
3772.453
0
VERTEX
8
L1D0
10
-12078.497
20
3924.542
0
VERTEX
8
L1D0
10
-12028.228
20
4076.011
0
VERTEX
8
L1D0
10
-11976.059
20
4226.836
0
VERTEX
8
L1D0
10
-11921.998
20
4376.994
0
VERTEX
8
L1D0
10
-11866.056
20
4526.461
0
VERTEX
8
L1D0
10
-11808.239
20
4675.213
0
VERTEX
8
L1D0
10
-11748.558
20
4823.226
0
VERTEX
8
L1D0
10
-11687.021
20
4970.478
0
VERTEX
8
L1D0
10
-11623.639
20
5116.945
0
VERTEX
8
L1D0
10
-11558.422
20
5262.605
0
VERTEX
8
L1D0
10
-11491.379
20
5407.433
0
VERTEX
8
L1D0
10
-11422.522
20
5551.407
0
VERTEX
8
L1D0
10
-11351.861
20
5694.504
0
VERTEX
8
L1D0
10
-11279.407
20
5836.703
0
VERTEX
8
L1D0
10
-11205.172
20
5977.979
0
VERTEX
8
L1D0
10
-11129.168
20
6118.312
0
VERTEX
8
L1D0
10
-11051.406
20
6257.678
0
VERTEX
8
L1D0
10
-10971.9
20
6396.057
0
VERTEX
8
L1D0
10
-10890.66
20
6533.425
0
VERTEX
8
L1D0
10
-10807.701
20
6669.762
0
VERTEX
8
L1D0
10
-10723.035
20
6805.045
0
VERTEX
8
L1D0
10
-10636.676
20
6939.254
0
VERTEX
8
L1D0
10
-10548.637
20
7072.367
0
VERTEX
8
L1D0
10
-10458.933
20
7204.363
0
VERTEX
8
L1D0
10
-10367.577
20
7335.222
0
VERTEX
8
L1D0
10
-10274.583
20
7464.922
0
VERTEX
8
L1D0
10
-10179.968
20
7593.443
0
VERTEX
8
L1D0
10
-10083.744
20
7720.766
0
VERTEX
8
L1D0
10
-9985.929
20
7846.869
0
VERTEX
8
L1D0
10
-9886.536
20
7971.733
0
VERTEX
8
L1D0
10
-9785.583
20
8095.338
0
VERTEX
8
L1D0
10
-9683.084
20
8217.665
0
VERTEX
8
L1D0
10
-9579.056
20
8338.694
0
VERTEX
8
L1D0
10
-9473.515
20
8458.406
0
VERTEX
8
L1D0
10
-9366.478
20
8576.783
0
VERTEX
8
L1D0
10
-9257.962
20
8693.805
0
VERTEX
8
L1D0
10
-9147.985
20
8809.455
0
VERTEX
8
L1D0
10
-9036.563
20
8923.713
0
VERTEX
8
L1D0
10
-8923.713
20
9036.563
0
VERTEX
8
L1D0
10
-8809.455
20
9147.985
0
VERTEX
8
L1D0
10
-8693.805
20
9257.962
0
VERTEX
8
L1D0
10
-8576.783
20
9366.478
0
VERTEX
8
L1D0
10
-8458.406
20
9473.515
0
VERTEX
8
L1D0
10
-8338.694
20
9579.056
0
VERTEX
8
L1D0
10
-8217.665
20
9683.084
0
VERTEX
8
L1D0
10
-8095.338
20
9785.583
0
VERTEX
8
L1D0
10
-7971.733
20
9886.536
0
VERTEX
8
L1D0
10
-7846.869
20
9985.929
0
VERTEX
8
L1D0
10
-7720.766
20
10083.744
0
VERTEX
8
L1D0
10
-7593.443
20
10179.968
0
VERTEX
8
L1D0
10
-7464.922
20
10274.583
0
VERTEX
8
L1D0
10
-7335.222
20
10367.577
0
VERTEX
8
L1D0
10
-7204.363
20
10458.933
0
VERTEX
8
L1D0
10
-7072.367
20
10548.637
0
VERTEX
8
L1D0
10
-6939.254
20
10636.676
0
VERTEX
8
L1D0
10
-6805.045
20
10723.035
0
VERTEX
8
L1D0
10
-6669.762
20
10807.701
0
VERTEX
8
L1D0
10
-6533.425
20
10890.66
0
VERTEX
8
L1D0
10
-6396.057
20
10971.9
0
VERTEX
8
L1D0
10
-6257.678
20
11051.406
0
VERTEX
8
L1D0
10
-6118.312
20
11129.168
0
VERTEX
8
L1D0
10
-5977.979
20
11205.172
0
VERTEX
8
L1D0
10
-5836.703
20
11279.407
0
VERTEX
8
L1D0
10
-5694.504
20
11351.861
0
VERTEX
8
L1D0
10
-5551.407
20
11422.522
0
VERTEX
8
L1D0
10
-5407.433
20
11491.379
0
VERTEX
8
L1D0
10
-5262.605
20
11558.422
0
VERTEX
8
L1D0
10
-5116.945
20
11623.639
0
VERTEX
8
L1D0
10
-4970.478
20
11687.021
0
VERTEX
8
L1D0
10
-4823.226
20
11748.558
0
VERTEX
8
L1D0
10
-4675.213
20
11808.239
0
VERTEX
8
L1D0
10
-4526.461
20
11866.056
0
VERTEX
8
L1D0
10
-4376.994
20
11921.998
0
VERTEX
8
L1D0
10
-4226.836
20
11976.059
0
VERTEX
8
L1D0
10
-4076.011
20
12028.228
0
VERTEX
8
L1D0
10
-3924.542
20
12078.497
0
VERTEX
8
L1D0
10
-3772.453
20
12126.86
0
VERTEX
8
L1D0
10
-3619.768
20
12173.307
0
VERTEX
8
L1D0
10
-3466.512
20
12217.832
0
VERTEX
8
L1D0
10
-3312.709
20
12260.427
0
VERTEX
8
L1D0
10
-3158.382
20
12301.087
0
VERTEX
8
L1D0
10
-3003.557
20
12339.804
0
VERTEX
8
L1D0
10
-2848.257
20
12376.573
0
VERTEX
8
L1D0
10
-2692.508
20
12411.387
0
VERTEX
8
L1D0
10
-2536.333
20
12444.241
0
VERTEX
8
L1D0
10
-2379.758
20
12475.13
0
VERTEX
8
L1D0
10
-2222.807
20
12504.049
0
VERTEX
8
L1D0
10
-2065.506
20
12530.994
0
VERTEX
8
L1D0
10
-1907.878
20
12555.96
0
VERTEX
8
L1D0
10
-1749.948
20
12578.943
0
VERTEX
8
L1D0
10
-1591.743
20
12599.94
0
VERTEX
8
L1D0
10
-1433.286
20
12618.947
0
VERTEX
8
L1D0
10
-1274.602
20
12635.961
0
VERTEX
8
L1D0
10
-1115.718
20
12650.98
0
VERTEX
8
L1D0
10
-956.657
20
12664.001
0
VERTEX
8
L1D0
10
-797.445
20
12675.023
0
VERTEX
8
L1D0
10
-638.107
20
12684.043
0
VERTEX
8
L1D0
10
-478.668
20
12691.06
0
VERTEX
8
L1D0
10
-319.154
20
12696.073
0
VERTEX
8
L1D0
10
-159.59
20
12699.081
0
VERTEX
8
L1D0
10
0
20
12700.084
0
VERTEX
8
L1D0
10
159.59
20
12699.081
0
VERTEX
8
L1D0
10
319.154
20
12696.073
0
VERTEX
8
L1D0
10
478.668
20
12691.06
0
VERTEX
8
L1D0
10
638.107
20
12684.043
0
VERTEX
8
L1D0
10
797.445
20
12675.023
0
VERTEX
8
L1D0
10
956.657
20
12664.001
0
VERTEX
8
L1D0
10
1115.718
20
12650.98
0
VERTEX
8
L1D0
10
1274.602
20
12635.961
0
VERTEX
8
L1D0
10
1433.286
20
12618.947
0
VERTEX
8
L1D0
10
1591.743
20
12599.94
0
VERTEX
8
L1D0
10
1749.948
20
12578.943
0
VERTEX
8
L1D0
10
1907.878
20
12555.96
0
VERTEX
8
L1D0
10
2065.506
20
12530.994
0
VERTEX
8
L1D0
10
2222.807
20
12504.049
0
VERTEX
8
L1D0
10
2379.758
20
12475.13
0
VERTEX
8
L1D0
10
2536.333
20
12444.241
0
VERTEX
8
L1D0
10
2692.508
20
12411.387
0
VERTEX
8
L1D0
10
2848.257
20
12376.573
0
VERTEX
8
L1D0
10
3003.557
20
12339.804
0
VERTEX
8
L1D0
10
3158.382
20
12301.087
0
VERTEX
8
L1D0
10
3312.709
20
12260.427
0
VERTEX
8
L1D0
10
3466.512
20
12217.832
0
VERTEX
8
L1D0
10
3619.768
20
12173.307
0
VERTEX
8
L1D0
10
3772.453
20
12126.86
0
VERTEX
8
L1D0
10
3924.542
20
12078.497
0
VERTEX
8
L1D0
10
4076.011
20
12028.228
0
VERTEX
8
L1D0
10
4226.836
20
11976.059
0
VERTEX
8
L1D0
10
4376.994
20
11921.998
0
VERTEX
8
L1D0
10
4526.461
20
11866.056
0
VERTEX
8
L1D0
10
4675.213
20
11808.239
0
VERTEX
8
L1D0
10
4823.226
20
11748.558
0
VERTEX
8
L1D0
10
4970.478
20
11687.021
0
VERTEX
8
L1D0
10
5116.945
20
11623.639
0
VERTEX
8
L1D0
10
5262.605
20
11558.422
0
VERTEX
8
L1D0
10
5407.433
20
11491.379
0
VERTEX
8
L1D0
10
5551.407
20
11422.522
0
VERTEX
8
L1D0
10
5694.504
20
11351.861
0
VERTEX
8
L1D0
10
5836.703
20
11279.407
0
VERTEX
8
L1D0
10
5977.979
20
11205.172
0
VERTEX
8
L1D0
10
6118.312
20
11129.168
0
VERTEX
8
L1D0
10
6257.678
20
11051.406
0
VERTEX
8
L1D0
10
6396.057
20
10971.9
0
VERTEX
8
L1D0
10
6533.425
20
10890.66
0
VERTEX
8
L1D0
10
6669.762
20
10807.701
0
VERTEX
8
L1D0
10
6805.045
20
10723.035
0
VERTEX
8
L1D0
10
6939.254
20
10636.676
0
VERTEX
8
L1D0
10
7072.367
20
10548.637
0
VERTEX
8
L1D0
10
7204.363
20
10458.933
0
VERTEX
8
L1D0
10
7335.222
20
10367.577
0
VERTEX
8
L1D0
10
7464.922
20
10274.583
0
VERTEX
8
L1D0
10
7593.443
20
10179.968
0
VERTEX
8
L1D0
10
7720.766
20
10083.744
0
VERTEX
8
L1D0
10
7846.869
20
9985.929
0
VERTEX
8
L1D0
10
7971.733
20
9886.536
0
VERTEX
8
L1D0
10
8095.338
20
9785.583
0
VERTEX
8
L1D0
10
8217.665
20
9683.084
0
VERTEX
8
L1D0
10
8338.694
20
9579.056
0
VERTEX
8
L1D0
10
8458.406
20
9473.515
0
VERTEX
8
L1D0
10
8576.783
20
9366.478
0
VERTEX
8
L1D0
10
8693.805
20
9257.962
0
VERTEX
8
L1D0
10
8809.455
20
9147.985
0
VERTEX
8
L1D0
10
8923.713
20
9036.563
0
VERTEX
8
L1D0
10
9036.563
20
8923.713
0
VERTEX
8
L1D0
10
9147.985
20
8809.455
0
VERTEX
8
L1D0
10
9257.962
20
8693.805
0
VERTEX
8
L1D0
10
9366.478
20
8576.783
0
VERTEX
8
L1D0
10
9473.515
20
8458.406
0
VERTEX
8
L1D0
10
9579.056
20
8338.694
0
VERTEX
8
L1D0
10
9683.084
20
8217.665
0
VERTEX
8
L1D0
10
9785.583
20
8095.338
0
VERTEX
8
L1D0
10
9886.536
20
7971.733
0
VERTEX
8
L1D0
10
9985.929
20
7846.869
0
VERTEX
8
L1D0
10
10083.744
20
7720.766
0
VERTEX
8
L1D0
10
10179.968
20
7593.443
0
VERTEX
8
L1D0
10
10274.583
20
7464.922
0
VERTEX
8
L1D0
10
10367.577
20
7335.222
0
VERTEX
8
L1D0
10
10458.933
20
7204.363
0
VERTEX
8
L1D0
10
10548.637
20
7072.367
0
VERTEX
8
L1D0
10
10636.676
20
6939.254
0
VERTEX
8
L1D0
10
10723.035
20
6805.045
0
VERTEX
8
L1D0
10
10807.701
20
6669.762
0
VERTEX
8
L1D0
10
10890.66
20
6533.425
0
VERTEX
8
L1D0
10
10971.9
20
6396.057
0
VERTEX
8
L1D0
10
11051.406
20
6257.678
0
VERTEX
8
L1D0
10
11129.168
20
6118.312
0
VERTEX
8
L1D0
10
11205.172
20
5977.979
0
VERTEX
8
L1D0
10
11279.407
20
5836.703
0
VERTEX
8
L1D0
10
11351.861
20
5694.504
0
VERTEX
8
L1D0
10
11422.522
20
5551.407
0
VERTEX
8
L1D0
10
11491.379
20
5407.433
0
VERTEX
8
L1D0
10
11558.422
20
5262.605
0
VERTEX
8
L1D0
10
11623.639
20
5116.945
0
VERTEX
8
L1D0
10
11687.021
20
4970.478
0
VERTEX
8
L1D0
10
11748.558
20
4823.226
0
VERTEX
8
L1D0
10
11808.239
20
4675.213
0
VERTEX
8
L1D0
10
11866.056
20
4526.461
0
VERTEX
8
L1D0
10
11921.998
20
4376.994
0
VERTEX
8
L1D0
10
11976.059
20
4226.836
0
VERTEX
8
L1D0
10
12028.228
20
4076.011
0
VERTEX
8
L1D0
10
12078.497
20
3924.542
0
VERTEX
8
L1D0
10
12126.86
20
3772.453
0
VERTEX
8
L1D0
10
12173.307
20
3619.768
0
VERTEX
8
L1D0
10
12205.191
20
3510.021
0
VERTEX
8
L1D0
10
-20.964
20
3510.021
0
VERTEX
8
L1D0
10
-104.806
20
3508.518
0
VERTEX
8
L1D0
10
-188.588
20
3505.014
0
VERTEX
8
L1D0
10
-272.263
20
3499.508
0
VERTEX
8
L1D0
10
-355.782
20
3492.006
0
VERTEX
8
L1D0
10
-439.098
20
3482.51
0
VERTEX
8
L1D0
10
-522.164
20
3471.027
0
VERTEX
8
L1D0
10
-604.931
20
3457.563
0
VERTEX
8
L1D0
10
-687.353
20
3442.126
0
VERTEX
8
L1D0
10
-769.383
20
3424.724
0
VERTEX
8
L1D0
10
-850.974
20
3405.368
0
VERTEX
8
L1D0
10
-932.079
20
3384.068
0
VERTEX
8
L1D0
10
-1012.652
20
3360.836
0
VERTEX
8
L1D0
10
-1092.648
20
3335.687
0
VERTEX
8
L1D0
10
-1172.019
20
3308.634
0
VERTEX
8
L1D0
10
-1250.722
20
3279.692
0
VERTEX
8
L1D0
10
-1328.711
20
3248.879
0
VERTEX
8
L1D0
10
-1405.942
20
3216.211
0
VERTEX
8
L1D0
10
-1482.37
20
3181.708
0
VERTEX
8
L1D0
10
-1557.952
20
3145.389
0
VERTEX
8
L1D0
10
-1632.645
20
3107.275
0
VERTEX
8
L1D0
10
-1706.406
20
3067.387
0
VERTEX
8
L1D0
10
-1779.193
20
3025.749
0
VERTEX
8
L1D0
10
-1850.965
20
2982.384
0
VERTEX
8
L1D0
10
-1921.681
20
2937.317
0
VERTEX
8
L1D0
10
-1991.299
20
2890.573
0
VERTEX
8
L1D0
10
-2059.782
20
2842.18
0
VERTEX
8
L1D0
10
-2083.23
20
2824.756
0
VERTEX
8
L1D0
10
-1838.367
20
2579.892
0
VERTEX
8
L1D0
10
-2380.01
20
2579.892
0
VERTEX
8
L1D0
10
-2383.802
20
2576.466
0
VERTEX
8
L1D0
10
-2444.668
20
2518.786
0
VERTEX
8
L1D0
10
-2504.14
20
2459.668
0
VERTEX
8
L1D0
10
-2562.182
20
2399.147
0
VERTEX
8
L1D0
10
-2618.762
20
2337.257
0
VERTEX
8
L1D0
10
-2673.848
20
2274.032
0
VERTEX
8
L1D0
10
-2727.407
20
2209.51
0
VERTEX
8
L1D0
10
-2779.41
20
2143.727
0
VERTEX
8
L1D0
10
-2829.827
20
2076.72
0
VERTEX
8
L1D0
10
-2878.628
20
2008.528
0
VERTEX
8
L1D0
10
-2925.787
20
1939.19
0
VERTEX
8
L1D0
10
-2971.276
20
1868.745
0
VERTEX
8
L1D0
10
-3015.069
20
1797.233
0
VERTEX
8
L1D0
10
-3057.141
20
1724.696
0
VERTEX
8
L1D0
10
-3097.468
20
1651.174
0
VERTEX
8
L1D0
10
-3136.028
20
1576.71
0
VERTEX
8
L1D0
10
-3172.798
20
1501.346
0
VERTEX
8
L1D0
10
-3207.757
20
1425.126
0
VERTEX
8
L1D0
10
-3240.885
20
1348.091
0
VERTEX
8
L1D0
10
-3272.164
20
1270.288
0
VERTEX
8
L1D0
10
-3301.575
20
1191.759
0
VERTEX
8
L1D0
10
-3329.101
20
1112.551
0
VERTEX
8
L1D0
10
-3354.728
20
1032.707
0
VERTEX
8
L1D0
10
-3378.44
20
952.274
0
VERTEX
8
L1D0
10
-3400.224
20
871.298
0
VERTEX
8
L1D0
10
-3420.068
20
789.824
0
VERTEX
8
L1D0
10
-3437.959
20
707.899
0
VERTEX
8
L1D0
10
-3453.889
20
625.571
0
VERTEX
8
L1D0
10
-3467.847
20
542.885
0
VERTEX
8
L1D0
10
-3479.826
20
459.89
0
VERTEX
8
L1D0
10
-3489.819
20
376.632
0
VERTEX
8
L1D0
10
-3497.82
20
293.159
0
VERTEX
8
L1D0
10
-3503.825
20
209.519
0
VERTEX
8
L1D0
10
-3507.83
20
125.759
0
VERTEX
8
L1D0
10
-3509.833
20
41.928
0
VERTEX
8
L1D0
10
-3509.833
20
-41.928
0
VERTEX
8
L1D0
10
-3507.83
20
-125.759
0
VERTEX
8
L1D0
10
-3503.825
20
-209.519
0
VERTEX
8
L1D0
10
-3497.82
20
-293.159
0
VERTEX
8
L1D0
10
-3489.819
20
-376.632
0
VERTEX
8
L1D0
10
-3479.826
20
-459.89
0
VERTEX
8
L1D0
10
-3467.847
20
-542.885
0
VERTEX
8
L1D0
10
-3453.889
20
-625.571
0
VERTEX
8
L1D0
10
-3437.959
20
-707.899
0
VERTEX
8
L1D0
10
-3420.068
20
-789.824
0
VERTEX
8
L1D0
10
-3400.224
20
-871.298
0
VERTEX
8
L1D0
10
-3378.44
20
-952.274
0
VERTEX
8
L1D0
10
-3354.728
20
-1032.707
0
VERTEX
8
L1D0
10
-3329.101
20
-1112.551
0
VERTEX
8
L1D0
10
-3301.575
20
-1191.759
0
VERTEX
8
L1D0
10
-3272.164
20
-1270.288
0
VERTEX
8
L1D0
10
-3240.885
20
-1348.091
0
VERTEX
8
L1D0
10
-3207.757
20
-1425.126
0
VERTEX
8
L1D0
10
-3172.798
20
-1501.346
0
VERTEX
8
L1D0
10
-3136.028
20
-1576.71
0
VERTEX
8
L1D0
10
-3097.468
20
-1651.174
0
VERTEX
8
L1D0
10
-3057.141
20
-1724.696
0
VERTEX
8
L1D0
10
-3015.069
20
-1797.233
0
VERTEX
8
L1D0
10
-2971.276
20
-1868.745
0
VERTEX
8
L1D0
10
-2925.787
20
-1939.19
0
VERTEX
8
L1D0
10
-2878.628
20
-2008.528
0
VERTEX
8
L1D0
10
-2829.827
20
-2076.72
0
VERTEX
8
L1D0
10
-2779.41
20
-2143.727
0
VERTEX
8
L1D0
10
-2727.407
20
-2209.51
0
VERTEX
8
L1D0
10
-2673.848
20
-2274.032
0
VERTEX
8
L1D0
10
-2618.762
20
-2337.257
0
VERTEX
8
L1D0
10
-2562.182
20
-2399.147
0
VERTEX
8
L1D0
10
-2504.14
20
-2459.668
0
VERTEX
8
L1D0
10
-2444.668
20
-2518.786
0
VERTEX
8
L1D0
10
-2383.802
20
-2576.466
0
VERTEX
8
L1D0
10
-2380.012
20
-2579.89
0
VERTEX
8
L1D0
10
-1530.362
20
-1730.24
0
VERTEX
8
L1D0
10
-1540.676
20
-1721.278
0
VERTEX
8
L1D0
10
-1590.773
20
-1675.088
0
VERTEX
8
L1D0
10
-1639.487
20
-1627.441
0
VERTEX
8
L1D0
10
-1686.774
20
-1578.377
0
VERTEX
8
L1D0
10
-1732.593
20
-1527.94
0
VERTEX
8
L1D0
10
-1776.905
20
-1476.174
0
VERTEX
8
L1D0
10
-1819.67
20
-1423.123
0
VERTEX
8
L1D0
10
-1860.853
20
-1368.834
0
VERTEX
8
L1D0
10
-1900.416
20
-1313.354
0
VERTEX
8
L1D0
10
-1938.326
20
-1256.732
0
VERTEX
8
L1D0
10
-1974.549
20
-1199.015
0
VERTEX
8
L1D0
10
-2009.054
20
-1140.256
0
VERTEX
8
L1D0
10
-2041.811
20
-1080.504
0
VERTEX
8
L1D0
10
-2072.791
20
-1019.813
0
VERTEX
8
L1D0
10
-2101.968
20
-958.233
0
VERTEX
8
L1D0
10
-2129.316
20
-895.821
0
VERTEX
8
L1D0
10
-2154.811
20
-832.628
0
VERTEX
8
L1D0
10
-2178.431
20
-768.712
0
VERTEX
8
L1D0
10
-2200.156
20
-704.126
0
VERTEX
8
L1D0
10
-2219.967
20
-638.928
0
VERTEX
8
L1D0
10
-2237.846
20
-573.173
0
VERTEX
8
L1D0
10
-2253.778
20
-506.92
0
VERTEX
8
L1D0
10
-2267.748
20
-440.226
0
VERTEX
8
L1D0
10
-2279.746
20
-373.149
0
VERTEX
8
L1D0
10
-2289.76
20
-305.747
0
VERTEX
8
L1D0
10
-2297.782
20
-238.08
0
VERTEX
8
L1D0
10
-2303.804
20
-170.205
0
VERTEX
8
L1D0
10
-2307.822
20
-102.182
0
VERTEX
8
L1D0
10
-2309.831
20
-34.07
0
VERTEX
8
L1D0
10
-2309.831
20
34.071
0
VERTEX
8
L1D0
10
-2307.822
20
102.183
0
VERTEX
8
L1D0
10
-2303.804
20
170.206
0
VERTEX
8
L1D0
10
-2297.782
20
238.081
0
VERTEX
8
L1D0
10
-2289.76
20
305.748
0
VERTEX
8
L1D0
10
-2279.746
20
373.15
0
VERTEX
8
L1D0
10
-2267.748
20
440.227
0
VERTEX
8
L1D0
10
-2253.778
20
506.921
0
VERTEX
8
L1D0
10
-2237.846
20
573.174
0
VERTEX
8
L1D0
10
-2219.967
20
638.929
0
VERTEX
8
L1D0
10
-2200.156
20
704.127
0
VERTEX
8
L1D0
10
-2178.431
20
768.713
0
VERTEX
8
L1D0
10
-2154.811
20
832.629
0
VERTEX
8
L1D0
10
-2129.316
20
895.822
0
VERTEX
8
L1D0
10
-2101.968
20
958.234
0
VERTEX
8
L1D0
10
-2072.791
20
1019.814
0
VERTEX
8
L1D0
10
-2041.811
20
1080.505
0
VERTEX
8
L1D0
10
-2009.054
20
1140.257
0
VERTEX
8
L1D0
10
-1974.549
20
1199.016
0
VERTEX
8
L1D0
10
-1938.326
20
1256.733
0
VERTEX
8
L1D0
10
-1900.416
20
1313.355
0
VERTEX
8
L1D0
10
-1860.853
20
1368.835
0
VERTEX
8
L1D0
10
-1819.67
20
1423.124
0
VERTEX
8
L1D0
10
-1776.905
20
1476.175
0
VERTEX
8
L1D0
10
-1732.593
20
1527.941
0
VERTEX
8
L1D0
10
-1686.774
20
1578.378
0
VERTEX
8
L1D0
10
-1639.487
20
1627.442
0
VERTEX
8
L1D0
10
-1590.773
20
1675.089
0
VERTEX
8
L1D0
10
-1540.676
20
1721.279
0
VERTEX
8
L1D0
10
-1530.36
20
1730.242
0
VERTEX
8
L1D0
10
-2380.01
20
2579.892
0
VERTEX
8
L1D0
10
-1838.367
20
2579.892
0
VERTEX
8
L1D0
10
-1220.007
20
1961.531
0
VERTEX
8
L1D0
10
-1213.544
20
1965.654
0
VERTEX
8
L1D0
10
-1155.041
20
2000.591
0
VERTEX
8
L1D0
10
-1095.532
20
2033.788
0
VERTEX
8
L1D0
10
-1035.071
20
2065.215
0
VERTEX
8
L1D0
10
-973.709
20
2094.845
0
VERTEX
8
L1D0
10
-911.499
20
2122.653
0
VERTEX
8
L1D0
10
-848.496
20
2148.613
0
VERTEX
8
L1D0
10
-784.756
20
2172.704
0
VERTEX
8
L1D0
10
-720.332
20
2194.905
0
VERTEX
8
L1D0
10
-655.281
20
2215.196
0
VERTEX
8
L1D0
10
-589.661
20
2233.559
0
VERTEX
8
L1D0
10
-523.527
20
2249.979
0
VERTEX
8
L1D0
10
-456.938
20
2264.441
0
VERTEX
8
L1D0
10
-389.951
20
2276.933
0
VERTEX
8
L1D0
10
-322.625
20
2287.444
0
VERTEX
8
L1D0
10
-255.018
20
2295.964
0
VERTEX
8
L1D0
10
-187.19
20
2302.487
0
VERTEX
8
L1D0
10
-119.198
20
2307.006
0
VERTEX
8
L1D0
10
-51.103
20
2309.518
0
VERTEX
8
L1D0
10
17.036
20
2310.021
0
VERTEX
8
L1D0
10
85.161
20
2308.514
0
VERTEX
8
L1D0
10
153.212
20
2304.997
0
VERTEX
8
L1D0
10
221.129
20
2299.476
0
VERTEX
8
L1D0
10
288.854
20
2291.953
0
VERTEX
8
L1D0
10
356.328
20
2282.437
0
VERTEX
8
L1D0
10
423.492
20
2270.934
0
VERTEX
8
L1D0
10
490.287
20
2257.456
0
VERTEX
8
L1D0
10
556.656
20
2242.013
0
VERTEX
8
L1D0
10
622.54
20
2224.619
0
VERTEX
8
L1D0
10
687.883
20
2205.29
0
VERTEX
8
L1D0
10
752.627
20
2184.042
0
VERTEX
8
L1D0
10
816.716
20
2160.894
0
VERTEX
8
L1D0
10
880.094
20
2135.865
0
VERTEX
8
L1D0
10
942.707
20
2108.978
0
VERTEX
8
L1D0
10
1004.5
20
2080.256
0
VERTEX
8
L1D0
10
1065.419
20
2049.724
0
VERTEX
8
L1D0
10
1125.41
20
2017.409
0
VERTEX
8
L1D0
10
1184.422
20
1983.338
0
VERTEX
8
L1D0
10
1219.909
20
1961.43
0
VERTEX
8
L1D0
10
2083.302
20
2824.824
0
VERTEX
8
L1D0
10
2025.685
20
2866.581
0
VERTEX
8
L1D0
10
1956.63
20
2914.153
0
VERTEX
8
L1D0
10
1886.458
20
2960.061
0
VERTEX
8
L1D0
10
1815.209
20
3004.281
0
VERTEX
8
L1D0
10
1742.924
20
3046.785
0
VERTEX
8
L1D0
10
1669.645
20
3087.551
0
VERTEX
8
L1D0
10
1595.412
20
3126.555
0
VERTEX
8
L1D0
10
1520.269
20
3163.774
0
VERTEX
8
L1D0
10
1444.259
20
3199.188
0
VERTEX
8
L1D0
10
1367.424
20
3232.776
0
VERTEX
8
L1D0
10
1289.809
20
3264.518
0
VERTEX
8
L1D0
10
1211.457
20
3294.398
0
VERTEX
8
L1D0
10
1132.414
20
3322.397
0
VERTEX
8
L1D0
10
1052.725
20
3348.501
0
VERTEX
8
L1D0
10
972.435
20
3372.693
0
VERTEX
8
L1D0
10
891.59
20
3394.96
0
VERTEX
8
L1D0
10
810.236
20
3415.29
0
VERTEX
8
L1D0
10
728.42
20
3433.67
0
VERTEX
8
L1D0
10
646.188
20
3450.091
0
VERTEX
8
L1D0
10
563.588
20
3464.543
0
VERTEX
8
L1D0
10
480.665
20
3477.017
0
VERTEX
8
L1D0
10
397.468
20
3487.507
0
VERTEX
8
L1D0
10
314.045
20
3496.007
0
VERTEX
8
L1D0
10
230.442
20
3502.511
0
VERTEX
8
L1D0
10
146.708
20
3507.016
0
VERTEX
8
L1D0
10
62.89
20
3509.52
0
VERTEX
8
L1D0
10
-20.964
20
3510.021
0
VERTEX
8
L1D0
10
12205.191
20
3510.021
0
VERTEX
8
L1D0
10
12217.832
20
3466.512
0
VERTEX
8
L1D0
10
12260.427
20
3312.709
0
VERTEX
8
L1D0
10
12301.087
20
3158.382
0
VERTEX
8
L1D0
10
12339.804
20
3003.557
0
VERTEX
8
L1D0
10
12376.573
20
2848.257
0
VERTEX
8
L1D0
10
12411.387
20
2692.508
0
VERTEX
8
L1D0
10
12435.106
20
2579.755
0
VERTEX
8
L1D0
10
2379.877
20
2579.755
0
VERTEX
8
L1D0
10
1530.328
20
1730.206
0
VERTEX
8
L1D0
10
1565.896
20
1698.369
0
VERTEX
8
L1D0
10
1615.307
20
1651.445
0
VERTEX
8
L1D0
10
1663.312
20
1603.084
0
VERTEX
8
L1D0
10
1709.87
20
1553.329
0
VERTEX
8
L1D0
10
1754.941
20
1502.222
0
VERTEX
8
L1D0
10
1798.484
20
1449.807
0
VERTEX
8
L1D0
10
1840.463
20
1396.132
0
VERTEX
8
L1D0
10
1880.84
20
1341.241
0
VERTEX
8
L1D0
10
1919.581
20
1285.184
0
VERTEX
8
L1D0
10
1956.651
20
1228.008
0
VERTEX
8
L1D0
10
1992.019
20
1169.764
0
VERTEX
8
L1D0
10
2025.654
20
1110.502
0
VERTEX
8
L1D0
10
2057.526
20
1050.274
0
VERTEX
8
L1D0
10
2087.608
20
989.132
0
VERTEX
8
L1D0
10
2115.873
20
927.129
0
VERTEX
8
L1D0
10
2142.298
20
864.319
0
VERTEX
8
L1D0
10
2166.858
20
800.758
0
VERTEX
8
L1D0
10
2189.533
20
736.5
0
VERTEX
8
L1D0
10
2210.303
20
671.601
0
VERTEX
8
L1D0
10
2229.15
20
606.117
0
VERTEX
8
L1D0
10
2246.057
20
540.107
0
VERTEX
8
L1D0
10
2261.01
20
473.626
0
VERTEX
8
L1D0
10
2273.995
20
406.733
0
VERTEX
8
L1D0
10
2285.002
20
339.486
0
VERTEX
8
L1D0
10
2294.021
20
271.944
0
VERTEX
8
L1D0
10
2301.044
20
204.165
0
VERTEX
8
L1D0
10
2306.065
20
136.209
0
VERTEX
8
L1D0
10
2309.079
20
68.134
0
VERTEX
8
L1D0
10
2310.084
20
0
0
VERTEX
8
L1D0
10
2309.079
20
-68.133
0
VERTEX
8
L1D0
10
2306.065
20
-136.208
0
VERTEX
8
L1D0
10
2301.044
20
-204.164
0
VERTEX
8
L1D0
10
2294.021
20
-271.943
0
VERTEX
8
L1D0
10
2285.002
20
-339.485
0
VERTEX
8
L1D0
10
2273.995
20
-406.732
0
VERTEX
8
L1D0
10
2261.01
20
-473.625
0
VERTEX
8
L1D0
10
2246.057
20
-540.106
0
VERTEX
8
L1D0
10
2229.15
20
-606.116
0
VERTEX
8
L1D0
10
2210.303
20
-671.6
0
VERTEX
8
L1D0
10
2189.533
20
-736.499
0
VERTEX
8
L1D0
10
2166.858
20
-800.757
0
VERTEX
8
L1D0
10
2142.298
20
-864.318
0
VERTEX
8
L1D0
10
2115.873
20
-927.128
0
VERTEX
8
L1D0
10
2087.608
20
-989.131
0
VERTEX
8
L1D0
10
2057.526
20
-1050.273
0
VERTEX
8
L1D0
10
2025.654
20
-1110.501
0
VERTEX
8
L1D0
10
1992.019
20
-1169.763
0
VERTEX
8
L1D0
10
1956.651
20
-1228.007
0
VERTEX
8
L1D0
10
1919.581
20
-1285.183
0
VERTEX
8
L1D0
10
1880.84
20
-1341.24
0
VERTEX
8
L1D0
10
1840.463
20
-1396.131
0
VERTEX
8
L1D0
10
1798.484
20
-1449.806
0
VERTEX
8
L1D0
10
1754.941
20
-1502.221
0
VERTEX
8
L1D0
10
1709.87
20
-1553.328
0
VERTEX
8
L1D0
10
1663.312
20
-1603.083
0
VERTEX
8
L1D0
10
1615.307
20
-1651.444
0
VERTEX
8
L1D0
10
1565.896
20
-1698.368
0
VERTEX
8
L1D0
10
1530.329
20
-1730.204
0
VERTEX
8
L1D0
10
1580.564
20
-1780.439
0
VERTEX
8
L1D0
10
1588.377
20
-1776.997
0
VERTEX
8
L1D0
10
1620.299
20
-1765.139
0
VERTEX
8
L1D0
10
1652.868
20
-1755.193
0
VERTEX
8
L1D0
10
1685.969
20
-1747.195
0
VERTEX
8
L1D0
10
1719.486
20
-1741.171
0
VERTEX
8
L1D0
10
1753.301
20
-1737.143
0
VERTEX
8
L1D0
10
1787.294
20
-1735.126
0
VERTEX
8
L1D0
10
1821.348
20
-1735.126
0
VERTEX
8
L1D0
10
1855.342
20
-1737.143
0
VERTEX
8
L1D0
10
1889.157
20
-1741.171
0
VERTEX
8
L1D0
10
1922.673
20
-1747.195
0
VERTEX
8
L1D0
10
1955.774
20
-1755.193
0
VERTEX
8
L1D0
10
1988.343
20
-1765.139
0
VERTEX
8
L1D0
10
2020.266
20
-1776.997
0
VERTEX
8
L1D0
10
2051.43
20
-1790.724
0
VERTEX
8
L1D0
10
2081.726
20
-1806.274
0
VERTEX
8
L1D0
10
2111.048
20
-1823.592
0
VERTEX
8
L1D0
10
2139.292
20
-1842.616
0
VERTEX
8
L1D0
10
2166.36
20
-1863.279
0
VERTEX
8
L1D0
10
2192.156
20
-1885.51
0
VERTEX
8
L1D0
10
2216.589
20
-1909.231
0
VERTEX
8
L1D0
10
2239.575
20
-1934.356
0
VERTEX
8
L1D0
10
2261.032
20
-1960.8
0
VERTEX
8
L1D0
10
2261.483
20
-1961.428
0
VERTEX
8
L1D0
10
1219.909
20
-1961.428
0
VERTEX
8
L1D0
10
1184.422
20
-1983.337
0
VERTEX
8
L1D0
10
1125.41
20
-2017.408
0
VERTEX
8
L1D0
10
1065.419
20
-2049.723
0
VERTEX
8
L1D0
10
1004.5
20
-2080.255
0
VERTEX
8
L1D0
10
942.707
20
-2108.977
0
VERTEX
8
L1D0
10
880.094
20
-2135.864
0
VERTEX
8
L1D0
10
816.716
20
-2160.893
0
VERTEX
8
L1D0
10
752.627
20
-2184.041
0
VERTEX
8
L1D0
10
687.883
20
-2205.289
0
VERTEX
8
L1D0
10
622.54
20
-2224.618
0
VERTEX
8
L1D0
10
556.656
20
-2242.012
0
VERTEX
8
L1D0
10
490.287
20
-2257.455
0
VERTEX
8
L1D0
10
423.492
20
-2270.933
0
VERTEX
8
L1D0
10
356.328
20
-2282.436
0
VERTEX
8
L1D0
10
288.854
20
-2291.952
0
VERTEX
8
L1D0
10
221.129
20
-2299.475
0
VERTEX
8
L1D0
10
153.212
20
-2304.996
0
VERTEX
8
L1D0
10
85.161
20
-2308.513
0
VERTEX
8
L1D0
10
17.036
20
-2310.02
0
VERTEX
8
L1D0
10
-51.103
20
-2309.517
0
VERTEX
8
L1D0
10
-119.198
20
-2307.005
0
VERTEX
8
L1D0
10
-187.19
20
-2302.486
0
VERTEX
8
L1D0
10
-255.018
20
-2295.963
0
VERTEX
8
L1D0
10
-322.625
20
-2287.443
0
VERTEX
8
L1D0
10
-389.951
20
-2276.932
0
VERTEX
8
L1D0
10
-456.938
20
-2264.44
0
VERTEX
8
L1D0
10
-523.527
20
-2249.978
0
VERTEX
8
L1D0
10
-589.661
20
-2233.558
0
VERTEX
8
L1D0
10
-655.281
20
-2215.195
0
VERTEX
8
L1D0
10
-720.332
20
-2194.904
0
VERTEX
8
L1D0
10
-784.756
20
-2172.703
0
VERTEX
8
L1D0
10
-848.496
20
-2148.612
0
VERTEX
8
L1D0
10
-911.499
20
-2122.652
0
VERTEX
8
L1D0
10
-973.709
20
-2094.844
0
VERTEX
8
L1D0
10
-1035.071
20
-2065.214
0
VERTEX
8
L1D0
10
-1095.532
20
-2033.787
0
VERTEX
8
L1D0
10
-1155.041
20
-2000.59
0
VERTEX
8
L1D0
10
-1213.544
20
-1965.653
0
VERTEX
8
L1D0
10
-1220.009
20
-1961.529
0
VERTEX
8
L1D0
10
-2083.232
20
-2824.754
0
VERTEX
8
L1D0
10
-2059.782
20
-2842.18
0
VERTEX
8
L1D0
10
-1991.299
20
-2890.573
0
VERTEX
8
L1D0
10
-1921.681
20
-2937.317
0
VERTEX
8
L1D0
10
-1850.965
20
-2982.384
0
VERTEX
8
L1D0
10
-1779.193
20
-3025.749
0
VERTEX
8
L1D0
10
-1706.406
20
-3067.387
0
VERTEX
8
L1D0
10
-1632.645
20
-3107.275
0
VERTEX
8
L1D0
10
-1557.952
20
-3145.389
0
VERTEX
8
L1D0
10
-1482.37
20
-3181.708
0
VERTEX
8
L1D0
10
-1405.942
20
-3216.211
0
VERTEX
8
L1D0
10
-1328.711
20
-3248.879
0
VERTEX
8
L1D0
10
-1250.722
20
-3279.692
0
VERTEX
8
L1D0
10
-1172.019
20
-3308.634
0
VERTEX
8
L1D0
10
-1092.648
20
-3335.687
0
VERTEX
8
L1D0
10
-1012.652
20
-3360.836
0
VERTEX
8
L1D0
10
-932.079
20
-3384.068
0
VERTEX
8
L1D0
10
-850.974
20
-3405.368
0
VERTEX
8
L1D0
10
-769.383
20
-3424.724
0
VERTEX
8
L1D0
10
-687.353
20
-3442.126
0
VERTEX
8
L1D0
10
-604.931
20
-3457.563
0
VERTEX
8
L1D0
10
-522.164
20
-3471.027
0
VERTEX
8
L1D0
10
-439.098
20
-3482.51
0
VERTEX
8
L1D0
10
-355.782
20
-3492.006
0
VERTEX
8
L1D0
10
-272.263
20
-3499.508
0
VERTEX
8
L1D0
10
-188.588
20
-3505.014
0
VERTEX
8
L1D0
10
-104.806
20
-3508.518
0
VERTEX
8
L1D0
10
-20.964
20
-3510.021
0
VERTEX
8
L1D0
10
62.89
20
-3509.52
0
VERTEX
8
L1D0
10
146.708
20
-3507.016
0
VERTEX
8
L1D0
10
230.442
20
-3502.511
0
VERTEX
8
L1D0
10
314.045
20
-3496.007
0
VERTEX
8
L1D0
10
397.468
20
-3487.507
0
VERTEX
8
L1D0
10
480.665
20
-3477.017
0
VERTEX
8
L1D0
10
563.588
20
-3464.543
0
VERTEX
8
L1D0
10
646.188
20
-3450.091
0
VERTEX
8
L1D0
10
728.42
20
-3433.67
0
VERTEX
8
L1D0
10
810.236
20
-3415.29
0
VERTEX
8
L1D0
10
891.59
20
-3394.96
0
VERTEX
8
L1D0
10
972.435
20
-3372.693
0
VERTEX
8
L1D0
10
1052.725
20
-3348.501
0
VERTEX
8
L1D0
10
1132.414
20
-3322.397
0
VERTEX
8
L1D0
10
1211.457
20
-3294.398
0
VERTEX
8
L1D0
10
1289.809
20
-3264.518
0
VERTEX
8
L1D0
10
1367.424
20
-3232.776
0
VERTEX
8
L1D0
10
1444.259
20
-3199.188
0
VERTEX
8
L1D0
10
1520.269
20
-3163.774
0
VERTEX
8
L1D0
10
1595.412
20
-3126.555
0
VERTEX
8
L1D0
10
1669.645
20
-3087.551
0
VERTEX
8
L1D0
10
1742.924
20
-3046.785
0
VERTEX
8
L1D0
10
1815.209
20
-3004.281
0
VERTEX
8
L1D0
10
1886.458
20
-2960.061
0
VERTEX
8
L1D0
10
1956.63
20
-2914.153
0
VERTEX
8
L1D0
10
2025.685
20
-2866.581
0
VERTEX
8
L1D0
10
2083.304
20
-2824.823
0
VERTEX
8
L1D0
10
2074.719
20
-2816.238
0
VERTEX
8
L1D0
10
2051.43
20
-2828.191
0
VERTEX
8
L1D0
10
2020.266
20
-2841.919
0
VERTEX
8
L1D0
10
1988.343
20
-2853.776
0
VERTEX
8
L1D0
10
1955.774
20
-2863.722
0
VERTEX
8
L1D0
10
1922.673
20
-2871.721
0
VERTEX
8
L1D0
10
1889.157
20
-2877.744
0
VERTEX
8
L1D0
10
1855.342
20
-2881.772
0
VERTEX
8
L1D0
10
1821.348
20
-2883.789
0
VERTEX
8
L1D0
10
1787.294
20
-2883.789
0
VERTEX
8
L1D0
10
1753.301
20
-2881.772
0
VERTEX
8
L1D0
10
1719.486
20
-2877.744
0
VERTEX
8
L1D0
10
1685.969
20
-2871.721
0
VERTEX
8
L1D0
10
1652.868
20
-2863.722
0
VERTEX
8
L1D0
10
1620.299
20
-2853.776
0
VERTEX
8
L1D0
10
1588.377
20
-2841.919
0
VERTEX
8
L1D0
10
1557.213
20
-2828.191
0
VERTEX
8
L1D0
10
1526.916
20
-2812.641
0
VERTEX
8
L1D0
10
1497.595
20
-2795.324
0
VERTEX
8
L1D0
10
1469.35
20
-2776.3
0
VERTEX
8
L1D0
10
1442.283
20
-2755.636
0
VERTEX
8
L1D0
10
1416.487
20
-2733.405
0
VERTEX
8
L1D0
10
1392.053
20
-2709.685
0
VERTEX
8
L1D0
10
1369.067
20
-2684.559
0
VERTEX
8
L1D0
10
1347.61
20
-2658.115
0
VERTEX
8
L1D0
10
1327.758
20
-2630.447
0
VERTEX
8
L1D0
10
1309.579
20
-2601.652
0
VERTEX
8
L1D0
10
1293.138
20
-2571.83
0
VERTEX
8
L1D0
10
1278.493
20
-2541.086
0
VERTEX
8
L1D0
10
1265.695
20
-2509.529
0
VERTEX
8
L1D0
10
1254.788
20
-2477.269
0
VERTEX
8
L1D0
10
1245.812
20
-2444.42
0
VERTEX
8
L1D0
10
1238.798
20
-2411.096
0
VERTEX
8
L1D0
10
1233.77
20
-2377.416
0
VERTEX
8
L1D0
10
1230.746
20
-2343.496
0
VERTEX
8
L1D0
10
1229.737
20
-2309.458
0
VERTEX
8
L1D0
10
1230.746
20
-2275.419
0
VERTEX
8
L1D0
10
1233.77
20
-2241.5
0
VERTEX
8
L1D0
10
1238.798
20
-2207.819
0
VERTEX
8
L1D0
10
1245.812
20
-2174.496
0
VERTEX
8
L1D0
10
1254.788
20
-2141.647
0
VERTEX
8
L1D0
10
1265.695
20
-2109.387
0
VERTEX
8
L1D0
10
1278.493
20
-2077.829
0
VERTEX
8
L1D0
10
1293.138
20
-2047.086
0
VERTEX
8
L1D0
10
1297.555
20
-2039.074
0
VERTEX
8
L1D0
10
1219.909
20
-1961.428
0
VERTEX
8
L1D0
10
2261.483
20
-1961.428
0
VERTEX
8
L1D0
10
2280.885
20
-1988.468
0
VERTEX
8
L1D0
10
2299.063
20
-2017.264
0
VERTEX
8
L1D0
10
2315.504
20
-2047.086
0
VERTEX
8
L1D0
10
2330.149
20
-2077.829
0
VERTEX
8
L1D0
10
2342.948
20
-2109.387
0
VERTEX
8
L1D0
10
2353.854
20
-2141.647
0
VERTEX
8
L1D0
10
2362.83
20
-2174.496
0
VERTEX
8
L1D0
10
2369.844
20
-2207.819
0
VERTEX
8
L1D0
10
2374.872
20
-2241.5
0
VERTEX
8
L1D0
10
2377.896
20
-2275.419
0
VERTEX
8
L1D0
10
2378.905
20
-2309.458
0
VERTEX
8
L1D0
10
2377.896
20
-2343.496
0
VERTEX
8
L1D0
10
2374.872
20
-2377.416
0
VERTEX
8
L1D0
10
2369.844
20
-2411.096
0
VERTEX
8
L1D0
10
2362.83
20
-2444.42
0
VERTEX
8
L1D0
10
2353.854
20
-2477.269
0
VERTEX
8
L1D0
10
2342.948
20
-2509.529
0
VERTEX
8
L1D0
10
2333.341
20
-2533.216
0
VERTEX
8
L1D0
10
2379.879
20
-2579.754
0
VERTEX
8
L1D0
10
2414.407
20
-2547.808
0
VERTEX
8
L1D0
10
2474.581
20
-2489.405
0
VERTEX
8
L1D0
10
2533.342
20
-2429.581
0
VERTEX
8
L1D0
10
2590.657
20
-2368.371
0
VERTEX
8
L1D0
10
2646.494
20
-2305.809
0
VERTEX
8
L1D0
10
2700.82
20
-2241.931
0
VERTEX
8
L1D0
10
2753.605
20
-2176.774
0
VERTEX
8
L1D0
10
2804.819
20
-2110.374
0
VERTEX
8
L1D0
10
2854.431
20
-2042.77
0
VERTEX
8
L1D0
10
2902.415
20
-1974
0
VERTEX
8
L1D0
10
2948.742
20
-1904.103
0
VERTEX
8
L1D0
10
2993.386
20
-1833.12
0
VERTEX
8
L1D0
10
3036.321
20
-1761.09
0
VERTEX
8
L1D0
10
3077.524
20
-1688.055
0
VERTEX
8
L1D0
10
3116.97
20
-1614.057
0
VERTEX
8
L1D0
10
3154.638
20
-1539.138
0
VERTEX
8
L1D0
10
3190.505
20
-1463.34
0
VERTEX
8
L1D0
10
3224.551
20
-1386.707
0
VERTEX
8
L1D0
10
3256.757
20
-1309.283
0
VERTEX
8
L1D0
10
3287.104
20
-1231.112
0
VERTEX
8
L1D0
10
3315.575
20
-1152.237
0
VERTEX
8
L1D0
10
3342.153
20
-1072.706
0
VERTEX
8
L1D0
10
3366.825
20
-992.562
0
VERTEX
8
L1D0
10
3389.574
20
-911.851
0
VERTEX
8
L1D0
10
3410.389
20
-830.62
0
VERTEX
8
L1D0
10
3429.258
20
-748.915
0
VERTEX
8
L1D0
10
3446.17
20
-666.783
0
VERTEX
8
L1D0
10
3461.115
20
-584.27
0
VERTEX
8
L1D0
10
3474.084
20
-501.423
0
VERTEX
8
L1D0
10
3485.071
20
-418.291
0
VERTEX
8
L1D0
10
3494.069
20
-334.919
0
VERTEX
8
L1D0
10
3501.072
20
-251.357
0
VERTEX
8
L1D0
10
3506.077
20
-167.651
0
VERTEX
8
L1D0
10
3509.082
20
-83.849
0
VERTEX
8
L1D0
10
3510.083
20
0
0
VERTEX
8
L1D0
10
3509.082
20
83.849
0
VERTEX
8
L1D0
10
3506.077
20
167.651
0
VERTEX
8
L1D0
10
3501.072
20
251.357
0
VERTEX
8
L1D0
10
3494.069
20
334.919
0
VERTEX
8
L1D0
10
3485.071
20
418.291
0
VERTEX
8
L1D0
10
3474.084
20
501.423
0
VERTEX
8
L1D0
10
3461.115
20
584.27
0
VERTEX
8
L1D0
10
3446.17
20
666.783
0
VERTEX
8
L1D0
10
3429.258
20
748.915
0
VERTEX
8
L1D0
10
3410.389
20
830.62
0
VERTEX
8
L1D0
10
3389.574
20
911.851
0
VERTEX
8
L1D0
10
3366.825
20
992.562
0
VERTEX
8
L1D0
10
3342.153
20
1072.706
0
VERTEX
8
L1D0
10
3315.575
20
1152.237
0
VERTEX
8
L1D0
10
3287.104
20
1231.112
0
VERTEX
8
L1D0
10
3256.757
20
1309.283
0
VERTEX
8
L1D0
10
3224.551
20
1386.707
0
VERTEX
8
L1D0
10
3190.505
20
1463.34
0
VERTEX
8
L1D0
10
3154.638
20
1539.138
0
VERTEX
8
L1D0
10
3116.97
20
1614.057
0
VERTEX
8
L1D0
10
3077.524
20
1688.055
0
VERTEX
8
L1D0
10
3036.321
20
1761.09
0
VERTEX
8
L1D0
10
2993.386
20
1833.12
0
VERTEX
8
L1D0
10
2948.742
20
1904.103
0
VERTEX
8
L1D0
10
2902.415
20
1974
0
VERTEX
8
L1D0
10
2854.431
20
2042.77
0
VERTEX
8
L1D0
10
2804.819
20
2110.374
0
VERTEX
8
L1D0
10
2753.605
20
2176.774
0
VERTEX
8
L1D0
10
2700.82
20
2241.931
0
VERTEX
8
L1D0
10
2646.494
20
2305.809
0
VERTEX
8
L1D0
10
2590.657
20
2368.371
0
VERTEX
8
L1D0
10
2533.342
20
2429.581
0
VERTEX
8
L1D0
10
2474.581
20
2489.405
0
VERTEX
8
L1D0
10
2414.407
20
2547.808
0
VERTEX
8
L1D0
10
2379.877
20
2579.755
0
VERTEX
8
L1D0
10
12435.106
20
2579.755
0
VERTEX
8
L1D0
10
12444.241
20
2536.333
0
VERTEX
8
L1D0
10
12475.13
20
2379.758
0
VERTEX
8
L1D0
10
12504.049
20
2222.807
0
VERTEX
8
L1D0
10
12530.994
20
2065.506
0
VERTEX
8
L1D0
10
12555.96
20
1907.878
0
VERTEX
8
L1D0
10
12578.943
20
1749.948
0
VERTEX
8
L1D0
10
12599.94
20
1591.743
0
VERTEX
8
L1D0
10
12618.947
20
1433.286
0
VERTEX
8
L1D0
10
12635.961
20
1274.602
0
VERTEX
8
L1D0
10
12650.98
20
1115.718
0
VERTEX
8
L1D0
10
12664.001
20
956.657
0
VERTEX
8
L1D0
10
12675.023
20
797.445
0
VERTEX
8
L1D0
10
12684.043
20
638.107
0
VERTEX
8
L1D0
10
12691.06
20
478.668
0
VERTEX
8
L1D0
10
12696.073
20
319.154
0
VERTEX
8
L1D0
10
12699.081
20
159.59
0
VERTEX
8
L1D0
10
12700.084
20
0
0
VERTEX
8
L1D0
10
12699.081
20
-159.59
0
VERTEX
8
L1D0
10
12696.073
20
-319.154
0
VERTEX
8
L1D0
10
12691.06
20
-478.668
0
VERTEX
8
L1D0
10
12684.043
20
-638.107
0
VERTEX
8
L1D0
10
12675.023
20
-797.445
0
VERTEX
8
L1D0
10
12664.001
20
-956.657
0
VERTEX
8
L1D0
10
12650.98
20
-1115.718
0
VERTEX
8
L1D0
10
12635.961
20
-1274.602
0
VERTEX
8
L1D0
10
12618.947
20
-1433.286
0
VERTEX
8
L1D0
10
12599.94
20
-1591.743
0
VERTEX
8
L1D0
10
12578.943
20
-1749.948
0
VERTEX
8
L1D0
10
12555.96
20
-1907.878
0
VERTEX
8
L1D0
10
12530.994
20
-2065.506
0
VERTEX
8
L1D0
10
12504.049
20
-2222.807
0
VERTEX
8
L1D0
10
12475.13
20
-2379.758
0
VERTEX
8
L1D0
10
12444.241
20
-2536.333
0
VERTEX
8
L1D0
10
12411.387
20
-2692.508
0
VERTEX
8
L1D0
10
12376.573
20
-2848.257
0
VERTEX
8
L1D0
10
12339.804
20
-3003.557
0
VERTEX
8
L1D0
10
12301.087
20
-3158.382
0
VERTEX
8
L1D0
10
12260.427
20
-3312.709
0
VERTEX
8
L1D0
10
12217.832
20
-3466.512
0
VERTEX
8
L1D0
10
12173.307
20
-3619.768
0
VERTEX
8
L1D0
10
12126.86
20
-3772.453
0
VERTEX
8
L1D0
10
12078.497
20
-3924.542
0
VERTEX
8
L1D0
10
12028.228
20
-4076.011
0
VERTEX
8
L1D0
10
11976.059
20
-4226.836
0
VERTEX
8
L1D0
10
11921.998
20
-4376.994
0
VERTEX
8
L1D0
10
11866.056
20
-4526.461
0
VERTEX
8
L1D0
10
11808.239
20
-4675.213
0
VERTEX
8
L1D0
10
11748.558
20
-4823.226
0
VERTEX
8
L1D0
10
11687.021
20
-4970.478
0
VERTEX
8
L1D0
10
11623.639
20
-5116.945
0
VERTEX
8
L1D0
10
11558.422
20
-5262.605
0
VERTEX
8
L1D0
10
11491.379
20
-5407.433
0
VERTEX
8
L1D0
10
11422.522
20
-5551.407
0
VERTEX
8
L1D0
10
11351.861
20
-5694.504
0
VERTEX
8
L1D0
10
11279.407
20
-5836.703
0
VERTEX
8
L1D0
10
11205.172
20
-5977.979
0
VERTEX
8
L1D0
10
11129.168
20
-6118.312
0
VERTEX
8
L1D0
10
11051.406
20
-6257.678
0
VERTEX
8
L1D0
10
10971.9
20
-6396.057
0
VERTEX
8
L1D0
10
10890.66
20
-6533.425
0
VERTEX
8
L1D0
10
10807.701
20
-6669.762
0
VERTEX
8
L1D0
10
10723.035
20
-6805.045
0
VERTEX
8
L1D0
10
10636.676
20
-6939.254
0
VERTEX
8
L1D0
10
10548.637
20
-7072.367
0
VERTEX
8
L1D0
10
10458.933
20
-7204.363
0
VERTEX
8
L1D0
10
10367.577
20
-7335.222
0
VERTEX
8
L1D0
10
10274.583
20
-7464.922
0
VERTEX
8
L1D0
10
10179.968
20
-7593.443
0
VERTEX
8
L1D0
10
10083.744
20
-7720.766
0
VERTEX
8
L1D0
10
9985.929
20
-7846.869
0
VERTEX
8
L1D0
10
9886.536
20
-7971.733
0
VERTEX
8
L1D0
10
9785.583
20
-8095.338
0
VERTEX
8
L1D0
10
9683.084
20
-8217.665
0
VERTEX
8
L1D0
10
9579.056
20
-8338.694
0
VERTEX
8
L1D0
10
9473.515
20
-8458.406
0
VERTEX
8
L1D0
10
9366.478
20
-8576.783
0
VERTEX
8
L1D0
10
9257.962
20
-8693.805
0
VERTEX
8
L1D0
10
9147.985
20
-8809.455
0
VERTEX
8
L1D0
10
9036.563
20
-8923.713
0
VERTEX
8
L1D0
10
8923.713
20
-9036.563
0
VERTEX
8
L1D0
10
8809.455
20
-9147.985
0
VERTEX
8
L1D0
10
8693.805
20
-9257.962
0
VERTEX
8
L1D0
10
8576.783
20
-9366.478
0
VERTEX
8
L1D0
10
8458.406
20
-9473.515
0
VERTEX
8
L1D0
10
8338.694
20
-9579.056
0
VERTEX
8
L1D0
10
8217.665
20
-9683.084
0
VERTEX
8
L1D0
10
8095.338
20
-9785.583
0
VERTEX
8
L1D0
10
7971.733
20
-9886.536
0
VERTEX
8
L1D0
10
7846.869
20
-9985.929
0
VERTEX
8
L1D0
10
7720.766
20
-10083.744
0
VERTEX
8
L1D0
10
7593.443
20
-10179.968
0
VERTEX
8
L1D0
10
7464.922
20
-10274.583
0
VERTEX
8
L1D0
10
7335.222
20
-10367.577
0
VERTEX
8
L1D0
10
7204.363
20
-10458.933
0
VERTEX
8
L1D0
10
7072.367
20
-10548.637
0
VERTEX
8
L1D0
10
6939.254
20
-10636.676
0
VERTEX
8
L1D0
10
6805.045
20
-10723.035
0
VERTEX
8
L1D0
10
6669.762
20
-10807.701
0
VERTEX
8
L1D0
10
6533.425
20
-10890.66
0
VERTEX
8
L1D0
10
6396.057
20
-10971.9
0
VERTEX
8
L1D0
10
6257.678
20
-11051.406
0
VERTEX
8
L1D0
10
6118.312
20
-11129.168
0
VERTEX
8
L1D0
10
5977.979
20
-11205.172
0
VERTEX
8
L1D0
10
5836.703
20
-11279.407
0
VERTEX
8
L1D0
10
5694.504
20
-11351.861
0
VERTEX
8
L1D0
10
5551.407
20
-11422.522
0
VERTEX
8
L1D0
10
5407.433
20
-11491.379
0
VERTEX
8
L1D0
10
5262.605
20
-11558.422
0
VERTEX
8
L1D0
10
5116.945
20
-11623.639
0
VERTEX
8
L1D0
10
4970.478
20
-11687.021
0
VERTEX
8
L1D0
10
4823.226
20
-11748.558
0
VERTEX
8
L1D0
10
4675.213
20
-11808.239
0
VERTEX
8
L1D0
10
4526.461
20
-11866.056
0
VERTEX
8
L1D0
10
4376.994
20
-11921.998
0
VERTEX
8
L1D0
10
4226.836
20
-11976.059
0
VERTEX
8
L1D0
10
4076.011
20
-12028.228
0
VERTEX
8
L1D0
10
3924.542
20
-12078.497
0
VERTEX
8
L1D0
10
3772.453
20
-12126.86
0
VERTEX
8
L1D0
10
3619.768
20
-12173.307
0
VERTEX
8
L1D0
10
3466.512
20
-12217.832
0
VERTEX
8
L1D0
10
3312.709
20
-12260.427
0
VERTEX
8
L1D0
10
3158.382
20
-12301.087
0
VERTEX
8
L1D0
10
3003.557
20
-12339.804
0
VERTEX
8
L1D0
10
2848.257
20
-12376.573
0
VERTEX
8
L1D0
10
2692.508
20
-12411.387
0
VERTEX
8
L1D0
10
2536.333
20
-12444.241
0
VERTEX
8
L1D0
10
2379.758
20
-12475.13
0
VERTEX
8
L1D0
10
2222.807
20
-12504.049
0
VERTEX
8
L1D0
10
2065.506
20
-12530.994
0
VERTEX
8
L1D0
10
1907.878
20
-12555.96
0
VERTEX
8
L1D0
10
1749.948
20
-12578.943
0
VERTEX
8
L1D0
10
1591.743
20
-12599.94
0
VERTEX
8
L1D0
10
1433.286
20
-12618.947
0
VERTEX
8
L1D0
10
1274.602
20
-12635.961
0
VERTEX
8
L1D0
10
1115.718
20
-12650.98
0
VERTEX
8
L1D0
10
956.657
20
-12664.001
0
VERTEX
8
L1D0
10
797.445
20
-12675.023
0
VERTEX
8
L1D0
10
638.107
20
-12684.043
0
VERTEX
8
L1D0
10
478.668
20
-12691.06
0
VERTEX
8
L1D0
10
319.154
20
-12696.073
0
VERTEX
8
L1D0
10
159.59
20
-12699.081
0
SEQEND
0
ENDSEC
0
EOF
